<svg width="30" height="30" viewBox="0 0 30 30" fill="none" xmlns="http://www.w3.org/2000/svg">
<path d="M25.3618 4.64061C24.1911 3.47008 22.6034 2.8125 20.9479 2.8125C19.2925 2.8125 17.7048 3.47008 16.5341 4.64061L4.63955 16.534C3.49356 17.7094 2.85683 19.2891 2.86731 20.9307C2.8778 22.5724 3.53464 24.1438 4.69555 25.3045C5.85645 26.4653 7.42794 27.1219 9.06957 27.1322C10.7112 27.1424 12.2908 26.5055 13.4661 25.3594L25.3618 13.466C26.5302 12.2946 27.1863 10.7077 27.1863 9.0533C27.1863 7.39886 26.5302 5.81196 25.3618 4.64061ZM24.0352 12.1406L18.088 18.0867L11.9134 11.9133L17.8606 5.966C18.6827 5.16294 19.7882 4.71633 20.9374 4.72305C22.0866 4.72976 23.1868 5.18925 23.9994 6.00186C24.812 6.81447 25.2715 7.91468 25.2782 9.06387C25.2849 10.2131 24.8383 11.3186 24.0352 12.1406ZM22.227 9.6492C22.3142 9.73627 22.3834 9.83966 22.4305 9.95347C22.4777 10.0673 22.502 10.1893 22.502 10.3125C22.502 10.4357 22.4777 10.5577 22.4305 10.6715C22.3834 10.7853 22.3142 10.8887 22.227 10.9758L19.4145 13.7883C19.3274 13.8753 19.2241 13.9443 19.1103 13.9914C18.9965 14.0384 18.8746 14.0626 18.7514 14.0626C18.6283 14.0625 18.5064 14.0382 18.3927 13.9911C18.2789 13.9439 18.1756 13.8748 18.0886 13.7877C18.0015 13.7006 17.9325 13.5972 17.8855 13.4834C17.8384 13.3696 17.8142 13.2477 17.8142 13.1246C17.8143 13.0014 17.8386 12.8795 17.8858 12.7658C17.9329 12.6521 18.0021 12.5487 18.0892 12.4617L20.9017 9.6492C21.0775 9.47352 21.3158 9.37483 21.5643 9.37483C21.8129 9.37483 22.0512 9.47352 22.227 9.6492Z" fill="#16A34A"/>
</svg>
