<svg width="998" height="336" viewBox="0 0 998 336" fill="none" xmlns="http://www.w3.org/2000/svg">
<g filter="url(#filter0_d_670_54545)">
<rect x="37.5938" y="24.1677" width="335.664" height="228.252" rx="16.1119" fill="#0235BD"/>
</g>
<rect x="56.3906" y="42.9648" width="12.0839" height="12.0839" rx="6.04196" fill="#FF5F56"/>
<rect x="75.1875" y="42.9648" width="12.0839" height="12.0839" rx="6.04196" fill="#F5A623"/>
<rect x="93.9863" y="42.9648" width="12.0839" height="12.0839" rx="6.04196" fill="#22C55E"/>
<path d="M127.58 120.872L128.654 121.248L124.546 134.057C124.492 134.218 124.447 134.375 124.412 134.527C124.376 134.679 124.358 134.853 124.358 135.05V135.547C124.358 135.726 124.313 135.865 124.224 135.963C124.134 136.053 124.009 136.098 123.848 136.098H121.525C121.355 136.098 121.22 136.053 121.122 135.963C121.024 135.865 120.974 135.726 120.974 135.547V135.05C120.974 134.898 120.961 134.768 120.934 134.661C120.907 134.545 120.858 134.375 120.786 134.151L116.168 119.126C116.105 118.894 116.02 118.728 115.912 118.63C115.814 118.522 115.675 118.442 115.496 118.388L114.865 118.213C114.695 118.16 114.574 118.093 114.503 118.012C114.44 117.932 114.409 117.838 114.409 117.73C114.409 117.596 114.458 117.493 114.556 117.421C114.664 117.341 114.825 117.3 115.04 117.3H120.639C120.853 117.3 121.01 117.341 121.109 117.421C121.207 117.502 121.256 117.609 121.256 117.744C121.256 117.976 121.109 118.128 120.813 118.2L119.752 118.348C119.538 118.392 119.412 118.491 119.377 118.643C119.341 118.786 119.372 119.015 119.471 119.328L124.022 134.339L122.988 135.131L127.58 120.872ZM135.999 117.757C135.999 117.614 136.052 117.502 136.16 117.421C136.267 117.341 136.424 117.3 136.63 117.3H140.738C140.962 117.3 141.123 117.341 141.222 117.421C141.32 117.502 141.369 117.609 141.369 117.744C141.369 117.851 141.338 117.94 141.275 118.012C141.213 118.075 141.083 118.142 140.886 118.213L140.335 118.401C140.076 118.5 139.857 118.657 139.678 118.871C139.507 119.086 139.355 119.422 139.221 119.878L135.032 134.057C134.969 134.272 134.92 134.451 134.884 134.594C134.857 134.728 134.844 134.88 134.844 135.05V135.547C134.844 135.726 134.795 135.865 134.696 135.963C134.607 136.053 134.486 136.098 134.334 136.098H131.877C131.716 136.098 131.586 136.053 131.487 135.963C131.389 135.865 131.34 135.726 131.34 135.547V135.05C131.34 134.907 131.335 134.773 131.326 134.648C131.317 134.522 131.277 134.343 131.205 134.111L126.788 119.126C126.699 118.849 126.613 118.665 126.533 118.576C126.452 118.478 126.336 118.406 126.184 118.361L125.553 118.187C125.383 118.133 125.262 118.075 125.19 118.012C125.128 117.94 125.096 117.855 125.096 117.757C125.096 117.614 125.15 117.502 125.257 117.421C125.365 117.341 125.521 117.3 125.727 117.3H131.205C131.411 117.3 131.563 117.341 131.662 117.421C131.769 117.502 131.823 117.614 131.823 117.757C131.823 117.864 131.783 117.958 131.702 118.039C131.631 118.111 131.51 118.169 131.34 118.213L130.319 118.361C130.113 118.406 129.988 118.495 129.943 118.63C129.907 118.755 129.939 118.992 130.037 119.341L134.414 134.312L133.542 134.997L138.039 119.784C138.165 119.373 138.183 119.059 138.093 118.845C138.004 118.621 137.749 118.455 137.328 118.348L136.455 118.2C136.294 118.155 136.178 118.097 136.106 118.025C136.034 117.954 135.999 117.864 135.999 117.757ZM147.089 116.951V134.339C147.089 134.563 147.134 134.733 147.223 134.849C147.313 134.965 147.443 135.05 147.613 135.104L148.23 135.238C148.49 135.328 148.62 135.471 148.62 135.668C148.62 135.954 148.427 136.098 148.042 136.098H143.249C143.052 136.098 142.909 136.062 142.82 135.99C142.73 135.91 142.685 135.807 142.685 135.681C142.685 135.574 142.721 135.485 142.793 135.413C142.864 135.341 142.972 135.283 143.115 135.238L143.773 135.104C143.943 135.05 144.073 134.97 144.162 134.862C144.252 134.746 144.296 134.572 144.296 134.339V118.791C144.296 118.603 144.265 118.469 144.202 118.388C144.14 118.298 144.032 118.245 143.88 118.227L142.954 118.2C142.811 118.173 142.708 118.133 142.645 118.079C142.591 118.017 142.564 117.936 142.564 117.838C142.564 117.73 142.596 117.641 142.658 117.569C142.73 117.497 142.86 117.426 143.048 117.354L145.357 116.562C145.617 116.464 145.827 116.396 145.988 116.361C146.158 116.316 146.31 116.293 146.445 116.293C146.66 116.293 146.821 116.352 146.928 116.468C147.035 116.584 147.089 116.745 147.089 116.951ZM146.727 126.86L146.23 126.363L146.807 125.853C147.855 124.931 148.75 124.273 149.493 123.879C150.244 123.477 150.969 123.275 151.668 123.275C152.733 123.275 153.556 123.629 154.138 124.336C154.72 125.034 155.078 125.987 155.212 127.196L156.045 134.285C156.081 134.527 156.139 134.715 156.219 134.849C156.309 134.974 156.443 135.064 156.622 135.118L157.199 135.238C157.343 135.283 157.45 135.341 157.522 135.413C157.593 135.485 157.629 135.574 157.629 135.681C157.629 135.807 157.584 135.91 157.495 135.99C157.405 136.062 157.262 136.098 157.065 136.098H152.232C151.838 136.098 151.641 135.954 151.641 135.668C151.641 135.471 151.771 135.328 152.03 135.238L152.688 135.104C152.876 135.05 153.019 134.961 153.118 134.836C153.216 134.71 153.252 134.527 153.225 134.285L152.42 127.612C152.312 126.726 152.084 126.064 151.735 125.625C151.386 125.177 150.871 124.954 150.191 124.954C149.77 124.954 149.322 125.07 148.848 125.303C148.374 125.535 147.855 125.889 147.291 126.363L146.727 126.86ZM163.44 124.041V134.339C163.44 134.563 163.48 134.737 163.561 134.862C163.65 134.979 163.78 135.059 163.95 135.104L164.581 135.238C164.733 135.274 164.845 135.332 164.917 135.413C164.989 135.485 165.024 135.574 165.024 135.681C165.024 135.807 164.975 135.91 164.877 135.99C164.787 136.062 164.644 136.098 164.447 136.098H159.587C159.399 136.098 159.255 136.062 159.157 135.99C159.067 135.91 159.023 135.807 159.023 135.681C159.023 135.574 159.059 135.485 159.13 135.413C159.202 135.341 159.314 135.283 159.466 135.238L160.124 135.104C160.294 135.05 160.419 134.97 160.5 134.862C160.589 134.746 160.634 134.572 160.634 134.339V125.88C160.634 125.692 160.603 125.558 160.54 125.477C160.477 125.388 160.374 125.334 160.231 125.316L159.305 125.276C159.161 125.258 159.059 125.218 158.996 125.155C158.933 125.092 158.902 125.016 158.902 124.927C158.902 124.81 158.938 124.716 159.009 124.645C159.081 124.573 159.211 124.506 159.399 124.443L161.695 123.651C161.972 123.553 162.191 123.486 162.352 123.45C162.523 123.405 162.661 123.383 162.769 123.383C162.992 123.383 163.158 123.441 163.265 123.557C163.382 123.674 163.44 123.835 163.44 124.041ZM161.762 120.912C161.189 120.912 160.723 120.756 160.365 120.442C160.016 120.12 159.842 119.708 159.842 119.207C159.842 118.706 160.016 118.298 160.365 117.985C160.723 117.672 161.189 117.515 161.762 117.515C162.335 117.515 162.796 117.676 163.145 117.999C163.503 118.312 163.682 118.715 163.682 119.207C163.682 119.708 163.503 120.12 163.145 120.442C162.796 120.756 162.335 120.912 161.762 120.912ZM172.367 135.48C173.038 135.48 173.566 135.305 173.951 134.956C174.336 134.598 174.528 134.142 174.528 133.587C174.528 133.238 174.448 132.925 174.287 132.647C174.125 132.37 173.83 132.114 173.4 131.882C172.98 131.649 172.38 131.434 171.601 131.237C170.375 130.951 169.417 130.602 168.728 130.19C168.039 129.769 167.551 129.295 167.265 128.767C166.987 128.239 166.848 127.661 166.848 127.035C166.848 125.898 167.251 124.989 168.057 124.309C168.871 123.62 170.026 123.275 171.521 123.275C172.076 123.275 172.537 123.325 172.904 123.423C173.271 123.521 173.571 123.624 173.803 123.732C174.045 123.83 174.251 123.879 174.421 123.879C174.6 123.879 174.739 123.83 174.837 123.732C174.936 123.624 175.03 123.521 175.119 123.423C175.218 123.325 175.343 123.275 175.495 123.275C175.602 123.275 175.696 123.311 175.777 123.383C175.858 123.445 175.929 123.571 175.992 123.759L176.958 126.645C177.039 126.869 177.061 127.062 177.026 127.223C176.999 127.375 176.905 127.482 176.744 127.545C176.592 127.599 176.457 127.599 176.341 127.545C176.225 127.482 176.117 127.37 176.019 127.209C175.625 126.457 175.195 125.862 174.73 125.424C174.264 124.985 173.772 124.676 173.253 124.497C172.743 124.309 172.21 124.215 171.655 124.215C170.814 124.215 170.178 124.394 169.748 124.752C169.328 125.11 169.117 125.589 169.117 126.189C169.117 126.547 169.207 126.874 169.386 127.169C169.565 127.455 169.892 127.724 170.366 127.975C170.84 128.225 171.512 128.462 172.38 128.686C173.463 128.946 174.322 129.264 174.958 129.639C175.602 130.015 176.063 130.467 176.341 130.996C176.627 131.515 176.771 132.119 176.771 132.808C176.771 133.515 176.592 134.142 176.233 134.688C175.884 135.225 175.388 135.646 174.743 135.95C174.108 136.254 173.356 136.406 172.487 136.406C171.95 136.406 171.507 136.348 171.158 136.232C170.818 136.116 170.536 135.999 170.312 135.883C170.089 135.766 169.878 135.708 169.681 135.708C169.511 135.708 169.372 135.766 169.265 135.883C169.158 135.999 169.055 136.116 168.956 136.232C168.858 136.348 168.737 136.406 168.594 136.406C168.495 136.406 168.41 136.371 168.339 136.299C168.267 136.227 168.213 136.107 168.178 135.937L167.6 133.211C167.538 132.916 167.52 132.696 167.546 132.553C167.573 132.41 167.658 132.311 167.802 132.258C167.954 132.195 168.088 132.204 168.204 132.285C168.321 132.365 168.437 132.508 168.553 132.714C169.082 133.699 169.672 134.406 170.326 134.836C170.988 135.265 171.668 135.48 172.367 135.48ZM180.019 124.605L179.267 124.417C179.052 124.363 178.904 124.3 178.824 124.229C178.752 124.148 178.716 124.058 178.716 123.96C178.716 123.826 178.761 123.727 178.851 123.665C178.94 123.593 179.061 123.557 179.213 123.557H180.099C180.332 123.557 180.515 123.521 180.65 123.45C180.784 123.378 180.905 123.244 181.012 123.047L182.154 121.06C182.279 120.863 182.404 120.72 182.529 120.63C182.655 120.541 182.785 120.496 182.919 120.496C183.071 120.496 183.187 120.545 183.268 120.644C183.349 120.733 183.389 120.858 183.389 121.02V132.822C183.389 133.448 183.514 133.923 183.765 134.245C184.024 134.567 184.382 134.728 184.839 134.728C185.152 134.728 185.398 134.679 185.577 134.58C185.765 134.473 185.909 134.348 186.007 134.205C186.114 134.061 186.213 133.932 186.302 133.815C186.401 133.699 186.517 133.632 186.651 133.614C186.759 133.605 186.839 133.636 186.893 133.708C186.956 133.77 186.987 133.882 186.987 134.043C186.978 134.437 186.835 134.809 186.557 135.158C186.289 135.498 185.913 135.78 185.43 136.004C184.955 136.218 184.409 136.326 183.792 136.326C182.816 136.326 182.037 136.075 181.455 135.574C180.882 135.064 180.596 134.294 180.596 133.265V125.343C180.596 125.137 180.551 124.98 180.462 124.873C180.381 124.757 180.234 124.667 180.019 124.605ZM182.154 124.551L182.167 123.557H186.356C186.526 123.557 186.656 123.589 186.745 123.651C186.835 123.714 186.88 123.808 186.88 123.933C186.88 124.112 186.79 124.26 186.611 124.376C186.432 124.493 186.155 124.551 185.779 124.551H182.154ZM193.309 116.951V134.339C193.309 134.563 193.354 134.737 193.443 134.862C193.533 134.979 193.662 135.059 193.833 135.104L194.45 135.238C194.602 135.274 194.714 135.332 194.786 135.413C194.866 135.485 194.907 135.574 194.907 135.681C194.907 135.807 194.857 135.91 194.759 135.99C194.669 136.062 194.526 136.098 194.329 136.098H189.469C189.272 136.098 189.129 136.062 189.039 135.99C188.95 135.91 188.905 135.807 188.905 135.681C188.905 135.574 188.941 135.485 189.012 135.413C189.084 135.341 189.191 135.283 189.335 135.238L189.993 135.104C190.163 135.05 190.292 134.97 190.382 134.862C190.471 134.746 190.516 134.572 190.516 134.339V118.791C190.516 118.603 190.48 118.469 190.409 118.388C190.346 118.298 190.243 118.245 190.1 118.227L189.174 118.2C189.03 118.173 188.927 118.133 188.865 118.079C188.802 118.017 188.771 117.936 188.771 117.838C188.771 117.73 188.807 117.641 188.878 117.569C188.95 117.497 189.08 117.426 189.268 117.354L191.577 116.562C191.845 116.464 192.06 116.396 192.221 116.361C192.391 116.316 192.535 116.293 192.651 116.293C192.875 116.293 193.04 116.352 193.148 116.468C193.255 116.584 193.309 116.745 193.309 116.951ZM208.477 128.31C208.477 128.695 208.365 128.991 208.141 129.196C207.918 129.393 207.586 129.492 207.148 129.492H198.582V128.686H204.999C205.42 128.686 205.631 128.498 205.631 128.122C205.631 126.905 205.371 125.961 204.852 125.289C204.342 124.609 203.657 124.269 202.798 124.269C202.117 124.269 201.522 124.466 201.012 124.86C200.502 125.245 200.103 125.795 199.817 126.511C199.53 127.218 199.387 128.06 199.387 129.035C199.387 130.817 199.808 132.173 200.649 133.104C201.5 134.025 202.61 134.486 203.979 134.486C204.865 134.486 205.635 134.281 206.288 133.869C206.942 133.457 207.398 132.916 207.658 132.244C207.765 132.101 207.855 132.003 207.926 131.949C207.998 131.895 208.074 131.868 208.155 131.868C208.271 131.868 208.356 131.918 208.41 132.016C208.464 132.114 208.486 132.231 208.477 132.365C208.423 133.108 208.159 133.788 207.685 134.406C207.21 135.015 206.575 135.502 205.778 135.869C204.991 136.227 204.091 136.406 203.079 136.406C201.844 136.406 200.752 136.147 199.803 135.628C198.855 135.1 198.116 134.361 197.588 133.412C197.06 132.464 196.796 131.349 196.796 130.069C196.796 128.762 197.051 127.599 197.561 126.578C198.08 125.558 198.814 124.752 199.763 124.161C200.721 123.571 201.853 123.275 203.16 123.275C204.252 123.275 205.196 123.49 205.993 123.92C206.79 124.349 207.403 124.94 207.832 125.692C208.262 126.444 208.477 127.317 208.477 128.31ZM214.456 116.951V134.46L213.208 136.031C212.921 136.165 212.711 136.254 212.577 136.299C212.442 136.353 212.308 136.38 212.174 136.38C212.022 136.38 211.896 136.335 211.798 136.245C211.708 136.156 211.664 136.022 211.664 135.843V118.791C211.664 118.603 211.628 118.469 211.556 118.388C211.494 118.298 211.391 118.245 211.247 118.227L210.321 118.2C210.178 118.173 210.075 118.133 210.012 118.079C209.95 118.017 209.918 117.936 209.918 117.838C209.918 117.73 209.954 117.641 210.026 117.569C210.097 117.497 210.227 117.426 210.415 117.354L212.724 116.562C212.993 116.464 213.208 116.396 213.369 116.361C213.539 116.316 213.682 116.293 213.798 116.293C214.022 116.293 214.188 116.352 214.295 116.468C214.403 116.584 214.456 116.745 214.456 116.951ZM213.839 127.142L213.423 126.484C214.112 125.464 214.899 124.676 215.786 124.121C216.681 123.557 217.652 123.275 218.699 123.275C219.746 123.275 220.677 123.544 221.492 124.081C222.315 124.618 222.964 125.356 223.439 126.296C223.913 127.236 224.15 128.319 224.15 129.545C224.15 130.951 223.873 132.168 223.318 133.198C222.772 134.218 222.029 135.01 221.089 135.574C220.158 136.129 219.115 136.406 217.961 136.406C216.905 136.406 215.969 136.151 215.155 135.641C214.34 135.122 213.678 134.392 213.167 133.453L213.798 132.822C214.255 133.609 214.797 134.213 215.423 134.634C216.059 135.046 216.743 135.252 217.477 135.252C218.185 135.252 218.82 135.055 219.384 134.661C219.948 134.267 220.391 133.672 220.713 132.875C221.044 132.079 221.21 131.076 221.21 129.868C221.21 128.722 221.053 127.769 220.74 127.008C220.427 126.238 220.002 125.661 219.465 125.276C218.927 124.882 218.31 124.685 217.612 124.685C216.905 124.685 216.229 124.891 215.584 125.303C214.949 125.705 214.367 126.319 213.839 127.142ZM230.783 116.951V134.339C230.783 134.563 230.827 134.737 230.917 134.862C231.006 134.979 231.136 135.059 231.306 135.104L231.924 135.238C232.076 135.274 232.188 135.332 232.26 135.413C232.34 135.485 232.38 135.574 232.38 135.681C232.38 135.807 232.331 135.91 232.233 135.99C232.143 136.062 232 136.098 231.803 136.098H226.943C226.746 136.098 226.603 136.062 226.513 135.99C226.424 135.91 226.379 135.807 226.379 135.681C226.379 135.574 226.415 135.485 226.486 135.413C226.558 135.341 226.665 135.283 226.808 135.238L227.466 135.104C227.636 135.05 227.766 134.97 227.856 134.862C227.945 134.746 227.99 134.572 227.99 134.339V118.791C227.99 118.603 227.954 118.469 227.883 118.388C227.82 118.298 227.717 118.245 227.574 118.227L226.647 118.2C226.504 118.173 226.401 118.133 226.338 118.079C226.276 118.017 226.245 117.936 226.245 117.838C226.245 117.73 226.28 117.641 226.352 117.569C226.424 117.497 226.553 117.426 226.741 117.354L229.051 116.562C229.319 116.464 229.534 116.396 229.695 116.361C229.865 116.316 230.008 116.293 230.125 116.293C230.349 116.293 230.514 116.352 230.622 116.468C230.729 116.584 230.783 116.745 230.783 116.951ZM240.983 123.289C242.29 123.289 243.44 123.566 244.434 124.121C245.427 124.676 246.201 125.45 246.756 126.444C247.32 127.429 247.602 128.57 247.602 129.868C247.602 131.121 247.316 132.24 246.743 133.224C246.179 134.209 245.391 134.988 244.38 135.561C243.377 136.125 242.214 136.406 240.889 136.406C239.591 136.406 238.445 136.129 237.452 135.574C236.458 135.01 235.679 134.236 235.115 133.251C234.552 132.258 234.27 131.121 234.27 129.841C234.27 128.57 234.556 127.442 235.129 126.457C235.702 125.473 236.489 124.698 237.492 124.135C238.495 123.571 239.658 123.289 240.983 123.289ZM241.909 135.319C242.643 135.22 243.243 134.921 243.708 134.419C244.183 133.909 244.496 133.224 244.648 132.365C244.809 131.506 244.796 130.494 244.608 129.331C244.42 128.158 244.107 127.187 243.668 126.417C243.23 125.638 242.693 125.074 242.057 124.725C241.43 124.376 240.737 124.255 239.976 124.363C239.233 124.47 238.629 124.779 238.163 125.289C237.698 125.791 237.385 126.471 237.223 127.33C237.071 128.18 237.089 129.192 237.277 130.365C237.465 131.528 237.778 132.499 238.217 133.278C238.665 134.057 239.202 134.621 239.828 134.97C240.455 135.31 241.148 135.426 241.909 135.319ZM255.417 136.245H254.45C254.245 136.245 254.065 136.196 253.913 136.098C253.761 135.99 253.64 135.807 253.551 135.547L250.073 125.37C249.966 125.048 249.858 124.833 249.751 124.725C249.644 124.618 249.509 124.546 249.348 124.511L248.838 124.417C248.686 124.372 248.578 124.318 248.516 124.255C248.453 124.184 248.422 124.09 248.422 123.973C248.422 123.839 248.471 123.736 248.57 123.665C248.668 123.593 248.802 123.557 248.972 123.557H254.182C254.352 123.557 254.486 123.593 254.585 123.665C254.683 123.736 254.732 123.839 254.732 123.973C254.732 124.081 254.697 124.17 254.625 124.242C254.553 124.314 254.432 124.367 254.262 124.403L253.685 124.497C253.336 124.551 253.13 124.667 253.067 124.846C253.005 125.025 253.054 125.379 253.215 125.907L256.048 134.567L255.444 135.091L258.76 125.276L259.673 125.961L256.303 135.628C256.223 135.86 256.102 136.022 255.941 136.111C255.78 136.201 255.605 136.245 255.417 136.245ZM263.621 136.245H262.681C262.493 136.245 262.314 136.192 262.144 136.084C261.983 135.977 261.862 135.802 261.781 135.561L258.331 125.276C258.232 124.998 258.134 124.81 258.035 124.712C257.946 124.613 257.816 124.551 257.646 124.524L257.136 124.417C256.975 124.372 256.863 124.318 256.8 124.255C256.737 124.184 256.706 124.09 256.706 123.973C256.706 123.696 256.894 123.557 257.27 123.557H262.224C262.591 123.557 262.775 123.696 262.775 123.973C262.775 124.09 262.739 124.184 262.667 124.255C262.605 124.327 262.493 124.376 262.332 124.403L261.674 124.497C261.432 124.533 261.285 124.645 261.231 124.833C261.186 125.021 261.231 125.338 261.365 125.786L264.225 134.607L263.621 135.158L266.548 126.095C266.727 125.531 266.785 125.142 266.722 124.927C266.66 124.703 266.431 124.56 266.038 124.497L265.474 124.403C265.304 124.367 265.178 124.318 265.098 124.255C265.026 124.184 264.99 124.09 264.99 123.973C264.99 123.839 265.039 123.736 265.138 123.665C265.236 123.593 265.375 123.557 265.554 123.557H269.085C269.255 123.557 269.39 123.593 269.488 123.665C269.587 123.736 269.636 123.839 269.636 123.973C269.636 124.081 269.605 124.17 269.542 124.242C269.479 124.314 269.358 124.367 269.179 124.403L268.696 124.497C268.526 124.533 268.374 124.649 268.239 124.846C268.105 125.034 267.962 125.365 267.81 125.84L264.507 135.614C264.426 135.856 264.301 136.022 264.131 136.111C263.97 136.201 263.8 136.245 263.621 136.245ZM282.113 128.31C282.113 128.695 282.001 128.991 281.778 129.196C281.554 129.393 281.223 129.492 280.784 129.492H272.218V128.686H278.636C279.057 128.686 279.267 128.498 279.267 128.122C279.267 126.905 279.007 125.961 278.488 125.289C277.978 124.609 277.293 124.269 276.434 124.269C275.754 124.269 275.158 124.466 274.648 124.86C274.138 125.245 273.74 125.795 273.453 126.511C273.167 127.218 273.024 128.06 273.024 129.035C273.024 130.817 273.444 132.173 274.286 133.104C275.136 134.025 276.246 134.486 277.615 134.486C278.502 134.486 279.271 134.281 279.925 133.869C280.578 133.457 281.035 132.916 281.294 132.244C281.402 132.101 281.491 132.003 281.563 131.949C281.634 131.895 281.711 131.868 281.791 131.868C281.907 131.868 281.992 131.918 282.046 132.016C282.1 132.114 282.122 132.231 282.113 132.365C282.06 133.108 281.796 133.788 281.321 134.406C280.847 135.015 280.211 135.502 279.415 135.869C278.627 136.227 277.727 136.406 276.716 136.406C275.481 136.406 274.389 136.147 273.44 135.628C272.491 135.1 271.752 134.361 271.224 133.412C270.696 132.464 270.432 131.349 270.432 130.069C270.432 128.762 270.687 127.599 271.198 126.578C271.717 125.558 272.451 124.752 273.399 124.161C274.357 123.571 275.49 123.275 276.796 123.275C277.888 123.275 278.833 123.49 279.629 123.92C280.426 124.349 281.039 124.94 281.469 125.692C281.898 126.444 282.113 127.317 282.113 128.31ZM288.281 129.143C288.281 127.872 288.469 126.802 288.845 125.934C289.221 125.057 289.704 124.394 290.295 123.947C290.894 123.499 291.525 123.275 292.188 123.275C292.985 123.275 293.602 123.499 294.041 123.947C294.488 124.385 294.712 124.994 294.712 125.773C294.712 126.381 294.578 126.842 294.309 127.156C294.05 127.469 293.714 127.625 293.302 127.625C292.891 127.625 292.568 127.509 292.336 127.276C292.112 127.044 292 126.717 292 126.296V125.853C292 125.549 291.928 125.325 291.785 125.182C291.642 125.03 291.409 124.954 291.087 124.954C290.702 124.954 290.326 125.11 289.959 125.424C289.601 125.728 289.306 126.189 289.073 126.806C288.84 127.424 288.724 128.203 288.724 129.143H288.281ZM288.59 124.041L288.724 127.29V134.325C288.724 134.54 288.773 134.706 288.872 134.822C288.979 134.938 289.149 135.015 289.382 135.05L290.604 135.212C290.783 135.238 290.912 135.292 290.993 135.373C291.082 135.444 291.127 135.547 291.127 135.681C291.127 135.807 291.078 135.91 290.979 135.99C290.881 136.062 290.733 136.098 290.536 136.098H284.884C284.696 136.098 284.553 136.062 284.454 135.99C284.365 135.91 284.32 135.807 284.32 135.681C284.32 135.574 284.356 135.485 284.427 135.413C284.499 135.341 284.606 135.283 284.75 135.238L285.407 135.104C285.578 135.059 285.707 134.979 285.797 134.862C285.886 134.746 285.931 134.572 285.931 134.339V125.893C285.931 125.705 285.9 125.571 285.837 125.491C285.774 125.401 285.667 125.347 285.515 125.33L284.588 125.289C284.445 125.271 284.342 125.231 284.28 125.168C284.226 125.106 284.199 125.03 284.199 124.94C284.199 124.824 284.235 124.73 284.306 124.658C284.378 124.587 284.503 124.519 284.682 124.457L286.952 123.678C287.283 123.562 287.529 123.486 287.69 123.45C287.851 123.405 287.981 123.383 288.079 123.383C288.24 123.383 288.361 123.436 288.442 123.544C288.522 123.642 288.572 123.808 288.59 124.041ZM157.495 169.514C156.698 169.514 156.013 169.411 155.44 169.205C154.877 169.008 154.42 168.811 154.071 168.614C153.731 168.417 153.489 168.319 153.346 168.319C153.194 168.319 153.073 168.382 152.983 168.507C152.903 168.623 152.822 168.762 152.742 168.923C152.67 169.084 152.585 169.223 152.487 169.339C152.397 169.465 152.276 169.527 152.124 169.527C151.99 169.527 151.878 169.483 151.788 169.393C151.699 169.304 151.632 169.16 151.587 168.963L150.593 164.64C150.558 164.479 150.571 164.345 150.634 164.237C150.696 164.121 150.804 164.036 150.956 163.982C151.117 163.928 151.256 163.933 151.372 163.996C151.497 164.058 151.605 164.179 151.694 164.358C152.187 165.361 152.733 166.162 153.332 166.761C153.932 167.361 154.572 167.795 155.252 168.064C155.933 168.332 156.622 168.467 157.32 168.467C158.323 168.467 159.106 168.194 159.67 167.648C160.243 167.102 160.534 166.385 160.543 165.499C160.543 164.944 160.417 164.43 160.167 163.955C159.916 163.481 159.442 163.024 158.743 162.586C158.054 162.147 157.047 161.7 155.722 161.243C154.38 160.787 153.301 160.272 152.487 159.699C151.681 159.117 151.095 158.459 150.728 157.725C150.37 156.982 150.191 156.137 150.191 155.188C150.191 154.14 150.437 153.223 150.929 152.435C151.421 151.648 152.111 151.039 152.997 150.609C153.883 150.171 154.903 149.951 156.058 149.951C156.899 149.951 157.589 150.045 158.126 150.233C158.663 150.421 159.092 150.609 159.415 150.797C159.737 150.985 159.997 151.079 160.193 151.079C160.381 151.079 160.516 150.985 160.596 150.797C160.677 150.609 160.757 150.421 160.838 150.233C160.927 150.036 161.08 149.938 161.294 149.938C161.447 149.938 161.567 149.983 161.657 150.072C161.746 150.162 161.831 150.332 161.912 150.582L163.214 155.027C163.268 155.206 163.264 155.367 163.201 155.51C163.138 155.653 163.031 155.747 162.879 155.792C162.718 155.846 162.574 155.841 162.449 155.778C162.324 155.716 162.221 155.604 162.14 155.443C161.594 154.333 161.008 153.456 160.381 152.811C159.755 152.158 159.101 151.692 158.421 151.415C157.741 151.128 157.038 150.985 156.313 150.985C155.284 150.985 154.46 151.281 153.843 151.871C153.234 152.462 152.93 153.245 152.93 154.221C152.93 154.794 153.055 155.331 153.306 155.832C153.565 156.325 154.031 156.799 154.702 157.255C155.382 157.712 156.349 158.173 157.602 158.638C158.998 159.158 160.104 159.704 160.918 160.276C161.733 160.84 162.315 161.471 162.664 162.17C163.013 162.859 163.183 163.642 163.174 164.519C163.174 165.432 162.95 166.269 162.503 167.03C162.064 167.782 161.42 168.386 160.569 168.843C159.728 169.29 158.703 169.514 157.495 169.514ZM172.342 156.289C173.649 156.289 174.799 156.566 175.793 157.121C176.786 157.676 177.561 158.45 178.116 159.444C178.68 160.429 178.961 161.57 178.961 162.868C178.961 164.121 178.675 165.24 178.102 166.224C177.538 167.209 176.751 167.988 175.739 168.561C174.737 169.125 173.573 169.406 172.248 169.406C170.95 169.406 169.805 169.129 168.811 168.574C167.817 168.01 167.039 167.236 166.475 166.251C165.911 165.258 165.629 164.121 165.629 162.841C165.629 161.57 165.915 160.442 166.488 159.457C167.061 158.473 167.849 157.698 168.851 157.135C169.854 156.571 171.017 156.289 172.342 156.289ZM173.269 168.319C174.003 168.22 174.602 167.921 175.068 167.419C175.542 166.909 175.855 166.224 176.008 165.365C176.169 164.506 176.155 163.494 175.967 162.331C175.779 161.158 175.466 160.187 175.027 159.417C174.589 158.638 174.052 158.074 173.416 157.725C172.79 157.376 172.096 157.255 171.335 157.363C170.592 157.47 169.988 157.779 169.523 158.289C169.057 158.791 168.744 159.471 168.583 160.33C168.431 161.18 168.448 162.192 168.636 163.365C168.824 164.528 169.138 165.499 169.576 166.278C170.024 167.057 170.561 167.621 171.187 167.97C171.814 168.31 172.508 168.426 173.269 168.319ZM186.069 167.325C186.069 167.54 186.118 167.715 186.216 167.849C186.324 167.983 186.48 168.059 186.686 168.077L188.069 168.225C188.239 168.243 188.365 168.292 188.445 168.373C188.535 168.453 188.58 168.556 188.58 168.681C188.58 168.959 188.392 169.098 188.016 169.098H181.974C181.804 169.098 181.669 169.062 181.571 168.99C181.481 168.919 181.437 168.82 181.437 168.695C181.437 168.57 181.477 168.471 181.557 168.399C181.638 168.328 181.759 168.27 181.92 168.225L182.618 168.091C182.842 168.037 183.007 167.952 183.115 167.836C183.222 167.719 183.276 167.558 183.276 167.352V158.638C183.276 158.468 183.231 158.325 183.142 158.209C183.061 158.092 182.905 157.998 182.672 157.927L181.853 157.725C181.593 157.636 181.419 157.551 181.329 157.47C181.24 157.381 181.195 157.282 181.195 157.175C181.195 157.058 181.235 156.969 181.316 156.906C181.405 156.835 181.54 156.799 181.719 156.799H183.894L183.289 157.255V156.812C183.289 156.517 183.222 156.239 183.088 155.98C182.954 155.711 182.797 155.438 182.618 155.161C182.439 154.874 182.282 154.561 182.148 154.221C182.023 153.872 181.96 153.474 181.96 153.026C181.96 151.997 182.314 151.164 183.021 150.529C183.728 149.893 184.695 149.575 185.921 149.575C186.709 149.575 187.376 149.705 187.922 149.965C188.477 150.224 188.893 150.569 189.17 150.999C189.457 151.419 189.6 151.885 189.6 152.395C189.6 152.869 189.479 153.236 189.237 153.496C189.005 153.747 188.696 153.872 188.311 153.872C187.899 153.872 187.568 153.742 187.317 153.483C187.076 153.214 186.955 152.856 186.955 152.408V151.737C186.955 151.29 186.834 150.949 186.592 150.717C186.36 150.475 186.02 150.354 185.572 150.354C185.026 150.354 184.605 150.524 184.31 150.864C184.023 151.205 183.88 151.688 183.88 152.314C183.88 152.708 183.947 153.066 184.082 153.389C184.216 153.711 184.381 154.011 184.578 154.288C184.784 154.557 184.986 154.821 185.183 155.08C185.388 155.34 185.559 155.604 185.693 155.872C185.827 156.141 185.894 156.432 185.894 156.745V157.282L185.545 156.799H188.647C188.817 156.799 188.947 156.83 189.036 156.893C189.134 156.956 189.184 157.054 189.184 157.188C189.184 157.358 189.094 157.502 188.915 157.618C188.736 157.734 188.454 157.792 188.069 157.792H186.069V167.325ZM191.544 157.605L190.792 157.417C190.577 157.363 190.43 157.3 190.349 157.229C190.277 157.148 190.242 157.058 190.242 156.96C190.242 156.826 190.286 156.727 190.376 156.665C190.465 156.593 190.586 156.557 190.738 156.557H191.625C191.857 156.557 192.041 156.521 192.175 156.45C192.309 156.378 192.43 156.244 192.538 156.047L193.679 154.06C193.804 153.863 193.93 153.72 194.055 153.63C194.18 153.541 194.31 153.496 194.444 153.496C194.596 153.496 194.713 153.545 194.793 153.644C194.874 153.733 194.914 153.858 194.914 154.02V165.822C194.914 166.448 195.039 166.923 195.29 167.245C195.55 167.567 195.908 167.728 196.364 167.728C196.677 167.728 196.924 167.679 197.103 167.58C197.291 167.473 197.434 167.348 197.532 167.205C197.64 167.061 197.738 166.932 197.828 166.815C197.926 166.699 198.043 166.632 198.177 166.614C198.284 166.605 198.365 166.636 198.418 166.708C198.481 166.77 198.512 166.882 198.512 167.043C198.503 167.437 198.36 167.809 198.083 168.158C197.814 168.498 197.438 168.78 196.955 169.004C196.481 169.218 195.935 169.326 195.317 169.326C194.341 169.326 193.563 169.075 192.981 168.574C192.408 168.064 192.121 167.294 192.121 166.265V158.343C192.121 158.137 192.077 157.98 191.987 157.873C191.907 157.757 191.759 157.667 191.544 157.605ZM193.679 157.551L193.692 156.557H197.881C198.051 156.557 198.181 156.589 198.271 156.651C198.36 156.714 198.405 156.808 198.405 156.933C198.405 157.112 198.316 157.26 198.137 157.376C197.957 157.493 197.68 157.551 197.304 157.551H193.679ZM206.392 169.245H205.425C205.219 169.245 205.04 169.196 204.888 169.098C204.736 168.99 204.615 168.807 204.525 168.547L201.048 158.37C200.941 158.048 200.833 157.833 200.726 157.725C200.618 157.618 200.484 157.546 200.323 157.511L199.813 157.417C199.661 157.372 199.553 157.318 199.49 157.255C199.428 157.184 199.397 157.09 199.397 156.973C199.397 156.839 199.446 156.736 199.544 156.665C199.643 156.593 199.777 156.557 199.947 156.557H205.157C205.327 156.557 205.461 156.593 205.559 156.665C205.658 156.736 205.707 156.839 205.707 156.973C205.707 157.081 205.671 157.17 205.6 157.242C205.528 157.314 205.407 157.367 205.237 157.403L204.66 157.497C204.311 157.551 204.105 157.667 204.042 157.846C203.979 158.025 204.029 158.379 204.19 158.907L207.023 167.567L206.419 168.091L209.735 158.276L210.648 158.961L207.278 168.628C207.197 168.86 207.077 169.022 206.915 169.111C206.754 169.201 206.58 169.245 206.392 169.245ZM214.595 169.245H213.656C213.468 169.245 213.289 169.192 213.118 169.084C212.957 168.977 212.837 168.802 212.756 168.561L209.305 158.276C209.207 157.998 209.108 157.81 209.01 157.712C208.92 157.613 208.791 157.551 208.621 157.524L208.11 157.417C207.949 157.372 207.837 157.318 207.775 157.255C207.712 157.184 207.681 157.09 207.681 156.973C207.681 156.696 207.869 156.557 208.245 156.557H213.199C213.566 156.557 213.75 156.696 213.75 156.973C213.75 157.09 213.714 157.184 213.642 157.255C213.579 157.327 213.468 157.376 213.306 157.403L212.649 157.497C212.407 157.533 212.259 157.645 212.205 157.833C212.161 158.021 212.205 158.338 212.34 158.786L215.2 167.607L214.595 168.158L217.522 159.095C217.701 158.531 217.76 158.142 217.697 157.927C217.634 157.703 217.406 157.56 217.012 157.497L216.448 157.403C216.278 157.367 216.153 157.318 216.072 157.255C216.001 157.184 215.965 157.09 215.965 156.973C215.965 156.839 216.014 156.736 216.113 156.665C216.211 156.593 216.35 156.557 216.529 156.557H220.06C220.23 156.557 220.364 156.593 220.463 156.665C220.561 156.736 220.61 156.839 220.61 156.973C220.61 157.081 220.579 157.17 220.517 157.242C220.454 157.314 220.333 157.367 220.154 157.403L219.671 157.497C219.501 157.533 219.348 157.649 219.214 157.846C219.08 158.034 218.937 158.365 218.784 158.84L215.482 168.614C215.401 168.856 215.276 169.022 215.106 169.111C214.944 169.201 214.774 169.245 214.595 169.245ZM229.584 167.473V167.218L229.409 167.151V159.457C229.409 158.679 229.217 158.083 228.832 157.672C228.456 157.26 227.914 157.054 227.207 157.054C226.527 157.054 226.017 157.197 225.677 157.484C225.336 157.761 225.166 158.097 225.166 158.491V159.525C225.166 159.954 225.023 160.285 224.737 160.518C224.459 160.751 224.079 160.867 223.595 160.867C223.166 160.867 222.835 160.76 222.602 160.545C222.378 160.321 222.266 160.017 222.266 159.632C222.266 159.086 222.477 158.558 222.897 158.048C223.327 157.537 223.944 157.117 224.75 156.785C225.565 156.454 226.554 156.289 227.717 156.289C229.221 156.289 230.34 156.615 231.074 157.269C231.817 157.913 232.188 158.786 232.188 159.887V167.137C232.188 167.433 232.242 167.648 232.35 167.782C232.466 167.916 232.623 167.983 232.819 167.983C233.034 167.983 233.191 167.934 233.289 167.836C233.388 167.737 233.468 167.634 233.531 167.527C233.576 167.473 233.621 167.428 233.665 167.392C233.71 167.348 233.768 167.325 233.84 167.325C233.92 167.325 233.983 167.357 234.028 167.419C234.073 167.482 234.095 167.567 234.095 167.674C234.095 167.925 234.01 168.185 233.84 168.453C233.67 168.713 233.415 168.937 233.075 169.125C232.734 169.312 232.314 169.406 231.812 169.406C231.114 169.406 230.568 169.241 230.174 168.91C229.781 168.578 229.584 168.1 229.584 167.473ZM221.662 166.318C221.662 165.271 222.127 164.412 223.058 163.74C223.998 163.069 225.305 162.733 226.979 162.733C227.588 162.733 228.143 162.792 228.644 162.908C229.145 163.015 229.588 163.159 229.973 163.338L229.772 164.022C229.405 163.861 229.024 163.732 228.63 163.633C228.245 163.535 227.82 163.485 227.355 163.485C226.478 163.485 225.788 163.7 225.287 164.13C224.795 164.551 224.549 165.132 224.549 165.875C224.549 166.591 224.755 167.146 225.166 167.54C225.578 167.925 226.102 168.118 226.737 168.118C227.319 168.118 227.883 167.988 228.429 167.728C228.975 167.46 229.445 167.079 229.839 166.587L230.094 167.164C229.575 167.88 228.903 168.435 228.08 168.829C227.265 169.214 226.397 169.406 225.475 169.406C224.347 169.406 223.43 169.129 222.723 168.574C222.016 168.01 221.662 167.258 221.662 166.318ZM239.806 162.143C239.806 160.872 239.994 159.802 240.37 158.934C240.746 158.057 241.229 157.394 241.82 156.947C242.42 156.499 243.051 156.275 243.713 156.275C244.51 156.275 245.127 156.499 245.566 156.947C246.014 157.385 246.237 157.994 246.237 158.773C246.237 159.381 246.103 159.842 245.835 160.156C245.575 160.469 245.239 160.625 244.828 160.625C244.416 160.625 244.094 160.509 243.861 160.276C243.637 160.044 243.525 159.717 243.525 159.296V158.853C243.525 158.549 243.454 158.325 243.31 158.182C243.167 158.03 242.934 157.954 242.612 157.954C242.227 157.954 241.851 158.11 241.484 158.424C241.126 158.728 240.831 159.189 240.598 159.806C240.366 160.424 240.249 161.203 240.249 162.143H239.806ZM240.115 157.041L240.249 160.29V167.325C240.249 167.54 240.298 167.706 240.397 167.822C240.504 167.938 240.674 168.015 240.907 168.05L242.129 168.212C242.308 168.238 242.438 168.292 242.518 168.373C242.608 168.444 242.653 168.547 242.653 168.681C242.653 168.807 242.603 168.91 242.505 168.99C242.406 169.062 242.259 169.098 242.062 169.098H236.409C236.221 169.098 236.078 169.062 235.98 168.99C235.89 168.91 235.845 168.807 235.845 168.681C235.845 168.574 235.881 168.485 235.953 168.413C236.024 168.341 236.132 168.283 236.275 168.238L236.933 168.104C237.103 168.059 237.233 167.979 237.322 167.862C237.412 167.746 237.456 167.572 237.456 167.339V158.893C237.456 158.705 237.425 158.571 237.362 158.491C237.3 158.401 237.192 158.347 237.04 158.33L236.114 158.289C235.971 158.271 235.868 158.231 235.805 158.168C235.751 158.106 235.724 158.03 235.724 157.94C235.724 157.824 235.76 157.73 235.832 157.658C235.903 157.587 236.029 157.519 236.208 157.457L238.477 156.678C238.808 156.562 239.054 156.486 239.215 156.45C239.376 156.405 239.506 156.383 239.605 156.383C239.766 156.383 239.887 156.436 239.967 156.544C240.048 156.642 240.097 156.808 240.115 157.041ZM259.39 161.31C259.39 161.695 259.279 161.991 259.055 162.196C258.831 162.393 258.5 162.492 258.061 162.492H249.495V161.686H255.913C256.334 161.686 256.544 161.498 256.544 161.122C256.544 159.905 256.284 158.961 255.765 158.289C255.255 157.609 254.57 157.269 253.711 157.269C253.031 157.269 252.435 157.466 251.925 157.86C251.415 158.245 251.017 158.795 250.73 159.511C250.444 160.218 250.301 161.06 250.301 162.035C250.301 163.817 250.721 165.173 251.563 166.104C252.413 167.025 253.523 167.486 254.893 167.486C255.779 167.486 256.548 167.281 257.202 166.869C257.855 166.457 258.312 165.916 258.571 165.244C258.679 165.101 258.768 165.003 258.84 164.949C258.912 164.895 258.988 164.868 259.068 164.868C259.185 164.868 259.27 164.918 259.323 165.016C259.377 165.114 259.399 165.231 259.39 165.365C259.337 166.108 259.073 166.788 258.598 167.406C258.124 168.015 257.488 168.502 256.692 168.869C255.904 169.227 255.004 169.406 253.993 169.406C252.758 169.406 251.666 169.147 250.717 168.628C249.768 168.1 249.03 167.361 248.501 166.412C247.973 165.464 247.709 164.349 247.709 163.069C247.709 161.762 247.964 160.599 248.475 159.578C248.994 158.558 249.728 157.752 250.677 157.161C251.634 156.571 252.767 156.275 254.073 156.275C255.166 156.275 256.11 156.49 256.906 156.92C257.703 157.349 258.316 157.94 258.746 158.692C259.176 159.444 259.39 160.317 259.39 161.31Z" fill="white"/>
<g filter="url(#filter1_d_670_54545)">
<rect x="346.404" y="56.3914" width="335.664" height="228.252" rx="16.1119" fill="#080751"/>
</g>
<rect x="365.201" y="75.1887" width="12.0839" height="12.0839" rx="6.04196" fill="#FF5F56"/>
<rect x="384" y="75.1887" width="12.0839" height="12.0839" rx="6.04196" fill="#F5A623"/>
<rect x="402.797" y="75.1887" width="12.0839" height="12.0839" rx="6.04196" fill="#22C55E"/>
<path d="M464.148 164.294C464.452 164.294 464.699 164.249 464.887 164.159C465.074 164.07 465.24 163.98 465.383 163.891C465.535 163.801 465.692 163.757 465.853 163.757C466.05 163.757 466.202 163.81 466.31 163.918C466.417 164.016 466.507 164.195 466.578 164.455L467.626 168.335C467.67 168.505 467.652 168.648 467.572 168.765C467.5 168.872 467.384 168.939 467.223 168.966C467.08 168.993 466.945 168.979 466.82 168.926C466.695 168.863 466.592 168.742 466.511 168.563C466.099 167.65 465.719 166.961 465.37 166.496C465.021 166.03 464.649 165.717 464.255 165.556C463.871 165.395 463.405 165.314 462.859 165.314H459.153V181.278C459.153 181.457 459.207 181.609 459.314 181.735C459.431 181.86 459.596 181.936 459.811 181.963L461.208 182.124C461.396 182.151 461.525 182.209 461.597 182.299C461.678 182.379 461.718 182.491 461.718 182.634C461.718 182.769 461.669 182.88 461.57 182.97C461.481 183.051 461.328 183.091 461.114 183.091H454.615C454.409 183.091 454.257 183.051 454.159 182.97C454.06 182.88 454.011 182.769 454.011 182.634C454.011 182.384 454.168 182.214 454.481 182.124L455.394 181.963C455.609 181.918 455.77 181.838 455.877 181.721C455.994 181.605 456.052 181.457 456.052 181.278V166.106C456.052 165.927 455.994 165.779 455.877 165.663C455.77 165.547 455.609 165.466 455.394 165.421L454.481 165.26C454.168 165.171 454.011 165.001 454.011 164.75C454.011 164.607 454.06 164.495 454.159 164.414C454.257 164.334 454.409 164.294 454.615 164.294H464.148ZM457.824 173.612H462.456C463.02 173.612 463.419 173.5 463.651 173.276C463.884 173.052 464.045 172.618 464.135 171.974C464.161 171.812 464.215 171.696 464.296 171.625C464.376 171.544 464.479 171.495 464.605 171.477C464.891 171.45 465.074 171.598 465.155 171.92L466.135 175.814C466.18 175.993 466.175 176.131 466.122 176.23C466.077 176.328 465.987 176.4 465.853 176.445C465.71 176.48 465.58 176.476 465.464 176.431C465.347 176.378 465.24 176.279 465.142 176.136C464.918 175.724 464.707 175.411 464.511 175.196C464.323 174.972 464.108 174.82 463.866 174.739C463.624 174.659 463.316 174.619 462.94 174.619H457.824V173.612ZM475.387 170.282C476.694 170.282 477.844 170.559 478.837 171.114C479.831 171.669 480.605 172.444 481.16 173.437C481.724 174.422 482.006 175.563 482.006 176.861C482.006 178.114 481.72 179.233 481.147 180.218C480.583 181.202 479.795 181.981 478.784 182.554C477.781 183.118 476.617 183.4 475.293 183.4C473.995 183.4 472.849 183.122 471.856 182.567C470.862 182.003 470.083 181.229 469.519 180.244C468.955 179.251 468.673 178.114 468.673 176.834C468.673 175.563 468.96 174.435 469.533 173.451C470.106 172.466 470.893 171.692 471.896 171.128C472.898 170.564 474.062 170.282 475.387 170.282ZM476.313 182.312C477.047 182.214 477.647 181.914 478.112 181.412C478.587 180.902 478.9 180.218 479.052 179.358C479.213 178.499 479.2 177.487 479.012 176.324C478.824 175.151 478.511 174.18 478.072 173.41C477.633 172.632 477.096 172.068 476.461 171.719C475.834 171.369 475.141 171.249 474.38 171.356C473.637 171.463 473.033 171.772 472.567 172.282C472.102 172.784 471.788 173.464 471.627 174.323C471.475 175.174 471.493 176.185 471.681 177.358C471.869 178.521 472.182 179.492 472.621 180.271C473.068 181.05 473.605 181.614 474.232 181.963C474.859 182.303 475.552 182.419 476.313 182.312ZM488.2 176.136C488.2 174.865 488.388 173.795 488.764 172.927C489.14 172.05 489.623 171.387 490.214 170.94C490.814 170.492 491.445 170.268 492.107 170.268C492.904 170.268 493.522 170.492 493.96 170.94C494.408 171.378 494.632 171.987 494.632 172.766C494.632 173.374 494.497 173.835 494.229 174.149C493.969 174.462 493.634 174.619 493.222 174.619C492.81 174.619 492.488 174.502 492.255 174.27C492.031 174.037 491.919 173.71 491.919 173.289V172.846C491.919 172.542 491.848 172.318 491.705 172.175C491.561 172.023 491.329 171.947 491.006 171.947C490.622 171.947 490.246 172.103 489.879 172.417C489.521 172.721 489.225 173.182 488.992 173.8C488.76 174.417 488.643 175.196 488.643 176.136H488.2ZM488.509 171.034L488.643 174.283V181.319C488.643 181.533 488.693 181.699 488.791 181.815C488.898 181.932 489.069 182.008 489.301 182.044L490.523 182.205C490.702 182.232 490.832 182.285 490.912 182.366C491.002 182.437 491.047 182.54 491.047 182.675C491.047 182.8 490.997 182.903 490.899 182.983C490.801 183.055 490.653 183.091 490.456 183.091H484.803C484.615 183.091 484.472 183.055 484.374 182.983C484.284 182.903 484.239 182.8 484.239 182.675C484.239 182.567 484.275 182.478 484.347 182.406C484.418 182.334 484.526 182.276 484.669 182.232L485.327 182.097C485.497 182.052 485.627 181.972 485.716 181.856C485.806 181.739 485.851 181.565 485.851 181.332V172.887C485.851 172.699 485.819 172.564 485.757 172.484C485.694 172.394 485.587 172.341 485.434 172.323L484.508 172.282C484.365 172.265 484.262 172.224 484.199 172.162C484.145 172.099 484.119 172.023 484.119 171.933C484.119 171.817 484.154 171.723 484.226 171.651C484.298 171.58 484.423 171.513 484.602 171.45L486.871 170.671C487.202 170.555 487.448 170.479 487.61 170.443C487.771 170.398 487.9 170.376 487.999 170.376C488.16 170.376 488.281 170.43 488.361 170.537C488.442 170.635 488.491 170.801 488.509 171.034ZM500.601 171.034V181.332C500.601 181.556 500.646 181.73 500.736 181.856C500.825 181.972 500.955 182.052 501.125 182.097L501.743 182.232C502.002 182.321 502.132 182.464 502.132 182.661C502.132 182.948 501.94 183.091 501.555 183.091H496.761C496.564 183.091 496.421 183.055 496.332 182.983C496.242 182.903 496.197 182.8 496.197 182.675C496.197 182.567 496.233 182.478 496.305 182.406C496.376 182.334 496.484 182.276 496.627 182.232L497.285 182.097C497.455 182.044 497.585 181.963 497.674 181.856C497.764 181.739 497.809 181.565 497.809 181.332V172.873C497.809 172.685 497.777 172.551 497.715 172.47C497.652 172.381 497.545 172.327 497.392 172.309L496.466 172.269C496.323 172.251 496.22 172.211 496.157 172.148C496.095 172.086 496.063 172.009 496.063 171.92C496.063 171.804 496.099 171.71 496.171 171.638C496.242 171.566 496.372 171.499 496.56 171.437L498.869 170.644C499.129 170.546 499.339 170.479 499.5 170.443C499.67 170.398 499.823 170.376 499.957 170.376C500.172 170.376 500.333 170.434 500.44 170.55C500.548 170.667 500.601 170.828 500.601 171.034ZM500.239 173.853L499.742 173.357L500.319 172.846C501.376 171.898 502.298 171.231 503.085 170.846C503.873 170.461 504.629 170.268 505.354 170.268C506.464 170.268 507.355 170.622 508.026 171.329C508.707 172.027 509.047 172.985 509.047 174.202V181.278C509.047 181.529 509.096 181.717 509.194 181.842C509.302 181.967 509.445 182.057 509.624 182.111L510.188 182.245C510.439 182.326 510.564 182.464 510.564 182.661C510.564 182.948 510.376 183.091 510 183.091H505.26C504.876 183.091 504.683 182.948 504.683 182.661C504.683 182.464 504.813 182.321 505.072 182.232L505.717 182.097C505.905 182.044 506.039 181.954 506.12 181.829C506.209 181.703 506.254 181.515 506.254 181.265V174.619C506.254 173.724 506.035 173.057 505.596 172.618C505.166 172.171 504.589 171.947 503.864 171.947C503.408 171.947 502.929 172.059 502.427 172.282C501.926 172.506 501.385 172.864 500.803 173.357L500.239 173.853ZM508.671 173.853L508.174 173.357L508.751 172.846C509.772 171.924 510.653 171.266 511.396 170.873C512.139 170.47 512.86 170.268 513.558 170.268C514.623 170.268 515.447 170.622 516.029 171.329C516.619 172.036 516.982 172.994 517.116 174.202L517.949 181.278C517.975 181.529 518.029 181.717 518.11 181.842C518.199 181.967 518.338 182.057 518.526 182.111L519.09 182.232C519.233 182.276 519.34 182.334 519.412 182.406C519.484 182.478 519.519 182.567 519.519 182.675C519.519 182.8 519.475 182.903 519.385 182.983C519.296 183.055 519.152 183.091 518.956 183.091H514.122C513.737 183.091 513.545 182.948 513.545 182.661C513.545 182.464 513.674 182.321 513.934 182.232L514.578 182.097C514.766 182.052 514.91 181.963 515.008 181.829C515.116 181.694 515.151 181.506 515.116 181.265L514.323 174.619C514.216 173.724 513.983 173.057 513.625 172.618C513.267 172.171 512.752 171.947 512.081 171.947C511.669 171.947 511.231 172.063 510.765 172.296C510.3 172.529 509.79 172.882 509.235 173.357L508.671 173.853ZM529.009 181.466V181.211L528.835 181.144V173.451C528.835 172.672 528.642 172.077 528.257 171.665C527.881 171.253 527.34 171.047 526.633 171.047C525.953 171.047 525.442 171.19 525.102 171.477C524.762 171.754 524.592 172.09 524.592 172.484V173.518C524.592 173.947 524.449 174.279 524.162 174.511C523.885 174.744 523.504 174.86 523.021 174.86C522.591 174.86 522.26 174.753 522.027 174.538C521.804 174.314 521.692 174.01 521.692 173.625C521.692 173.079 521.902 172.551 522.323 172.041C522.753 171.531 523.37 171.11 524.176 170.779C524.99 170.447 525.979 170.282 527.143 170.282C528.647 170.282 529.766 170.609 530.5 171.262C531.243 171.906 531.614 172.779 531.614 173.88V181.131C531.614 181.426 531.668 181.641 531.775 181.775C531.892 181.909 532.048 181.976 532.245 181.976C532.46 181.976 532.617 181.927 532.715 181.829C532.813 181.73 532.894 181.627 532.957 181.52C533.001 181.466 533.046 181.421 533.091 181.386C533.136 181.341 533.194 181.319 533.266 181.319C533.346 181.319 533.409 181.35 533.453 181.412C533.498 181.475 533.521 181.56 533.521 181.668C533.521 181.918 533.436 182.178 533.266 182.446C533.095 182.706 532.84 182.93 532.5 183.118C532.16 183.306 531.739 183.4 531.238 183.4C530.54 183.4 529.994 183.234 529.6 182.903C529.206 182.572 529.009 182.093 529.009 181.466ZM521.088 180.312C521.088 179.264 521.553 178.405 522.484 177.734C523.424 177.062 524.731 176.727 526.405 176.727C527.013 176.727 527.568 176.785 528.069 176.901C528.571 177.009 529.014 177.152 529.399 177.331L529.197 178.016C528.83 177.854 528.45 177.725 528.056 177.626C527.671 177.528 527.246 177.479 526.78 177.479C525.903 177.479 525.214 177.693 524.713 178.123C524.22 178.544 523.974 179.126 523.974 179.868C523.974 180.585 524.18 181.139 524.592 181.533C525.004 181.918 525.527 182.111 526.163 182.111C526.745 182.111 527.309 181.981 527.855 181.721C528.401 181.453 528.871 181.072 529.264 180.58L529.519 181.157C529 181.873 528.329 182.428 527.506 182.822C526.691 183.207 525.823 183.4 524.901 183.4C523.773 183.4 522.855 183.122 522.148 182.567C521.441 182.003 521.088 181.251 521.088 180.312ZM539.688 163.945V181.332C539.688 181.556 539.733 181.73 539.823 181.856C539.912 181.972 540.042 182.052 540.212 182.097L540.829 182.232C540.982 182.267 541.094 182.326 541.165 182.406C541.246 182.478 541.286 182.567 541.286 182.675C541.286 182.8 541.237 182.903 541.138 182.983C541.049 183.055 540.906 183.091 540.709 183.091H535.848C535.651 183.091 535.508 183.055 535.419 182.983C535.329 182.903 535.284 182.8 535.284 182.675C535.284 182.567 535.32 182.478 535.392 182.406C535.463 182.334 535.571 182.276 535.714 182.232L536.372 182.097C536.542 182.044 536.672 181.963 536.761 181.856C536.851 181.739 536.896 181.565 536.896 181.332V165.784C536.896 165.596 536.86 165.462 536.788 165.381C536.725 165.292 536.623 165.238 536.479 165.22L535.553 165.193C535.41 165.166 535.307 165.126 535.244 165.072C535.181 165.01 535.15 164.929 535.15 164.831C535.15 164.723 535.186 164.634 535.257 164.562C535.329 164.491 535.459 164.419 535.647 164.347L537.956 163.555C538.225 163.457 538.44 163.39 538.601 163.354C538.771 163.309 538.914 163.287 539.03 163.287C539.254 163.287 539.42 163.345 539.527 163.461C539.635 163.578 539.688 163.739 539.688 163.945ZM547.686 171.034V181.332C547.686 181.556 547.727 181.73 547.807 181.856C547.897 181.972 548.027 182.052 548.197 182.097L548.828 182.232C548.98 182.267 549.092 182.326 549.163 182.406C549.235 182.478 549.271 182.567 549.271 182.675C549.271 182.8 549.222 182.903 549.123 182.983C549.034 183.055 548.89 183.091 548.693 183.091H543.833C543.645 183.091 543.502 183.055 543.403 182.983C543.314 182.903 543.269 182.8 543.269 182.675C543.269 182.567 543.305 182.478 543.377 182.406C543.448 182.334 543.56 182.276 543.712 182.232L544.37 182.097C544.54 182.044 544.666 181.963 544.746 181.856C544.836 181.739 544.88 181.565 544.88 181.332V172.873C544.88 172.685 544.849 172.551 544.786 172.47C544.724 172.381 544.621 172.327 544.478 172.309L543.551 172.269C543.408 172.251 543.305 172.211 543.242 172.148C543.18 172.086 543.148 172.009 543.148 171.92C543.148 171.804 543.184 171.71 543.256 171.638C543.327 171.566 543.457 171.499 543.645 171.437L545.941 170.644C546.219 170.546 546.438 170.479 546.599 170.443C546.769 170.398 546.908 170.376 547.015 170.376C547.239 170.376 547.405 170.434 547.512 170.55C547.628 170.667 547.686 170.828 547.686 171.034ZM546.008 167.905C545.435 167.905 544.97 167.749 544.612 167.435C544.263 167.113 544.088 166.701 544.088 166.2C544.088 165.699 544.263 165.292 544.612 164.978C544.97 164.665 545.435 164.508 546.008 164.508C546.581 164.508 547.042 164.67 547.391 164.992C547.749 165.305 547.928 165.708 547.928 166.2C547.928 166.701 547.749 167.113 547.391 167.435C547.042 167.749 546.581 167.905 546.008 167.905ZM561.393 171.812L553.726 182.688L553.243 182.205H557.781C558.202 182.205 558.546 182.16 558.815 182.07C559.093 181.972 559.343 181.797 559.567 181.547C559.8 181.287 560.059 180.911 560.346 180.419L560.963 179.291C561.053 179.13 561.147 179.027 561.245 178.982C561.353 178.929 561.469 178.911 561.594 178.929C561.738 178.946 561.836 179.009 561.89 179.117C561.952 179.215 561.966 179.345 561.93 179.506L561.138 182.876C561.084 183.091 561.013 183.239 560.923 183.319C560.842 183.409 560.739 183.453 560.614 183.453C560.444 183.453 560.27 183.391 560.091 183.265C559.912 183.149 559.643 183.091 559.285 183.091H551.592C551.314 183.091 551.122 183.055 551.014 182.983C550.907 182.903 550.853 182.791 550.853 182.648C550.853 182.54 550.875 182.424 550.92 182.299C550.974 182.173 551.068 182.017 551.202 181.829L558.828 171.02L559.272 171.45H554.921C554.554 171.45 554.241 171.495 553.981 171.584C553.731 171.665 553.503 171.821 553.297 172.054C553.1 172.278 552.894 172.596 552.679 173.007L552.209 173.934C552.12 174.086 552.026 174.193 551.927 174.256C551.829 174.31 551.712 174.323 551.578 174.296C551.444 174.27 551.341 174.202 551.269 174.095C551.207 173.979 551.193 173.835 551.229 173.665L551.847 170.819C551.9 170.586 551.972 170.425 552.061 170.336C552.151 170.246 552.267 170.201 552.411 170.201C552.581 170.201 552.751 170.259 552.921 170.376C553.091 170.492 553.346 170.55 553.686 170.55H561.004C561.281 170.55 561.473 170.586 561.581 170.658C561.697 170.729 561.755 170.841 561.755 170.993C561.755 171.092 561.729 171.208 561.675 171.343C561.621 171.468 561.527 171.625 561.393 171.812ZM575.363 175.303C575.363 175.688 575.251 175.984 575.028 176.19C574.804 176.386 574.473 176.485 574.034 176.485H565.468V175.679H571.886C572.306 175.679 572.517 175.491 572.517 175.115C572.517 173.898 572.257 172.954 571.738 172.282C571.228 171.602 570.543 171.262 569.684 171.262C569.004 171.262 568.408 171.459 567.898 171.853C567.388 172.238 566.99 172.788 566.703 173.504C566.417 174.211 566.273 175.053 566.273 176.028C566.273 177.81 566.694 179.166 567.536 180.097C568.386 181.019 569.496 181.48 570.865 181.48C571.752 181.48 572.521 181.274 573.175 180.862C573.828 180.45 574.285 179.909 574.544 179.237C574.652 179.094 574.741 178.996 574.813 178.942C574.884 178.888 574.96 178.861 575.041 178.861C575.157 178.861 575.242 178.911 575.296 179.009C575.35 179.108 575.372 179.224 575.363 179.358C575.31 180.101 575.046 180.781 574.571 181.399C574.097 182.008 573.461 182.496 572.665 182.863C571.877 183.221 570.977 183.4 569.966 183.4C568.731 183.4 567.639 183.14 566.69 182.621C565.741 182.093 565.002 181.354 564.474 180.406C563.946 179.457 563.682 178.342 563.682 177.062C563.682 175.755 563.937 174.592 564.447 173.571C564.967 172.551 565.701 171.745 566.649 171.155C567.607 170.564 568.74 170.268 570.046 170.268C571.138 170.268 572.083 170.483 572.879 170.913C573.676 171.343 574.289 171.933 574.719 172.685C575.148 173.437 575.363 174.31 575.363 175.303Z" fill="white"/>
<path d="M835.803 126.132C802.236 136.202 731.075 90.6292 708.922 81.2307C686.768 71.8322 690.124 30.2098 647.159 12.7552C604.194 -4.69937 551.159 24.839 522.292 30.881C493.425 36.9229 394.74 44.3076 394.068 36.923" stroke="#94A3B8" stroke-width="2" stroke-dasharray="6.71 8.06"/>
<rect x="837.475" y="82.1533" width="159.119" height="118.839" rx="12.4266" fill="#F0F3F7" stroke="#94A3B8" stroke-width="2" stroke-dasharray="8.06 6.71"/>
<path d="M924.712 141.524C923.316 141.524 922.49 141.396 922.234 141.14C922.117 141.024 921.78 140.803 921.221 140.477C920.686 140.151 919.906 139.732 918.882 139.22C918.65 139.104 918.231 138.883 917.626 138.557C917.021 138.208 916.311 137.836 915.496 137.44C915.38 137.37 915.182 137.266 914.903 137.126C914.647 136.986 914.379 136.847 914.1 136.707C913.821 136.544 913.611 136.428 913.471 136.358L912.843 136.044C912.797 136.02 912.727 135.986 912.634 135.939C912.541 135.892 912.436 135.834 912.319 135.764L911.342 135.276C911.179 135.183 910.993 135.078 910.783 134.962C910.597 134.845 910.399 134.74 910.19 134.647L905.582 132.204C905.396 131.668 905.233 131.18 905.093 130.738C904.954 130.295 904.861 129.9 904.814 129.551C904.767 129.202 904.674 128.771 904.535 128.259C904.395 127.747 904.232 127.154 904.046 126.479C904.325 125.874 904.581 125.35 904.814 124.908C905.047 124.442 905.256 124.082 905.442 123.826C905.582 123.639 905.733 123.43 905.896 123.197C906.059 122.941 906.28 122.592 906.559 122.15C906.676 121.987 906.781 121.812 906.874 121.626C906.99 121.417 907.095 121.219 907.188 121.033C907.374 120.986 907.618 120.916 907.921 120.823C908.223 120.73 908.456 120.672 908.619 120.649C909.015 120.579 909.469 120.463 909.981 120.3C910.493 120.137 910.9 120.009 911.202 119.916C911.528 119.799 911.935 119.683 912.424 119.567L914.973 121.138C915.531 121.487 916.066 121.789 916.578 122.045C917.09 122.301 917.579 122.58 918.045 122.883L919.022 123.511C919.72 123.954 920.255 124.303 920.628 124.559C921.023 124.815 921.268 124.989 921.361 125.082C921.454 125.175 921.64 125.303 921.919 125.466C922.199 125.629 922.571 125.85 923.037 126.13C923.735 126.548 924.433 126.967 925.131 127.386C925.853 127.782 926.562 128.189 927.261 128.608C927.703 128.887 928.063 129.132 928.343 129.341C928.622 129.574 928.959 129.911 929.355 130.354C929.751 130.772 930.088 131.215 930.367 131.68L932.287 134.892C933.288 136.567 934.045 137.847 934.557 138.732C935.092 139.616 935.371 140.116 935.394 140.233C935.464 140.442 935.499 140.605 935.499 140.722C935.499 140.978 935.383 141.152 935.15 141.245C934.941 141.338 934.673 141.385 934.347 141.385C933.951 141.385 933.544 141.396 933.125 141.42C932.706 141.42 932.299 141.42 931.903 141.42L925.69 141.49C925.527 141.49 925.364 141.501 925.201 141.524C925.038 141.524 924.875 141.524 924.712 141.524ZM906.629 130.947C906.676 130.947 906.722 130.947 906.769 130.947C906.815 130.924 906.862 130.912 906.909 130.912L907.607 130.807C907.886 130.807 908.328 130.656 908.933 130.354C909.213 130.214 909.573 130.063 910.015 129.9C910.458 129.714 910.749 129.62 910.888 129.62C910.935 129.574 911.051 129.388 911.237 129.062C911.447 128.713 911.563 128.492 911.586 128.399L911.761 127.945C911.854 127.689 911.959 127.479 912.075 127.316C912.215 127.13 912.331 126.979 912.424 126.863C912.634 126.607 912.808 126.362 912.948 126.13C913.018 126.013 913.099 125.885 913.192 125.746C913.309 125.583 913.448 125.408 913.611 125.222C913.588 125.129 913.53 124.954 913.437 124.698C913.343 124.442 913.204 124.105 913.018 123.686C912.669 122.848 912.447 122.29 912.354 122.01L912.005 120.893L911.063 121.242C910.83 121.335 910.597 121.428 910.365 121.522C910.132 121.591 909.957 121.638 909.841 121.661L908.095 122.15C908.049 122.22 907.933 122.394 907.746 122.674C907.583 122.93 907.479 123.092 907.432 123.162L906.42 124.768C906.257 125.047 906.071 125.362 905.861 125.711C905.652 126.036 905.442 126.362 905.233 126.688L905.722 128.329C905.815 128.631 905.896 128.864 905.966 129.027C906.036 129.167 906.094 129.318 906.141 129.481L906.629 130.947ZM927.714 132.553V130.179L925.341 128.643C925.178 128.527 924.98 128.41 924.747 128.294C924.514 128.154 924.27 128.026 924.014 127.91L923.316 127.561C923.223 127.514 923.13 127.468 923.037 127.421C922.943 127.375 922.874 127.34 922.827 127.316L920.139 125.606C919.976 125.49 919.825 125.396 919.685 125.327C919.569 125.257 919.476 125.199 919.406 125.152L913.402 121.382L913.716 122.185C913.786 122.371 913.855 122.569 913.925 122.778C913.995 122.964 914.03 123.104 914.03 123.197C914.03 123.29 914.065 123.476 914.135 123.756C914.228 124.035 914.333 124.314 914.449 124.594C914.565 124.85 914.647 125.047 914.693 125.187C914.81 125.35 915.089 125.559 915.531 125.815C915.787 125.932 915.997 126.048 916.159 126.164C916.322 126.281 916.45 126.397 916.543 126.514C916.753 126.723 916.997 126.921 917.277 127.107L917.695 127.386C917.835 127.479 917.975 127.561 918.114 127.631C918.277 127.7 918.405 127.759 918.498 127.805C918.917 127.945 919.185 128.05 919.301 128.119C919.441 128.189 919.685 128.329 920.034 128.538C920.174 128.631 920.325 128.724 920.488 128.818C920.651 128.887 920.826 128.957 921.012 129.027C921.314 129.12 921.594 129.248 921.85 129.411C922.129 129.574 922.571 129.853 923.176 130.249L925.41 131.296C925.643 131.389 925.853 131.494 926.039 131.61C926.225 131.703 926.376 131.785 926.493 131.855L927.714 132.553ZM908.724 128.154C908.375 128.154 908.084 127.991 907.851 127.666C907.642 127.316 907.537 126.921 907.537 126.479C907.537 125.967 907.677 125.478 907.956 125.012C908.235 124.524 908.561 124.128 908.933 123.826C909.329 123.5 909.701 123.337 910.05 123.337C910.469 123.337 910.783 123.476 910.993 123.756C911.202 124.035 911.307 124.407 911.307 124.873C911.307 125.082 911.226 125.373 911.063 125.746C910.9 126.095 910.69 126.455 910.434 126.828C910.178 127.2 909.899 127.514 909.597 127.77C909.294 128.026 909.003 128.154 908.724 128.154ZM925.271 137.51C925.736 137.138 926.085 136.8 926.318 136.498C926.574 136.195 926.737 135.927 926.807 135.695C926.877 135.462 926.935 135.241 926.981 135.031C927.051 134.822 927.133 134.636 927.226 134.473L927.435 134.019C927.063 133.786 926.702 133.565 926.353 133.356C926.027 133.123 925.701 132.89 925.375 132.658C925.119 132.564 924.91 132.483 924.747 132.413C924.607 132.343 924.41 132.227 924.154 132.064L923.455 131.575C922.641 130.994 922.094 130.703 921.815 130.703C921.535 130.703 921.151 130.528 920.663 130.179L919.057 128.992C918.917 128.876 918.719 128.771 918.463 128.678C918.207 128.562 917.777 128.399 917.172 128.189C916.753 128.026 916.427 127.852 916.194 127.666C916.055 127.549 915.915 127.456 915.775 127.386C915.659 127.316 915.543 127.247 915.426 127.177L914.938 126.898C914.845 126.828 914.74 126.77 914.623 126.723C914.53 126.676 914.426 126.618 914.309 126.548C913.867 127.06 913.646 127.398 913.646 127.561C913.646 127.747 913.518 128.038 913.262 128.434L912.285 129.9L912.738 130.214C912.994 130.4 913.262 130.551 913.541 130.668L913.995 130.877C914.507 131.133 914.938 131.389 915.287 131.645C915.473 131.762 915.624 131.866 915.741 131.959C915.857 132.052 915.962 132.122 916.055 132.169L920.523 134.647C920.686 134.74 920.895 134.868 921.151 135.031C921.407 135.194 921.675 135.369 921.954 135.555L924.049 136.882C924.142 136.928 924.235 136.986 924.328 137.056C924.445 137.103 924.549 137.149 924.642 137.196L925.271 137.51ZM922.687 139.814L924.363 138.418C924.293 138.371 924.223 138.336 924.154 138.313C924.084 138.266 924.026 138.22 923.979 138.173C923.909 138.127 923.839 138.08 923.77 138.034C923.7 137.987 923.618 137.94 923.525 137.894L923.176 137.65C923.13 137.603 922.967 137.498 922.687 137.335L920.593 136.079C920.523 136.032 920.395 135.962 920.209 135.869C920.046 135.753 919.825 135.648 919.546 135.555C919.173 135.415 918.847 135.264 918.568 135.101C918.312 134.938 918.056 134.799 917.8 134.682C917.661 134.519 917.533 134.391 917.416 134.298C917.323 134.205 917.242 134.112 917.172 134.019C917.055 133.903 916.799 133.763 916.404 133.6L915.95 133.426C915.438 133.239 915.031 132.995 914.728 132.692C914.379 132.343 914.1 132.157 913.89 132.134C913.611 132.111 913.309 131.983 912.983 131.75C912.61 131.494 912.285 131.296 912.005 131.156C911.726 130.994 911.447 130.854 911.167 130.738C911.074 130.784 910.853 130.854 910.504 130.947C910.178 131.04 909.957 131.098 909.841 131.122C909.608 131.145 909.387 131.203 909.178 131.296C908.991 131.389 908.77 131.494 908.514 131.61L907.886 131.924C908.491 132.297 909.061 132.658 909.597 133.007C910.155 133.356 910.737 133.67 911.342 133.949L912.424 134.438C912.541 134.484 912.669 134.543 912.808 134.612C912.948 134.682 913.087 134.74 913.227 134.787C913.343 134.834 913.518 134.915 913.751 135.031C914.007 135.148 914.309 135.299 914.658 135.485L916.753 136.602C917.102 136.788 917.451 136.986 917.8 137.196C918.149 137.405 918.498 137.603 918.847 137.789C919.08 137.906 919.301 138.034 919.511 138.173C919.72 138.313 919.941 138.441 920.174 138.557C920.43 138.697 920.791 138.895 921.256 139.151C921.745 139.383 922.222 139.604 922.687 139.814ZM924.154 140.268C924.247 140.268 924.433 140.268 924.712 140.268C925.015 140.244 925.352 140.233 925.725 140.233C926.143 140.233 926.574 140.233 927.016 140.233C927.482 140.21 927.982 140.198 928.517 140.198C929.122 140.198 929.716 140.21 930.298 140.233C930.879 140.233 931.461 140.233 932.043 140.233C932.322 140.233 932.59 140.035 932.846 139.639C933.102 139.22 933.23 138.883 933.23 138.627C933.23 138.511 933.125 138.278 932.916 137.929C932.73 137.58 932.509 137.231 932.253 136.882L931.764 136.183C931.578 135.904 931.345 135.555 931.066 135.136C930.786 134.717 930.554 134.322 930.367 133.949L930.088 133.391C930.018 133.251 929.914 133.076 929.774 132.867C929.634 132.634 929.495 132.425 929.355 132.239L928.831 131.506L928.762 131.924C928.738 132.064 928.727 132.204 928.727 132.343C928.727 132.483 928.727 132.634 928.727 132.797V133.007C928.75 133.053 928.762 133.111 928.762 133.181C928.762 133.298 928.878 133.554 929.111 133.949C929.227 134.135 929.343 134.333 929.46 134.543C929.576 134.752 929.716 134.973 929.879 135.206C929.646 135.02 929.402 134.857 929.146 134.717C928.913 134.578 928.727 134.508 928.587 134.508C928.378 134.508 928.273 134.647 928.273 134.927C928.273 135.159 928.482 135.52 928.901 136.009C929.32 136.474 929.762 136.928 930.228 137.37C930.111 137.324 929.983 137.289 929.844 137.266C929.727 137.242 929.611 137.219 929.495 137.196L928.727 136.882C928.634 136.835 928.482 136.8 928.273 136.777C928.063 136.754 927.889 136.742 927.749 136.742C927.4 136.742 927.109 136.87 926.877 137.126C926.644 137.382 926.527 137.603 926.527 137.789C926.527 137.999 926.609 138.196 926.772 138.383C926.958 138.546 927.202 138.743 927.505 138.976C927.249 138.976 927.039 138.988 926.877 139.011C926.737 139.011 926.621 139.011 926.527 139.011C926.411 139.011 926.283 139.023 926.143 139.046C926.027 139.046 925.899 139.046 925.759 139.046C925.317 139.046 924.933 139.174 924.607 139.43C924.282 139.686 924.014 139.954 923.805 140.233L924.154 140.268Z" fill="#94A3B8"/>
<path d="M893.704 161.802C894.896 161.802 895.938 162.032 896.829 162.494C897.732 162.945 898.424 163.601 898.908 164.46C899.402 165.309 899.649 166.302 899.649 167.441C899.649 168.579 899.402 169.567 898.908 170.405C898.424 171.243 897.732 171.888 896.829 172.339C895.938 172.779 894.896 172.999 893.704 172.999H890.046V161.802H893.704ZM893.704 171.501C895.014 171.501 896.018 171.146 896.717 170.437C897.415 169.729 897.764 168.73 897.764 167.441C897.764 166.141 897.415 165.126 896.717 164.396C896.018 163.665 895.014 163.3 893.704 163.3H891.883V171.501H893.704ZM909.606 168.343C909.606 168.676 909.584 168.977 909.541 169.245H902.758C902.812 169.954 903.075 170.523 903.548 170.953C904.02 171.383 904.6 171.598 905.288 171.598C906.276 171.598 906.974 171.184 907.382 170.357H909.364C909.096 171.173 908.607 171.845 907.898 172.371C907.2 172.886 906.33 173.144 905.288 173.144C904.439 173.144 903.677 172.956 903 172.58C902.334 172.194 901.808 171.657 901.421 170.969C901.045 170.271 900.857 169.465 900.857 168.552C900.857 167.639 901.04 166.839 901.405 166.152C901.781 165.454 902.302 164.916 902.968 164.541C903.644 164.165 904.418 163.977 905.288 163.977C906.126 163.977 906.872 164.159 907.527 164.524C908.183 164.89 908.693 165.405 909.058 166.071C909.423 166.726 909.606 167.484 909.606 168.343ZM907.689 167.763C907.678 167.086 907.436 166.544 906.964 166.136C906.491 165.727 905.906 165.523 905.207 165.523C904.574 165.523 904.031 165.727 903.58 166.136C903.129 166.533 902.86 167.075 902.774 167.763H907.689ZM914.636 173.144C913.938 173.144 913.309 173.021 912.751 172.774C912.203 172.516 911.768 172.172 911.446 171.743C911.123 171.302 910.952 170.813 910.93 170.276H912.831C912.863 170.652 913.041 170.969 913.363 171.227C913.696 171.474 914.109 171.598 914.604 171.598C915.119 171.598 915.517 171.501 915.796 171.308C916.086 171.103 916.231 170.846 916.231 170.534C916.231 170.201 916.07 169.954 915.748 169.793C915.436 169.632 914.937 169.455 914.249 169.261C913.583 169.079 913.041 168.901 912.622 168.73C912.203 168.558 911.838 168.295 911.526 167.94C911.225 167.586 911.075 167.118 911.075 166.538C911.075 166.066 911.215 165.636 911.494 165.249C911.773 164.852 912.171 164.541 912.686 164.315C913.213 164.089 913.814 163.977 914.491 163.977C915.5 163.977 916.311 164.234 916.924 164.75C917.547 165.255 917.88 165.948 917.923 166.828H916.086C916.054 166.431 915.893 166.114 915.603 165.878C915.312 165.642 914.92 165.523 914.426 165.523C913.943 165.523 913.572 165.615 913.315 165.797C913.057 165.98 912.928 166.222 912.928 166.522C912.928 166.759 913.014 166.957 913.186 167.118C913.358 167.28 913.567 167.408 913.814 167.505C914.061 167.591 914.426 167.704 914.91 167.843C915.554 168.015 916.08 168.193 916.489 168.375C916.908 168.547 917.267 168.805 917.568 169.149C917.869 169.492 918.025 169.949 918.035 170.518C918.035 171.023 917.896 171.474 917.616 171.871C917.337 172.269 916.94 172.58 916.424 172.806C915.919 173.031 915.323 173.144 914.636 173.144ZM920.955 162.945C920.622 162.945 920.342 162.833 920.117 162.607C919.891 162.382 919.778 162.102 919.778 161.769C919.778 161.436 919.891 161.157 920.117 160.931C920.342 160.706 920.622 160.593 920.955 160.593C921.277 160.593 921.551 160.706 921.776 160.931C922.002 161.157 922.115 161.436 922.115 161.769C922.115 162.102 922.002 162.382 921.776 162.607C921.551 162.833 921.277 162.945 920.955 162.945ZM921.857 164.122V172.999H920.02V164.122H921.857ZM927.845 163.977C928.533 163.977 929.139 164.116 929.666 164.396C930.203 164.664 930.622 165.002 930.923 165.411V164.122H932.775V173.144C932.775 173.961 932.604 174.686 932.26 175.319C931.916 175.964 931.417 176.469 930.761 176.834C930.117 177.199 929.344 177.382 928.441 177.382C927.238 177.382 926.239 177.097 925.444 176.528C924.65 175.969 924.198 175.207 924.091 174.24H925.912C926.051 174.702 926.347 175.072 926.798 175.352C927.26 175.642 927.808 175.787 928.441 175.787C929.182 175.787 929.779 175.561 930.23 175.11C930.692 174.659 930.923 174.004 930.923 173.144V171.662C930.611 172.081 930.187 172.435 929.65 172.725C929.123 173.005 928.522 173.144 927.845 173.144C927.072 173.144 926.363 172.951 925.718 172.564C925.085 172.167 924.58 171.619 924.204 170.921C923.839 170.212 923.656 169.412 923.656 168.52C923.656 167.629 923.839 166.839 924.204 166.152C924.58 165.464 925.085 164.933 925.718 164.557C926.363 164.17 927.072 163.977 927.845 163.977ZM930.923 168.552C930.923 167.94 930.794 167.408 930.536 166.957C930.289 166.506 929.961 166.162 929.553 165.926C929.145 165.69 928.704 165.572 928.232 165.572C927.759 165.572 927.319 165.69 926.911 165.926C926.502 166.152 926.17 166.49 925.912 166.941C925.665 167.382 925.541 167.908 925.541 168.52C925.541 169.132 925.665 169.669 925.912 170.131C926.17 170.593 926.502 170.948 926.911 171.195C927.33 171.431 927.77 171.549 928.232 171.549C928.704 171.549 929.145 171.431 929.553 171.195C929.961 170.958 930.289 170.615 930.536 170.164C930.794 169.702 930.923 169.165 930.923 168.552ZM939.667 163.977C940.365 163.977 940.988 164.122 941.536 164.412C942.095 164.702 942.53 165.131 942.841 165.701C943.153 166.27 943.308 166.957 943.308 167.763V172.999H941.488V168.037C941.488 167.242 941.289 166.635 940.892 166.216C940.494 165.787 939.952 165.572 939.264 165.572C938.577 165.572 938.029 165.787 937.621 166.216C937.223 166.635 937.025 167.242 937.025 168.037V172.999H935.188V164.122H937.025V165.137C937.325 164.771 937.707 164.487 938.169 164.283C938.641 164.079 939.141 163.977 939.667 163.977Z" fill="#94A3B8"/>
<path d="M697.51 191.922C766.657 191.922 764.643 150.3 833.789 150.3" stroke="#94A3B8" stroke-width="2" stroke-dasharray="6.71 8.06"/>
<defs>
<filter id="filter0_d_670_54545" x="-0.000656128" y="-0.000108719" width="410.853" height="303.441" filterUnits="userSpaceOnUse" color-interpolation-filters="sRGB">
<feFlood flood-opacity="0" result="BackgroundImageFix"/>
<feColorMatrix in="SourceAlpha" type="matrix" values="0 0 0 0 0 0 0 0 0 0 0 0 0 0 0 0 0 0 127 0" result="hardAlpha"/>
<feOffset dy="13.4266"/>
<feGaussianBlur stdDeviation="18.7972"/>
<feColorMatrix type="matrix" values="0 0 0 0 0 0 0 0 0 0 0 0 0 0 0 0 0 0 0.18 0"/>
<feBlend mode="normal" in2="BackgroundImageFix" result="effect1_dropShadow_670_54545"/>
<feBlend mode="normal" in="SourceGraphic" in2="effect1_dropShadow_670_54545" result="shape"/>
</filter>
<filter id="filter1_d_670_54545" x="308.81" y="32.2235" width="410.853" height="303.441" filterUnits="userSpaceOnUse" color-interpolation-filters="sRGB">
<feFlood flood-opacity="0" result="BackgroundImageFix"/>
<feColorMatrix in="SourceAlpha" type="matrix" values="0 0 0 0 0 0 0 0 0 0 0 0 0 0 0 0 0 0 127 0" result="hardAlpha"/>
<feOffset dy="13.4266"/>
<feGaussianBlur stdDeviation="18.7972"/>
<feColorMatrix type="matrix" values="0 0 0 0 0 0 0 0 0 0 0 0 0 0 0 0 0 0 0.18 0"/>
<feBlend mode="normal" in2="BackgroundImageFix" result="effect1_dropShadow_670_54545"/>
<feBlend mode="normal" in="SourceGraphic" in2="effect1_dropShadow_670_54545" result="shape"/>
</filter>
</defs>
</svg>
