<svg width="30" height="30" viewBox="0 0 30 30" fill="none" xmlns="http://www.w3.org/2000/svg">
<path d="M27.7493 22.0418L17.5013 4.24449C17.2452 3.80846 16.8796 3.44693 16.4407 3.19573C16.0019 2.94453 15.505 2.81238 14.9993 2.81238C14.4936 2.81238 13.9967 2.94453 13.5579 3.19573C13.119 3.44693 12.7534 3.80846 12.4974 4.24449L2.2493 22.0418C2.0029 22.4635 1.87305 22.9432 1.87305 23.4316C1.87305 23.92 2.0029 24.3997 2.2493 24.8214C2.50211 25.2601 2.86708 25.6236 3.30676 25.8746C3.74644 26.1257 4.24499 26.2552 4.75126 26.25H25.2474C25.7532 26.2548 26.2513 26.1251 26.6905 25.874C27.1297 25.623 27.4943 25.2598 27.747 24.8214C27.9937 24.3999 28.124 23.9204 28.1244 23.4319C28.1248 22.9435 27.9954 22.4637 27.7493 22.0418ZM14.0618 12.1875C14.0618 11.9388 14.1606 11.7004 14.3364 11.5245C14.5122 11.3487 14.7507 11.25 14.9993 11.25C15.2479 11.25 15.4864 11.3487 15.6622 11.5245C15.838 11.7004 15.9368 11.9388 15.9368 12.1875V16.875C15.9368 17.1236 15.838 17.3621 15.6622 17.5379C15.4864 17.7137 15.2479 17.8125 14.9993 17.8125C14.7507 17.8125 14.5122 17.7137 14.3364 17.5379C14.1606 17.3621 14.0618 17.1236 14.0618 16.875V12.1875ZM14.9993 22.5C14.7212 22.5 14.4493 22.4175 14.218 22.263C13.9868 22.1084 13.8065 21.8888 13.7001 21.6319C13.5937 21.3749 13.5658 21.0921 13.6201 20.8194C13.6743 20.5466 13.8083 20.296 14.0049 20.0993C14.2016 19.9027 14.4522 19.7687 14.725 19.7145C14.9977 19.6602 15.2805 19.6881 15.5375 19.7945C15.7944 19.9009 16.014 20.0812 16.1686 20.3124C16.3231 20.5437 16.4056 20.8156 16.4056 21.0937C16.4056 21.4667 16.2574 21.8244 15.9937 22.0881C15.7299 22.3518 15.3723 22.5 14.9993 22.5Z" fill="#DC2626"/>
</svg>
