<svg width="960" height="320" viewBox="0 0 960 320" fill="none" xmlns="http://www.w3.org/2000/svg">
<rect width="960" height="320" rx="16" fill="white"/>
<path d="M346.624 290.66C347.512 290.66 348.288 290.832 348.952 291.176C349.624 291.512 350.14 292 350.5 292.64C350.868 293.272 351.052 294.012 351.052 294.86C351.052 295.708 350.868 296.444 350.5 297.068C350.14 297.692 349.624 298.172 348.952 298.508C348.288 298.836 347.512 299 346.624 299H343.9V290.66H346.624ZM346.624 297.884C347.6 297.884 348.348 297.62 348.868 297.092C349.388 296.564 349.648 295.82 349.648 294.86C349.648 293.892 349.388 293.136 348.868 292.592C348.348 292.048 347.6 291.776 346.624 291.776H345.268V297.884H346.624ZM358.468 295.532C358.468 295.78 358.452 296.004 358.42 296.204H353.368C353.408 296.732 353.604 297.156 353.956 297.476C354.308 297.796 354.74 297.956 355.252 297.956C355.988 297.956 356.508 297.648 356.812 297.032H358.288C358.088 297.64 357.724 298.14 357.196 298.532C356.676 298.916 356.028 299.108 355.252 299.108C354.62 299.108 354.052 298.968 353.548 298.688C353.052 298.4 352.66 298 352.372 297.488C352.092 296.968 351.952 296.368 351.952 295.688C351.952 295.008 352.088 294.412 352.36 293.9C352.64 293.38 353.028 292.98 353.524 292.7C354.028 292.42 354.604 292.28 355.252 292.28C355.876 292.28 356.432 292.416 356.92 292.688C357.408 292.96 357.788 293.344 358.06 293.84C358.332 294.328 358.468 294.892 358.468 295.532ZM357.04 295.1C357.032 294.596 356.852 294.192 356.5 293.888C356.148 293.584 355.712 293.432 355.192 293.432C354.72 293.432 354.316 293.584 353.98 293.888C353.644 294.184 353.444 294.588 353.38 295.1H357.04ZM362.214 299.108C361.694 299.108 361.226 299.016 360.81 298.832C360.402 298.64 360.078 298.384 359.838 298.064C359.598 297.736 359.47 297.372 359.454 296.972H360.87C360.894 297.252 361.026 297.488 361.266 297.68C361.514 297.864 361.822 297.956 362.19 297.956C362.574 297.956 362.87 297.884 363.078 297.74C363.294 297.588 363.402 297.396 363.402 297.164C363.402 296.916 363.282 296.732 363.042 296.612C362.81 296.492 362.438 296.36 361.926 296.216C361.43 296.08 361.026 295.948 360.714 295.82C360.402 295.692 360.13 295.496 359.898 295.232C359.674 294.968 359.562 294.62 359.562 294.188C359.562 293.836 359.666 293.516 359.874 293.228C360.082 292.932 360.378 292.7 360.762 292.532C361.154 292.364 361.602 292.28 362.106 292.28C362.858 292.28 363.462 292.472 363.918 292.856C364.382 293.232 364.63 293.748 364.662 294.404H363.294C363.27 294.108 363.15 293.872 362.934 293.696C362.718 293.52 362.426 293.432 362.058 293.432C361.698 293.432 361.422 293.5 361.23 293.636C361.038 293.772 360.942 293.952 360.942 294.176C360.942 294.352 361.006 294.5 361.134 294.62C361.262 294.74 361.418 294.836 361.602 294.908C361.786 294.972 362.058 295.056 362.418 295.16C362.898 295.288 363.29 295.42 363.594 295.556C363.906 295.684 364.174 295.876 364.398 296.132C364.622 296.388 364.738 296.728 364.746 297.152C364.746 297.528 364.642 297.864 364.434 298.16C364.226 298.456 363.93 298.688 363.546 298.856C363.17 299.024 362.726 299.108 362.214 299.108ZM366.92 291.512C366.672 291.512 366.464 291.428 366.296 291.26C366.128 291.092 366.044 290.884 366.044 290.636C366.044 290.388 366.128 290.18 366.296 290.012C366.464 289.844 366.672 289.76 366.92 289.76C367.16 289.76 367.364 289.844 367.532 290.012C367.7 290.18 367.784 290.388 367.784 290.636C367.784 290.884 367.7 291.092 367.532 291.26C367.364 291.428 367.16 291.512 366.92 291.512ZM367.592 292.388V299H366.224V292.388H367.592ZM372.052 292.28C372.564 292.28 373.016 292.384 373.408 292.592C373.808 292.792 374.12 293.044 374.344 293.348V292.388H375.724V299.108C375.724 299.716 375.596 300.256 375.34 300.728C375.084 301.208 374.712 301.584 374.224 301.856C373.744 302.128 373.168 302.264 372.496 302.264C371.6 302.264 370.856 302.052 370.264 301.628C369.672 301.212 369.336 300.644 369.256 299.924H370.612C370.716 300.268 370.936 300.544 371.272 300.752C371.616 300.968 372.024 301.076 372.496 301.076C373.048 301.076 373.492 300.908 373.828 300.572C374.172 300.236 374.344 299.748 374.344 299.108V298.004C374.112 298.316 373.796 298.58 373.396 298.796C373.004 299.004 372.556 299.108 372.052 299.108C371.476 299.108 370.948 298.964 370.468 298.676C369.996 298.38 369.62 297.972 369.34 297.452C369.068 296.924 368.932 296.328 368.932 295.664C368.932 295 369.068 294.412 369.34 293.9C369.62 293.388 369.996 292.992 370.468 292.712C370.948 292.424 371.476 292.28 372.052 292.28ZM374.344 295.688C374.344 295.232 374.248 294.836 374.056 294.5C373.872 294.164 373.628 293.908 373.324 293.732C373.02 293.556 372.692 293.468 372.34 293.468C371.988 293.468 371.66 293.556 371.356 293.732C371.052 293.9 370.804 294.152 370.612 294.488C370.428 294.816 370.336 295.208 370.336 295.664C370.336 296.12 370.428 296.52 370.612 296.864C370.804 297.208 371.052 297.472 371.356 297.656C371.668 297.832 371.996 297.92 372.34 297.92C372.692 297.92 373.02 297.832 373.324 297.656C373.628 297.48 373.872 297.224 374.056 296.888C374.248 296.544 374.344 296.144 374.344 295.688ZM380.857 292.28C381.377 292.28 381.841 292.388 382.249 292.604C382.665 292.82 382.989 293.14 383.221 293.564C383.453 293.988 383.569 294.5 383.569 295.1V299H382.213V295.304C382.213 294.712 382.065 294.26 381.769 293.948C381.473 293.628 381.069 293.468 380.557 293.468C380.045 293.468 379.637 293.628 379.333 293.948C379.037 294.26 378.889 294.712 378.889 295.304V299H377.521V292.388H378.889V293.144C379.113 292.872 379.397 292.66 379.741 292.508C380.093 292.356 380.465 292.28 380.857 292.28ZM397.575 294.08V295.232H388.575V294.08H397.575ZM404.002 293.36C404.234 293.056 404.55 292.8 404.95 292.592C405.35 292.384 405.802 292.28 406.306 292.28C406.882 292.28 407.406 292.424 407.878 292.712C408.358 292.992 408.734 293.388 409.006 293.9C409.278 294.412 409.414 295 409.414 295.664C409.414 296.328 409.278 296.924 409.006 297.452C408.734 297.972 408.358 298.38 407.878 298.676C407.406 298.964 406.882 299.108 406.306 299.108C405.802 299.108 405.354 299.008 404.962 298.808C404.57 298.6 404.25 298.344 404.002 298.04V302.144H402.634V292.388H404.002V293.36ZM408.022 295.664C408.022 295.208 407.926 294.816 407.734 294.488C407.55 294.152 407.302 293.9 406.99 293.732C406.686 293.556 406.358 293.468 406.006 293.468C405.662 293.468 405.334 293.556 405.022 293.732C404.718 293.908 404.47 294.164 404.278 294.5C404.094 294.836 404.002 295.232 404.002 295.688C404.002 296.144 404.094 296.544 404.278 296.888C404.47 297.224 404.718 297.48 405.022 297.656C405.334 297.832 405.662 297.92 406.006 297.92C406.358 297.92 406.686 297.832 406.99 297.656C407.302 297.472 407.55 297.208 407.734 296.864C407.926 296.52 408.022 296.12 408.022 295.664ZM416.755 292.388V299H415.387V298.22C415.171 298.492 414.887 298.708 414.535 298.868C414.191 299.02 413.823 299.096 413.431 299.096C412.911 299.096 412.443 298.988 412.027 298.772C411.619 298.556 411.295 298.236 411.055 297.812C410.823 297.388 410.707 296.876 410.707 296.276V292.388H412.063V296.072C412.063 296.664 412.211 297.12 412.507 297.44C412.803 297.752 413.207 297.908 413.719 297.908C414.231 297.908 414.635 297.752 414.931 297.44C415.235 297.12 415.387 296.664 415.387 296.072V292.388H416.755ZM419.928 290.12V299H418.56V290.12H419.928ZM423.092 290.12V299H421.724V290.12H423.092ZM430.948 295.532C430.948 295.78 430.932 296.004 430.9 296.204H425.848C425.888 296.732 426.084 297.156 426.436 297.476C426.788 297.796 427.22 297.956 427.732 297.956C428.468 297.956 428.988 297.648 429.292 297.032H430.768C430.568 297.64 430.204 298.14 429.676 298.532C429.156 298.916 428.508 299.108 427.732 299.108C427.1 299.108 426.532 298.968 426.028 298.688C425.532 298.4 425.14 298 424.852 297.488C424.572 296.968 424.432 296.368 424.432 295.688C424.432 295.008 424.568 294.412 424.84 293.9C425.12 293.38 425.508 292.98 426.004 292.7C426.508 292.42 427.084 292.28 427.732 292.28C428.356 292.28 428.912 292.416 429.4 292.688C429.888 292.96 430.268 293.344 430.54 293.84C430.812 294.328 430.948 294.892 430.948 295.532ZM429.52 295.1C429.512 294.596 429.332 294.192 428.98 293.888C428.628 293.584 428.192 293.432 427.672 293.432C427.2 293.432 426.796 293.584 426.46 293.888C426.124 294.184 425.924 294.588 425.86 295.1H429.52ZM431.839 295.664C431.839 295 431.975 294.412 432.247 293.9C432.527 293.388 432.903 292.992 433.375 292.712C433.855 292.424 434.387 292.28 434.971 292.28C435.403 292.28 435.827 292.376 436.243 292.568C436.667 292.752 437.003 293 437.251 293.312V290.12H438.631V299H437.251V298.004C437.027 298.324 436.715 298.588 436.315 298.796C435.923 299.004 435.471 299.108 434.959 299.108C434.383 299.108 433.855 298.964 433.375 298.676C432.903 298.38 432.527 297.972 432.247 297.452C431.975 296.924 431.839 296.328 431.839 295.664ZM437.251 295.688C437.251 295.232 437.155 294.836 436.963 294.5C436.779 294.164 436.535 293.908 436.231 293.732C435.927 293.556 435.599 293.468 435.247 293.468C434.895 293.468 434.567 293.556 434.263 293.732C433.959 293.9 433.711 294.152 433.519 294.488C433.335 294.816 433.243 295.208 433.243 295.664C433.243 296.12 433.335 296.52 433.519 296.864C433.711 297.208 433.959 297.472 434.263 297.656C434.575 297.832 434.903 297.92 435.247 297.92C435.599 297.92 435.927 297.832 436.231 297.656C436.535 297.48 436.779 297.224 436.963 296.888C437.155 296.544 437.251 296.144 437.251 295.688ZM444.241 291.512C443.993 291.512 443.785 291.428 443.617 291.26C443.449 291.092 443.365 290.884 443.365 290.636C443.365 290.388 443.449 290.18 443.617 290.012C443.785 289.844 443.993 289.76 444.241 289.76C444.481 289.76 444.685 289.844 444.853 290.012C445.021 290.18 445.105 290.388 445.105 290.636C445.105 290.884 445.021 291.092 444.853 291.26C444.685 291.428 444.481 291.512 444.241 291.512ZM444.913 292.388V299H443.545V292.388H444.913ZM450.045 292.28C450.565 292.28 451.029 292.388 451.437 292.604C451.853 292.82 452.177 293.14 452.409 293.564C452.641 293.988 452.757 294.5 452.757 295.1V299H451.401V295.304C451.401 294.712 451.253 294.26 450.957 293.948C450.661 293.628 450.257 293.468 449.745 293.468C449.233 293.468 448.825 293.628 448.521 293.948C448.225 294.26 448.077 294.712 448.077 295.304V299H446.709V292.388H448.077V293.144C448.301 292.872 448.585 292.66 448.929 292.508C449.281 292.356 449.653 292.28 450.045 292.28ZM460.487 299.108C459.863 299.108 459.299 298.968 458.795 298.688C458.291 298.4 457.895 298 457.607 297.488C457.319 296.968 457.175 296.368 457.175 295.688C457.175 295.016 457.323 294.42 457.619 293.9C457.915 293.38 458.319 292.98 458.831 292.7C459.343 292.42 459.915 292.28 460.547 292.28C461.179 292.28 461.751 292.42 462.263 292.7C462.775 292.98 463.179 293.38 463.475 293.9C463.771 294.42 463.919 295.016 463.919 295.688C463.919 296.36 463.767 296.956 463.463 297.476C463.159 297.996 462.743 298.4 462.215 298.688C461.695 298.968 461.119 299.108 460.487 299.108ZM460.487 297.92C460.839 297.92 461.167 297.836 461.471 297.668C461.783 297.5 462.035 297.248 462.227 296.912C462.419 296.576 462.515 296.168 462.515 295.688C462.515 295.208 462.423 294.804 462.239 294.476C462.055 294.14 461.811 293.888 461.507 293.72C461.203 293.552 460.875 293.468 460.523 293.468C460.171 293.468 459.843 293.552 459.539 293.72C459.243 293.888 459.007 294.14 458.831 294.476C458.655 294.804 458.567 295.208 458.567 295.688C458.567 296.4 458.747 296.952 459.107 297.344C459.475 297.728 459.935 297.92 460.487 297.92ZM464.815 295.688C464.815 295.008 464.951 294.412 465.223 293.9C465.503 293.38 465.887 292.98 466.375 292.7C466.863 292.42 467.423 292.28 468.055 292.28C468.855 292.28 469.515 292.472 470.035 292.856C470.563 293.232 470.919 293.772 471.103 294.476H469.627C469.507 294.148 469.315 293.892 469.051 293.708C468.787 293.524 468.455 293.432 468.055 293.432C467.495 293.432 467.047 293.632 466.711 294.032C466.383 294.424 466.219 294.976 466.219 295.688C466.219 296.4 466.383 296.956 466.711 297.356C467.047 297.756 467.495 297.956 468.055 297.956C468.847 297.956 469.371 297.608 469.627 296.912H471.103C470.911 297.584 470.551 298.12 470.023 298.52C469.495 298.912 468.839 299.108 468.055 299.108C467.423 299.108 466.863 298.968 466.375 298.688C465.887 298.4 465.503 298 465.223 297.488C464.951 296.968 464.815 296.368 464.815 295.688ZM472.01 295.688C472.01 295.008 472.146 294.412 472.418 293.9C472.698 293.38 473.082 292.98 473.57 292.7C474.058 292.42 474.618 292.28 475.25 292.28C476.05 292.28 476.71 292.472 477.23 292.856C477.758 293.232 478.114 293.772 478.298 294.476H476.822C476.702 294.148 476.51 293.892 476.246 293.708C475.982 293.524 475.65 293.432 475.25 293.432C474.69 293.432 474.242 293.632 473.906 294.032C473.578 294.424 473.414 294.976 473.414 295.688C473.414 296.4 473.578 296.956 473.906 297.356C474.242 297.756 474.69 297.956 475.25 297.956C476.042 297.956 476.566 297.608 476.822 296.912H478.298C478.106 297.584 477.746 298.12 477.218 298.52C476.69 298.912 476.034 299.108 475.25 299.108C474.618 299.108 474.058 298.968 473.57 298.688C473.082 298.4 472.698 298 472.418 297.488C472.146 296.968 472.01 296.368 472.01 295.688ZM479.206 295.664C479.206 295 479.342 294.412 479.614 293.9C479.894 293.388 480.27 292.992 480.742 292.712C481.222 292.424 481.75 292.28 482.326 292.28C482.846 292.28 483.298 292.384 483.682 292.592C484.074 292.792 484.386 293.044 484.618 293.348V292.388H485.998V299H484.618V298.016C484.386 298.328 484.07 298.588 483.67 298.796C483.27 299.004 482.814 299.108 482.302 299.108C481.734 299.108 481.214 298.964 480.742 298.676C480.27 298.38 479.894 297.972 479.614 297.452C479.342 296.924 479.206 296.328 479.206 295.664ZM484.618 295.688C484.618 295.232 484.522 294.836 484.33 294.5C484.146 294.164 483.902 293.908 483.598 293.732C483.294 293.556 482.966 293.468 482.614 293.468C482.262 293.468 481.934 293.556 481.63 293.732C481.326 293.9 481.078 294.152 480.886 294.488C480.702 294.816 480.61 295.208 480.61 295.664C480.61 296.12 480.702 296.52 480.886 296.864C481.078 297.208 481.326 297.472 481.63 297.656C481.942 297.832 482.27 297.92 482.614 297.92C482.966 297.92 483.294 297.832 483.598 297.656C483.902 297.48 484.146 297.224 484.33 296.888C484.522 296.544 484.618 296.144 484.618 295.688ZM490.195 299.108C489.675 299.108 489.207 299.016 488.791 298.832C488.383 298.64 488.059 298.384 487.819 298.064C487.579 297.736 487.451 297.372 487.435 296.972H488.851C488.875 297.252 489.007 297.488 489.247 297.68C489.495 297.864 489.803 297.956 490.171 297.956C490.555 297.956 490.851 297.884 491.059 297.74C491.275 297.588 491.383 297.396 491.383 297.164C491.383 296.916 491.263 296.732 491.023 296.612C490.791 296.492 490.419 296.36 489.907 296.216C489.411 296.08 489.007 295.948 488.695 295.82C488.383 295.692 488.111 295.496 487.879 295.232C487.655 294.968 487.543 294.62 487.543 294.188C487.543 293.836 487.647 293.516 487.855 293.228C488.063 292.932 488.359 292.7 488.743 292.532C489.135 292.364 489.583 292.28 490.087 292.28C490.839 292.28 491.443 292.472 491.899 292.856C492.363 293.232 492.611 293.748 492.643 294.404H491.275C491.251 294.108 491.131 293.872 490.915 293.696C490.699 293.52 490.407 293.432 490.039 293.432C489.679 293.432 489.403 293.5 489.211 293.636C489.019 293.772 488.923 293.952 488.923 294.176C488.923 294.352 488.987 294.5 489.115 294.62C489.243 294.74 489.399 294.836 489.583 294.908C489.767 294.972 490.039 295.056 490.399 295.16C490.879 295.288 491.271 295.42 491.575 295.556C491.887 295.684 492.155 295.876 492.379 296.132C492.603 296.388 492.719 296.728 492.727 297.152C492.727 297.528 492.623 297.864 492.415 298.16C492.207 298.456 491.911 298.688 491.527 298.856C491.151 299.024 490.707 299.108 490.195 299.108ZM494.901 291.512C494.653 291.512 494.445 291.428 494.277 291.26C494.109 291.092 494.025 290.884 494.025 290.636C494.025 290.388 494.109 290.18 494.277 290.012C494.445 289.844 494.653 289.76 494.901 289.76C495.141 289.76 495.345 289.844 495.513 290.012C495.681 290.18 495.765 290.388 495.765 290.636C495.765 290.884 495.681 291.092 495.513 291.26C495.345 291.428 495.141 291.512 494.901 291.512ZM495.573 292.388V299H494.205V292.388H495.573ZM500.237 299.108C499.613 299.108 499.049 298.968 498.545 298.688C498.041 298.4 497.645 298 497.357 297.488C497.069 296.968 496.925 296.368 496.925 295.688C496.925 295.016 497.073 294.42 497.369 293.9C497.665 293.38 498.069 292.98 498.581 292.7C499.093 292.42 499.665 292.28 500.297 292.28C500.929 292.28 501.501 292.42 502.013 292.7C502.525 292.98 502.929 293.38 503.225 293.9C503.521 294.42 503.669 295.016 503.669 295.688C503.669 296.36 503.517 296.956 503.213 297.476C502.909 297.996 502.493 298.4 501.965 298.688C501.445 298.968 500.869 299.108 500.237 299.108ZM500.237 297.92C500.589 297.92 500.917 297.836 501.221 297.668C501.533 297.5 501.785 297.248 501.977 296.912C502.169 296.576 502.265 296.168 502.265 295.688C502.265 295.208 502.173 294.804 501.989 294.476C501.805 294.14 501.561 293.888 501.257 293.72C500.953 293.552 500.625 293.468 500.273 293.468C499.921 293.468 499.593 293.552 499.289 293.72C498.993 293.888 498.757 294.14 498.581 294.476C498.405 294.804 498.317 295.208 498.317 295.688C498.317 296.4 498.497 296.952 498.857 297.344C499.225 297.728 499.685 297.92 500.237 297.92ZM508.357 292.28C508.877 292.28 509.341 292.388 509.749 292.604C510.165 292.82 510.489 293.14 510.721 293.564C510.953 293.988 511.069 294.5 511.069 295.1V299H509.713V295.304C509.713 294.712 509.565 294.26 509.269 293.948C508.973 293.628 508.569 293.468 508.057 293.468C507.545 293.468 507.137 293.628 506.833 293.948C506.537 294.26 506.389 294.712 506.389 295.304V299H505.021V292.388H506.389V293.144C506.613 292.872 506.897 292.66 507.241 292.508C507.593 292.356 507.965 292.28 508.357 292.28ZM512.358 295.664C512.358 295 512.494 294.412 512.766 293.9C513.046 293.388 513.422 292.992 513.894 292.712C514.374 292.424 514.902 292.28 515.478 292.28C515.998 292.28 516.45 292.384 516.834 292.592C517.226 292.792 517.538 293.044 517.77 293.348V292.388H519.15V299H517.77V298.016C517.538 298.328 517.222 298.588 516.822 298.796C516.422 299.004 515.966 299.108 515.454 299.108C514.886 299.108 514.366 298.964 513.894 298.676C513.422 298.38 513.046 297.972 512.766 297.452C512.494 296.924 512.358 296.328 512.358 295.664ZM517.77 295.688C517.77 295.232 517.674 294.836 517.482 294.5C517.298 294.164 517.054 293.908 516.75 293.732C516.446 293.556 516.118 293.468 515.766 293.468C515.414 293.468 515.086 293.556 514.782 293.732C514.478 293.9 514.23 294.152 514.038 294.488C513.854 294.816 513.762 295.208 513.762 295.664C513.762 296.12 513.854 296.52 514.038 296.864C514.23 297.208 514.478 297.472 514.782 297.656C515.094 297.832 515.422 297.92 515.766 297.92C516.118 297.92 516.446 297.832 516.75 297.656C517.054 297.48 517.298 297.224 517.482 296.888C517.674 296.544 517.77 296.144 517.77 295.688ZM522.315 290.12V299H520.947V290.12H522.315ZM525.479 290.12V299H524.111V290.12H525.479ZM533.227 292.388L529.171 302.108H527.755L529.099 298.892L526.495 292.388H528.019L529.879 297.428L531.811 292.388H533.227ZM535.759 297.356L534.307 300.668H533.419L534.271 297.356H535.759ZM542.844 293.504H541.62V299H540.24V293.504H539.46V292.388H540.24V291.92C540.24 291.16 540.44 290.608 540.84 290.264C541.248 289.912 541.884 289.736 542.748 289.736V290.876C542.332 290.876 542.04 290.956 541.872 291.116C541.704 291.268 541.62 291.536 541.62 291.92V292.388H542.844V293.504ZM545.424 293.348C545.624 293.012 545.888 292.752 546.216 292.568C546.552 292.376 546.948 292.28 547.404 292.28V293.696H547.056C546.52 293.696 546.112 293.832 545.832 294.104C545.56 294.376 545.424 294.848 545.424 295.52V299H544.056V292.388H545.424V293.348ZM551.53 299.108C550.906 299.108 550.342 298.968 549.838 298.688C549.334 298.4 548.938 298 548.65 297.488C548.362 296.968 548.218 296.368 548.218 295.688C548.218 295.016 548.366 294.42 548.662 293.9C548.958 293.38 549.362 292.98 549.874 292.7C550.386 292.42 550.958 292.28 551.59 292.28C552.222 292.28 552.794 292.42 553.306 292.7C553.818 292.98 554.222 293.38 554.518 293.9C554.814 294.42 554.962 295.016 554.962 295.688C554.962 296.36 554.81 296.956 554.506 297.476C554.202 297.996 553.786 298.4 553.258 298.688C552.738 298.968 552.162 299.108 551.53 299.108ZM551.53 297.92C551.882 297.92 552.21 297.836 552.514 297.668C552.826 297.5 553.078 297.248 553.27 296.912C553.462 296.576 553.558 296.168 553.558 295.688C553.558 295.208 553.466 294.804 553.282 294.476C553.098 294.14 552.854 293.888 552.55 293.72C552.246 293.552 551.918 293.468 551.566 293.468C551.214 293.468 550.886 293.552 550.582 293.72C550.286 293.888 550.05 294.14 549.874 294.476C549.698 294.804 549.61 295.208 549.61 295.688C549.61 296.4 549.79 296.952 550.15 297.344C550.518 297.728 550.978 297.92 551.53 297.92ZM564.318 292.28C564.838 292.28 565.302 292.388 565.71 292.604C566.126 292.82 566.45 293.14 566.682 293.564C566.922 293.988 567.042 294.5 567.042 295.1V299H565.686V295.304C565.686 294.712 565.538 294.26 565.242 293.948C564.946 293.628 564.542 293.468 564.03 293.468C563.518 293.468 563.11 293.628 562.806 293.948C562.51 294.26 562.362 294.712 562.362 295.304V299H561.006V295.304C561.006 294.712 560.858 294.26 560.562 293.948C560.266 293.628 559.862 293.468 559.35 293.468C558.838 293.468 558.43 293.628 558.126 293.948C557.83 294.26 557.682 294.712 557.682 295.304V299H556.314V292.388H557.682V293.144C557.906 292.872 558.19 292.66 558.534 292.508C558.878 292.356 559.246 292.28 559.638 292.28C560.166 292.28 560.638 292.392 561.054 292.616C561.47 292.84 561.79 293.164 562.014 293.588C562.214 293.188 562.526 292.872 562.95 292.64C563.374 292.4 563.83 292.28 564.318 292.28ZM574.768 299.108C574.144 299.108 573.58 298.968 573.076 298.688C572.572 298.4 572.176 298 571.888 297.488C571.6 296.968 571.456 296.368 571.456 295.688C571.456 295.016 571.604 294.42 571.9 293.9C572.196 293.38 572.6 292.98 573.112 292.7C573.624 292.42 574.196 292.28 574.828 292.28C575.46 292.28 576.032 292.42 576.544 292.7C577.056 292.98 577.46 293.38 577.756 293.9C578.052 294.42 578.2 295.016 578.2 295.688C578.2 296.36 578.048 296.956 577.744 297.476C577.44 297.996 577.024 298.4 576.496 298.688C575.976 298.968 575.4 299.108 574.768 299.108ZM574.768 297.92C575.12 297.92 575.448 297.836 575.752 297.668C576.064 297.5 576.316 297.248 576.508 296.912C576.7 296.576 576.796 296.168 576.796 295.688C576.796 295.208 576.704 294.804 576.52 294.476C576.336 294.14 576.092 293.888 575.788 293.72C575.484 293.552 575.156 293.468 574.804 293.468C574.452 293.468 574.124 293.552 573.82 293.72C573.524 293.888 573.288 294.14 573.112 294.476C572.936 294.804 572.848 295.208 572.848 295.688C572.848 296.4 573.028 296.952 573.388 297.344C573.756 297.728 574.216 297.92 574.768 297.92ZM585.54 292.388V299H584.172V298.22C583.956 298.492 583.672 298.708 583.32 298.868C582.976 299.02 582.608 299.096 582.216 299.096C581.696 299.096 581.228 298.988 580.812 298.772C580.404 298.556 580.08 298.236 579.84 297.812C579.608 297.388 579.492 296.876 579.492 296.276V292.388H580.848V296.072C580.848 296.664 580.996 297.12 581.292 297.44C581.588 297.752 581.992 297.908 582.504 297.908C583.016 297.908 583.42 297.752 583.716 297.44C584.02 297.12 584.172 296.664 584.172 296.072V292.388H585.54ZM588.941 293.504V297.164C588.941 297.412 588.997 297.592 589.109 297.704C589.229 297.808 589.429 297.86 589.709 297.86H590.549V299H589.469C588.853 299 588.381 298.856 588.053 298.568C587.725 298.28 587.561 297.812 587.561 297.164V293.504H586.781V292.388H587.561V290.744H588.941V292.388H590.549V293.504H588.941ZM594.21 299.108C593.69 299.108 593.222 299.016 592.806 298.832C592.398 298.64 592.074 298.384 591.834 298.064C591.594 297.736 591.466 297.372 591.45 296.972H592.866C592.89 297.252 593.022 297.488 593.262 297.68C593.51 297.864 593.818 297.956 594.186 297.956C594.57 297.956 594.866 297.884 595.074 297.74C595.29 297.588 595.398 297.396 595.398 297.164C595.398 296.916 595.278 296.732 595.038 296.612C594.806 296.492 594.434 296.36 593.922 296.216C593.426 296.08 593.022 295.948 592.71 295.82C592.398 295.692 592.126 295.496 591.894 295.232C591.67 294.968 591.558 294.62 591.558 294.188C591.558 293.836 591.662 293.516 591.87 293.228C592.078 292.932 592.374 292.7 592.758 292.532C593.15 292.364 593.598 292.28 594.102 292.28C594.854 292.28 595.458 292.472 595.914 292.856C596.378 293.232 596.626 293.748 596.658 294.404H595.29C595.266 294.108 595.146 293.872 594.93 293.696C594.714 293.52 594.422 293.432 594.054 293.432C593.694 293.432 593.418 293.5 593.226 293.636C593.034 293.772 592.938 293.952 592.938 294.176C592.938 294.352 593.002 294.5 593.13 294.62C593.258 294.74 593.414 294.836 593.598 294.908C593.782 294.972 594.054 295.056 594.414 295.16C594.894 295.288 595.286 295.42 595.59 295.556C595.902 295.684 596.17 295.876 596.394 296.132C596.618 296.388 596.734 296.728 596.742 297.152C596.742 297.528 596.638 297.864 596.43 298.16C596.222 298.456 595.926 298.688 595.542 298.856C595.166 299.024 594.722 299.108 594.21 299.108ZM598.916 291.512C598.668 291.512 598.46 291.428 598.292 291.26C598.124 291.092 598.04 290.884 598.04 290.636C598.04 290.388 598.124 290.18 598.292 290.012C598.46 289.844 598.668 289.76 598.916 289.76C599.156 289.76 599.36 289.844 599.528 290.012C599.696 290.18 599.78 290.388 599.78 290.636C599.78 290.884 599.696 291.092 599.528 291.26C599.36 291.428 599.156 291.512 598.916 291.512ZM599.588 292.388V299H598.22V292.388H599.588ZM600.928 295.664C600.928 295 601.064 294.412 601.336 293.9C601.616 293.388 601.992 292.992 602.464 292.712C602.944 292.424 603.476 292.28 604.06 292.28C604.492 292.28 604.916 292.376 605.332 292.568C605.756 292.752 606.092 293 606.34 293.312V290.12H607.72V299H606.34V298.004C606.116 298.324 605.804 298.588 605.404 298.796C605.012 299.004 604.56 299.108 604.048 299.108C603.472 299.108 602.944 298.964 602.464 298.676C601.992 298.38 601.616 297.972 601.336 297.452C601.064 296.924 600.928 296.328 600.928 295.664ZM606.34 295.688C606.34 295.232 606.244 294.836 606.052 294.5C605.868 294.164 605.624 293.908 605.32 293.732C605.016 293.556 604.688 293.468 604.336 293.468C603.984 293.468 603.656 293.556 603.352 293.732C603.048 293.9 602.8 294.152 602.608 294.488C602.424 294.816 602.332 295.208 602.332 295.664C602.332 296.12 602.424 296.52 602.608 296.864C602.8 297.208 603.048 297.472 603.352 297.656C603.664 297.832 603.992 297.92 604.336 297.92C604.688 297.92 605.016 297.832 605.32 297.656C605.624 297.48 605.868 297.224 606.052 296.888C606.244 296.544 606.34 296.144 606.34 295.688ZM615.577 295.532C615.577 295.78 615.561 296.004 615.529 296.204H610.477C610.517 296.732 610.713 297.156 611.065 297.476C611.417 297.796 611.849 297.956 612.361 297.956C613.097 297.956 613.617 297.648 613.921 297.032H615.397C615.197 297.64 614.833 298.14 614.305 298.532C613.785 298.916 613.137 299.108 612.361 299.108C611.729 299.108 611.161 298.968 610.657 298.688C610.161 298.4 609.769 298 609.481 297.488C609.201 296.968 609.061 296.368 609.061 295.688C609.061 295.008 609.197 294.412 609.469 293.9C609.749 293.38 610.137 292.98 610.633 292.7C611.137 292.42 611.713 292.28 612.361 292.28C612.985 292.28 613.541 292.416 614.029 292.688C614.517 292.96 614.897 293.344 615.169 293.84C615.441 294.328 615.577 294.892 615.577 295.532ZM614.149 295.1C614.141 294.596 613.961 294.192 613.609 293.888C613.257 293.584 612.821 293.432 612.301 293.432C611.829 293.432 611.425 293.584 611.089 293.888C610.753 294.184 610.553 294.588 610.489 295.1H614.149Z" fill="#64748B"/>
<g filter="url(#filter0_d_594_57815)">
<rect x="143" y="51.5576" width="250" height="170" rx="12" fill="#0235BD"/>
</g>
<rect x="157" y="65.5576" width="9" height="9" rx="4.5" fill="#FF5F56"/>
<rect x="171" y="65.5576" width="9" height="9" rx="4.5" fill="#F5A623"/>
<rect x="185" y="65.5576" width="9" height="9" rx="4.5" fill="#22C55E"/>
<path d="M210.111 124.218L210.941 124.498L207.881 134.008C207.834 134.134 207.797 134.258 207.771 134.378C207.744 134.491 207.731 134.621 207.731 134.768V135.138C207.731 135.271 207.694 135.374 207.621 135.448C207.547 135.521 207.451 135.558 207.331 135.558H205.611C205.477 135.558 205.374 135.521 205.301 135.448C205.227 135.374 205.191 135.271 205.191 135.138V134.768C205.191 134.654 205.181 134.558 205.161 134.478C205.141 134.391 205.104 134.261 205.051 134.088L201.601 122.948C201.547 122.774 201.481 122.651 201.401 122.578C201.327 122.498 201.224 122.434 201.091 122.388L200.621 122.268C200.487 122.221 200.397 122.168 200.351 122.108C200.304 122.048 200.281 121.974 200.281 121.888C200.281 121.788 200.317 121.708 200.391 121.648C200.471 121.588 200.594 121.558 200.761 121.558H204.931C205.097 121.558 205.217 121.588 205.291 121.648C205.371 121.708 205.411 121.794 205.411 121.908C205.411 122.081 205.297 122.194 205.071 122.248L204.291 122.368C204.124 122.394 204.027 122.464 204.001 122.578C203.974 122.691 203.997 122.868 204.071 123.108L207.471 134.228L206.681 134.828L210.111 124.218ZM216.411 121.908C216.411 121.794 216.451 121.708 216.531 121.648C216.611 121.588 216.731 121.558 216.891 121.558H219.961C220.134 121.558 220.257 121.591 220.331 121.658C220.404 121.718 220.441 121.798 220.441 121.898C220.441 121.984 220.414 122.054 220.361 122.108C220.314 122.154 220.217 122.204 220.071 122.258L219.661 122.398C219.467 122.471 219.307 122.588 219.181 122.748C219.054 122.908 218.941 123.158 218.841 123.498L215.711 134.008C215.664 134.174 215.627 134.311 215.601 134.418C215.574 134.524 215.561 134.641 215.561 134.768V135.138C215.561 135.271 215.524 135.374 215.451 135.448C215.384 135.521 215.291 135.558 215.171 135.558H213.351C213.224 135.558 213.124 135.521 213.051 135.448C212.977 135.374 212.941 135.271 212.941 135.138V134.768C212.941 134.661 212.937 134.561 212.931 134.468C212.924 134.368 212.891 134.228 212.831 134.048L209.531 122.948C209.471 122.741 209.411 122.601 209.351 122.528C209.291 122.454 209.201 122.401 209.081 122.368L208.611 122.238C208.484 122.198 208.394 122.154 208.341 122.108C208.294 122.054 208.271 121.988 208.271 121.908C208.271 121.794 208.311 121.708 208.391 121.648C208.471 121.588 208.591 121.558 208.751 121.558H212.821C212.987 121.558 213.107 121.588 213.181 121.648C213.261 121.708 213.301 121.794 213.301 121.908C213.301 121.994 213.271 122.068 213.211 122.128C213.157 122.181 213.064 122.224 212.931 122.258L212.181 122.378C212.027 122.411 211.934 122.474 211.901 122.568C211.867 122.661 211.891 122.841 211.971 123.108L215.241 134.208L214.571 134.728L217.931 123.428C218.024 123.114 218.037 122.878 217.971 122.718C217.904 122.558 217.717 122.438 217.411 122.358L216.761 122.248C216.634 122.214 216.544 122.171 216.491 122.118C216.437 122.058 216.411 121.988 216.411 121.908ZM224.488 128.678L224.108 128.298L224.548 127.918C225.341 127.204 226.035 126.704 226.628 126.418C227.221 126.131 227.791 125.988 228.338 125.988C229.171 125.988 229.845 126.251 230.358 126.778C230.871 127.298 231.128 128.011 231.128 128.918V134.168C231.128 134.361 231.165 134.508 231.238 134.608C231.318 134.701 231.425 134.764 231.558 134.798L231.988 134.898C232.101 134.931 232.185 134.978 232.238 135.038C232.291 135.091 232.318 135.158 232.318 135.238C232.318 135.338 232.281 135.418 232.208 135.478C232.141 135.531 232.035 135.558 231.888 135.558H228.298C227.998 135.558 227.848 135.448 227.848 135.228C227.848 135.074 227.948 134.964 228.148 134.898L228.628 134.798C228.768 134.758 228.871 134.691 228.938 134.598C229.005 134.498 229.038 134.354 229.038 134.168V129.238C229.038 128.571 228.871 128.074 228.538 127.748C228.211 127.414 227.775 127.248 227.228 127.248C226.895 127.248 226.535 127.331 226.148 127.498C225.761 127.664 225.351 127.934 224.918 128.308L224.488 128.678ZM224.768 121.308V134.208C224.768 134.388 224.801 134.521 224.868 134.608C224.935 134.694 225.031 134.758 225.158 134.798L225.618 134.898C225.818 134.964 225.918 135.074 225.918 135.228C225.918 135.448 225.768 135.558 225.468 135.558H221.898C221.751 135.558 221.641 135.531 221.568 135.478C221.501 135.418 221.468 135.338 221.468 135.238C221.468 135.158 221.495 135.091 221.548 135.038C221.601 134.978 221.685 134.931 221.798 134.898L222.278 134.798C222.411 134.758 222.511 134.694 222.578 134.608C222.645 134.521 222.678 134.391 222.678 134.218V122.708C222.678 122.561 222.651 122.454 222.598 122.388C222.551 122.321 222.471 122.284 222.358 122.278L221.678 122.248C221.565 122.228 221.485 122.194 221.438 122.148C221.391 122.101 221.368 122.041 221.368 121.968C221.368 121.888 221.395 121.821 221.448 121.768C221.501 121.708 221.601 121.654 221.748 121.608L223.438 121.018C223.638 120.944 223.801 120.891 223.928 120.858C224.055 120.824 224.171 120.808 224.278 120.808C224.438 120.808 224.558 120.854 224.638 120.948C224.725 121.034 224.768 121.154 224.768 121.308ZM237.122 126.568V134.208C237.122 134.388 237.152 134.524 237.212 134.618C237.278 134.704 237.378 134.764 237.512 134.798L237.972 134.898C238.085 134.931 238.168 134.974 238.222 135.028C238.282 135.081 238.312 135.151 238.312 135.238C238.312 135.338 238.275 135.418 238.202 135.478C238.128 135.531 238.018 135.558 237.872 135.558H234.242C234.095 135.558 233.985 135.531 233.912 135.478C233.845 135.418 233.812 135.338 233.812 135.238C233.812 135.158 233.838 135.091 233.892 135.038C233.945 134.978 234.028 134.931 234.142 134.898L234.632 134.798C234.758 134.758 234.855 134.694 234.922 134.608C234.988 134.521 235.022 134.391 235.022 134.218V127.958C235.022 127.811 234.995 127.708 234.942 127.648C234.895 127.581 234.815 127.541 234.702 127.528L234.022 127.498C233.915 127.478 233.835 127.448 233.782 127.408C233.735 127.361 233.712 127.298 233.712 127.218C233.712 127.138 233.738 127.071 233.792 127.018C233.852 126.958 233.952 126.904 234.092 126.858L235.782 126.268C235.995 126.194 236.162 126.141 236.282 126.108C236.408 126.074 236.518 126.058 236.612 126.058C236.778 126.058 236.905 126.104 236.992 126.198C237.078 126.284 237.122 126.408 237.122 126.568ZM235.852 124.208C235.425 124.208 235.078 124.091 234.812 123.858C234.545 123.618 234.412 123.311 234.412 122.938C234.412 122.564 234.545 122.261 234.812 122.028C235.078 121.794 235.425 121.678 235.852 121.678C236.285 121.678 236.635 121.794 236.902 122.028C237.168 122.261 237.302 122.564 237.302 122.938C237.302 123.311 237.168 123.618 236.902 123.858C236.635 124.091 236.285 124.208 235.852 124.208ZM243.269 126.698C242.769 126.698 242.372 126.828 242.079 127.088C241.792 127.348 241.649 127.688 241.649 128.108C241.649 128.361 241.709 128.591 241.829 128.798C241.949 129.004 242.165 129.194 242.479 129.368C242.792 129.534 243.239 129.694 243.819 129.848C244.732 130.061 245.445 130.321 245.959 130.628C246.479 130.934 246.845 131.284 247.059 131.678C247.272 132.071 247.379 132.504 247.379 132.978C247.379 133.824 247.075 134.504 246.469 135.018C245.862 135.531 244.999 135.788 243.879 135.788C243.465 135.788 243.122 135.751 242.849 135.678C242.582 135.604 242.359 135.531 242.179 135.458C242.005 135.384 241.852 135.348 241.719 135.348C241.592 135.348 241.489 135.384 241.409 135.458C241.329 135.531 241.252 135.604 241.179 135.678C241.112 135.758 241.022 135.798 240.909 135.798C240.815 135.798 240.745 135.768 240.699 135.708C240.652 135.654 240.605 135.561 240.559 135.428L239.829 133.298C239.769 133.118 239.749 132.971 239.769 132.858C239.795 132.738 239.869 132.654 239.989 132.608C240.109 132.561 240.212 132.561 240.299 132.608C240.392 132.654 240.475 132.738 240.549 132.858C240.842 133.418 241.159 133.861 241.499 134.188C241.845 134.508 242.209 134.734 242.589 134.868C242.975 135.001 243.372 135.068 243.779 135.068C244.405 135.068 244.875 134.934 245.189 134.668C245.509 134.401 245.669 134.048 245.669 133.608C245.669 133.341 245.602 133.101 245.469 132.888C245.335 132.668 245.092 132.464 244.739 132.278C244.385 132.091 243.882 131.918 243.229 131.758C242.422 131.564 241.779 131.328 241.299 131.048C240.825 130.761 240.482 130.424 240.269 130.038C240.062 129.644 239.959 129.188 239.959 128.668C239.959 128.141 240.092 127.678 240.359 127.278C240.625 126.871 240.999 126.554 241.479 126.328C241.965 126.094 242.532 125.978 243.179 125.978C243.592 125.978 243.929 126.021 244.189 126.108C244.455 126.188 244.672 126.271 244.839 126.358C245.005 126.438 245.155 126.478 245.289 126.478C245.429 126.478 245.539 126.438 245.619 126.358C245.699 126.271 245.772 126.188 245.839 126.108C245.912 126.028 246.005 125.988 246.119 125.988C246.192 125.988 246.255 126.014 246.309 126.068C246.362 126.121 246.402 126.211 246.429 126.338L246.999 128.358C247.045 128.551 247.062 128.711 247.049 128.838C247.035 128.958 246.965 129.041 246.839 129.088C246.719 129.134 246.615 129.128 246.529 129.068C246.442 129.001 246.352 128.891 246.259 128.738C245.872 127.998 245.415 127.474 244.889 127.168C244.362 126.854 243.822 126.698 243.269 126.698ZM249.596 126.998L249.046 126.858C248.886 126.811 248.776 126.761 248.716 126.708C248.656 126.648 248.626 126.578 248.626 126.498C248.626 126.398 248.659 126.321 248.726 126.268C248.799 126.214 248.896 126.188 249.016 126.188H249.666C249.832 126.188 249.969 126.161 250.076 126.108C250.182 126.054 250.276 125.954 250.356 125.808L251.186 124.328C251.279 124.181 251.372 124.074 251.466 124.008C251.566 123.941 251.669 123.908 251.776 123.908C251.889 123.908 251.976 123.944 252.036 124.018C252.096 124.084 252.126 124.181 252.126 124.308V133.108C252.126 133.568 252.219 133.918 252.406 134.158C252.599 134.398 252.866 134.518 253.206 134.518C253.446 134.518 253.632 134.478 253.766 134.398C253.906 134.318 254.012 134.224 254.086 134.118C254.166 134.011 254.239 133.918 254.306 133.838C254.379 133.751 254.466 133.701 254.566 133.688C254.652 133.688 254.716 133.714 254.756 133.768C254.802 133.821 254.826 133.904 254.826 134.018C254.819 134.311 254.712 134.588 254.506 134.848C254.306 135.108 254.026 135.321 253.666 135.488C253.306 135.648 252.896 135.728 252.436 135.728C251.696 135.728 251.109 135.538 250.676 135.158C250.249 134.778 250.036 134.204 250.036 133.438V127.558C250.036 127.398 250.002 127.278 249.936 127.198C249.869 127.111 249.756 127.044 249.596 126.998ZM251.196 126.958V126.188H254.336C254.469 126.188 254.569 126.214 254.636 126.268C254.709 126.314 254.746 126.388 254.746 126.488C254.746 126.621 254.676 126.734 254.536 126.828C254.402 126.914 254.189 126.958 253.896 126.958H251.196ZM259.602 121.308V134.208C259.602 134.388 259.635 134.524 259.702 134.618C259.769 134.704 259.865 134.764 259.992 134.798L260.452 134.898C260.565 134.931 260.649 134.974 260.702 135.028C260.762 135.081 260.792 135.151 260.792 135.238C260.792 135.338 260.755 135.418 260.682 135.478C260.609 135.531 260.499 135.558 260.352 135.558H256.732C256.585 135.558 256.475 135.531 256.402 135.478C256.329 135.418 256.292 135.338 256.292 135.238C256.292 135.158 256.319 135.091 256.372 135.038C256.432 134.978 256.519 134.931 256.632 134.898L257.112 134.798C257.239 134.758 257.335 134.694 257.402 134.608C257.469 134.521 257.502 134.391 257.502 134.218V122.708C257.502 122.561 257.479 122.454 257.432 122.388C257.385 122.321 257.305 122.284 257.192 122.278L256.502 122.248C256.395 122.228 256.319 122.194 256.272 122.148C256.225 122.101 256.202 122.041 256.202 121.968C256.202 121.888 256.229 121.821 256.282 121.768C256.335 121.708 256.435 121.654 256.582 121.608L258.262 121.018C258.475 120.938 258.645 120.884 258.772 120.858C258.899 120.824 259.005 120.808 259.092 120.808C259.265 120.808 259.392 120.854 259.472 120.948C259.559 121.034 259.602 121.154 259.602 121.308ZM270.988 129.738C270.988 130.031 270.898 130.258 270.718 130.418C270.544 130.571 270.291 130.648 269.958 130.648H263.568V130.028H268.358C268.678 130.028 268.838 129.884 268.838 129.598C268.838 128.698 268.644 127.998 268.258 127.498C267.878 126.998 267.368 126.748 266.728 126.748C266.221 126.748 265.774 126.894 265.388 127.188C265.008 127.474 264.708 127.884 264.488 128.418C264.274 128.944 264.168 129.568 264.168 130.288C264.168 131.614 264.484 132.621 265.118 133.308C265.751 133.994 266.581 134.338 267.608 134.338C268.268 134.338 268.841 134.188 269.328 133.888C269.814 133.588 270.154 133.188 270.348 132.688C270.428 132.581 270.494 132.508 270.548 132.468C270.608 132.428 270.671 132.408 270.738 132.408C270.824 132.408 270.888 132.444 270.928 132.518C270.968 132.591 270.984 132.681 270.978 132.788C270.938 133.334 270.741 133.838 270.388 134.298C270.034 134.751 269.561 135.114 268.968 135.388C268.374 135.654 267.701 135.788 266.948 135.788C266.014 135.788 265.191 135.594 264.478 135.208C263.771 134.814 263.218 134.264 262.818 133.558C262.424 132.844 262.228 132.011 262.228 131.058C262.228 130.078 262.421 129.208 262.808 128.448C263.194 127.688 263.744 127.088 264.458 126.648C265.171 126.208 266.018 125.988 266.998 125.988C267.811 125.988 268.514 126.148 269.108 126.468C269.708 126.781 270.171 127.221 270.498 127.788C270.824 128.348 270.988 128.998 270.988 129.738ZM275.47 121.308V134.328L274.56 135.508C274.34 135.608 274.176 135.678 274.07 135.718C273.97 135.758 273.866 135.778 273.76 135.778C273.646 135.778 273.553 135.741 273.48 135.668C273.406 135.601 273.37 135.498 273.37 135.358V122.708C273.37 122.561 273.346 122.454 273.3 122.388C273.253 122.321 273.173 122.284 273.06 122.278L272.37 122.248C272.263 122.228 272.186 122.194 272.14 122.148C272.093 122.101 272.07 122.041 272.07 121.968C272.07 121.888 272.096 121.821 272.15 121.768C272.203 121.708 272.303 121.654 272.45 121.608L274.13 121.018C274.343 120.938 274.51 120.884 274.63 120.858C274.756 120.824 274.866 120.808 274.96 120.808C275.133 120.808 275.26 120.854 275.34 120.948C275.426 121.034 275.47 121.154 275.47 121.308ZM274.99 128.908L274.67 128.398C275.183 127.631 275.776 127.038 276.45 126.618C277.123 126.198 277.853 125.988 278.64 125.988C279.42 125.988 280.116 126.188 280.73 126.588C281.35 126.988 281.836 127.541 282.19 128.248C282.543 128.948 282.72 129.754 282.72 130.668C282.72 131.721 282.513 132.631 282.1 133.398C281.686 134.158 281.13 134.748 280.43 135.168C279.73 135.581 278.95 135.788 278.09 135.788C277.303 135.788 276.6 135.594 275.98 135.208C275.366 134.821 274.87 134.274 274.49 133.568L274.97 133.078C275.31 133.671 275.716 134.124 276.19 134.438C276.67 134.744 277.183 134.898 277.73 134.898C278.256 134.898 278.73 134.754 279.15 134.468C279.57 134.174 279.903 133.731 280.15 133.138C280.396 132.544 280.52 131.801 280.52 130.908C280.52 130.061 280.403 129.354 280.17 128.788C279.936 128.214 279.616 127.784 279.21 127.498C278.803 127.204 278.34 127.058 277.82 127.058C277.286 127.058 276.78 127.214 276.3 127.528C275.826 127.834 275.39 128.294 274.99 128.908ZM287.708 121.308V134.208C287.708 134.388 287.741 134.524 287.808 134.618C287.874 134.704 287.971 134.764 288.098 134.798L288.558 134.898C288.671 134.931 288.754 134.974 288.808 135.028C288.868 135.081 288.898 135.151 288.898 135.238C288.898 135.338 288.861 135.418 288.788 135.478C288.714 135.531 288.604 135.558 288.458 135.558H284.838C284.691 135.558 284.581 135.531 284.508 135.478C284.434 135.418 284.398 135.338 284.398 135.238C284.398 135.158 284.424 135.091 284.478 135.038C284.538 134.978 284.624 134.931 284.738 134.898L285.218 134.798C285.344 134.758 285.441 134.694 285.508 134.608C285.574 134.521 285.608 134.391 285.608 134.218V122.708C285.608 122.561 285.584 122.454 285.538 122.388C285.491 122.321 285.411 122.284 285.298 122.278L284.608 122.248C284.501 122.228 284.424 122.194 284.378 122.148C284.331 122.101 284.308 122.041 284.308 121.968C284.308 121.888 284.334 121.821 284.388 121.768C284.441 121.708 284.541 121.654 284.688 121.608L286.368 121.018C286.581 120.938 286.751 120.884 286.878 120.858C287.004 120.824 287.111 120.808 287.198 120.808C287.371 120.808 287.498 120.854 287.578 120.948C287.664 121.034 287.708 121.154 287.708 121.308ZM295.363 125.988C296.337 125.988 297.197 126.198 297.943 126.618C298.69 127.031 299.27 127.608 299.683 128.348C300.103 129.088 300.313 129.941 300.313 130.908C300.313 131.841 300.1 132.678 299.673 133.418C299.247 134.151 298.657 134.731 297.903 135.158C297.157 135.578 296.287 135.788 295.293 135.788C294.32 135.788 293.46 135.581 292.713 135.168C291.973 134.748 291.393 134.168 290.973 133.428C290.553 132.688 290.343 131.838 290.343 130.878C290.343 129.931 290.557 129.091 290.983 128.358C291.41 127.624 291.997 127.048 292.743 126.628C293.497 126.201 294.37 125.988 295.363 125.988ZM296.053 134.958C296.607 134.878 297.057 134.651 297.403 134.278C297.757 133.904 297.99 133.398 298.103 132.758C298.223 132.118 298.213 131.364 298.073 130.498C297.927 129.624 297.69 128.901 297.363 128.328C297.037 127.754 296.637 127.341 296.163 127.088C295.69 126.828 295.17 126.738 294.603 126.818C294.05 126.898 293.597 127.128 293.243 127.508C292.897 127.881 292.663 128.388 292.543 129.028C292.43 129.661 292.447 130.411 292.593 131.278C292.733 132.144 292.967 132.868 293.293 133.448C293.627 134.021 294.027 134.438 294.493 134.698C294.967 134.951 295.487 135.038 296.053 134.958ZM306.192 135.668H305.472C305.312 135.668 305.172 135.628 305.052 135.548C304.938 135.468 304.848 135.331 304.782 135.138L302.192 127.578C302.112 127.331 302.032 127.168 301.952 127.088C301.872 127.008 301.772 126.954 301.652 126.928L301.272 126.848C301.152 126.821 301.068 126.781 301.022 126.728C300.975 126.668 300.952 126.598 300.952 126.518C300.952 126.411 300.988 126.331 301.062 126.278C301.135 126.218 301.238 126.188 301.372 126.188H305.252C305.385 126.188 305.488 126.218 305.562 126.278C305.642 126.331 305.682 126.408 305.682 126.508C305.682 126.594 305.655 126.668 305.602 126.728C305.548 126.781 305.455 126.821 305.322 126.848L304.892 126.918C304.632 126.958 304.478 127.044 304.432 127.178C304.385 127.311 304.425 127.578 304.552 127.978L306.662 134.438L306.212 134.808L308.692 127.498L309.392 128.018L306.872 135.198C306.805 135.378 306.708 135.501 306.582 135.568C306.462 135.634 306.332 135.668 306.192 135.668ZM312.322 135.668H311.632C311.485 135.668 311.348 135.628 311.222 135.548C311.095 135.461 311.002 135.328 310.942 135.148L308.372 127.498C308.298 127.284 308.225 127.144 308.152 127.078C308.078 127.004 307.982 126.954 307.862 126.928L307.472 126.858C307.352 126.824 307.265 126.781 307.212 126.728C307.165 126.674 307.142 126.601 307.142 126.508C307.142 126.294 307.288 126.188 307.582 126.188H311.272C311.552 126.188 311.692 126.298 311.692 126.518C311.692 126.604 311.665 126.674 311.612 126.728C311.558 126.781 311.472 126.818 311.352 126.838L310.872 126.908C310.685 126.934 310.572 127.021 310.532 127.168C310.498 127.308 310.535 127.548 310.642 127.888L312.772 134.458L312.322 134.848L314.502 128.108C314.642 127.681 314.688 127.388 314.642 127.228C314.595 127.068 314.425 126.964 314.132 126.918L313.712 126.848C313.578 126.821 313.485 126.781 313.432 126.728C313.378 126.674 313.352 126.601 313.352 126.508C313.352 126.408 313.388 126.331 313.462 126.278C313.535 126.218 313.638 126.188 313.772 126.188H316.412C316.545 126.188 316.648 126.218 316.722 126.278C316.802 126.331 316.842 126.411 316.842 126.518C316.842 126.591 316.818 126.658 316.772 126.718C316.725 126.771 316.632 126.814 316.492 126.848L316.132 126.908C316.005 126.941 315.892 127.028 315.792 127.168C315.698 127.308 315.592 127.554 315.472 127.908L313.012 135.188C312.945 135.374 312.848 135.501 312.722 135.568C312.595 135.634 312.462 135.668 312.322 135.668ZM326.203 129.738C326.203 130.031 326.113 130.258 325.933 130.418C325.759 130.571 325.506 130.648 325.173 130.648H318.783V130.028H323.573C323.893 130.028 324.053 129.884 324.053 129.598C324.053 128.698 323.859 127.998 323.473 127.498C323.093 126.998 322.583 126.748 321.943 126.748C321.436 126.748 320.989 126.894 320.603 127.188C320.223 127.474 319.923 127.884 319.703 128.418C319.489 128.944 319.383 129.568 319.383 130.288C319.383 131.614 319.699 132.621 320.333 133.308C320.966 133.994 321.796 134.338 322.823 134.338C323.483 134.338 324.056 134.188 324.543 133.888C325.029 133.588 325.369 133.188 325.563 132.688C325.643 132.581 325.709 132.508 325.763 132.468C325.823 132.428 325.886 132.408 325.953 132.408C326.039 132.408 326.103 132.444 326.143 132.518C326.183 132.591 326.199 132.681 326.193 132.788C326.153 133.334 325.956 133.838 325.603 134.298C325.249 134.751 324.776 135.114 324.183 135.388C323.589 135.654 322.916 135.788 322.163 135.788C321.229 135.788 320.406 135.594 319.693 135.208C318.986 134.814 318.433 134.264 318.033 133.558C317.639 132.844 317.443 132.011 317.443 131.058C317.443 130.078 317.636 129.208 318.023 128.448C318.409 127.688 318.959 127.088 319.673 126.648C320.386 126.208 321.233 125.988 322.213 125.988C323.026 125.988 323.729 126.148 324.323 126.468C324.923 126.781 325.386 127.221 325.713 127.788C326.039 128.348 326.203 128.998 326.203 129.738ZM330.815 130.358C330.815 129.411 330.955 128.614 331.235 127.968C331.515 127.314 331.878 126.821 332.325 126.488C332.771 126.154 333.245 125.988 333.745 125.988C334.345 125.988 334.808 126.154 335.135 126.488C335.468 126.814 335.635 127.268 335.635 127.848C335.635 128.308 335.535 128.654 335.335 128.888C335.141 129.121 334.891 129.238 334.585 129.238C334.271 129.238 334.028 129.151 333.855 128.978C333.688 128.804 333.605 128.561 333.605 128.248V127.908C333.598 127.681 333.541 127.514 333.435 127.408C333.335 127.294 333.165 127.238 332.925 127.238C332.638 127.238 332.358 127.354 332.085 127.588C331.811 127.814 331.588 128.158 331.415 128.618C331.241 129.078 331.155 129.658 331.155 130.358H330.815ZM331.055 126.568L331.155 128.948V134.208C331.155 134.374 331.191 134.501 331.265 134.588C331.345 134.674 331.475 134.731 331.655 134.758L332.565 134.878C332.698 134.898 332.798 134.938 332.865 134.998C332.931 135.051 332.965 135.131 332.965 135.238C332.965 135.338 332.925 135.418 332.845 135.478C332.771 135.531 332.661 135.558 332.515 135.558H328.285C328.138 135.558 328.028 135.531 327.955 135.478C327.888 135.418 327.855 135.338 327.855 135.238C327.855 135.158 327.881 135.091 327.935 135.038C327.988 134.978 328.071 134.931 328.185 134.898L328.665 134.798C328.798 134.764 328.898 134.704 328.965 134.618C329.031 134.524 329.065 134.391 329.065 134.218V127.978C329.065 127.831 329.038 127.724 328.985 127.658C328.938 127.591 328.858 127.551 328.745 127.538L328.065 127.508C327.951 127.494 327.871 127.464 327.825 127.418C327.778 127.371 327.755 127.311 327.755 127.238C327.755 127.151 327.781 127.081 327.835 127.028C327.895 126.968 327.995 126.914 328.135 126.868L329.795 126.288C330.048 126.194 330.235 126.134 330.355 126.108C330.481 126.074 330.581 126.058 330.655 126.058C330.781 126.058 330.875 126.098 330.935 126.178C330.995 126.258 331.035 126.388 331.055 126.568ZM232.625 160.868C232.031 160.868 231.525 160.794 231.105 160.648C230.685 160.501 230.345 160.354 230.085 160.208C229.825 160.061 229.641 159.988 229.535 159.988C229.421 159.988 229.331 160.034 229.265 160.128C229.205 160.214 229.145 160.318 229.085 160.438C229.031 160.551 228.971 160.651 228.905 160.738C228.838 160.831 228.748 160.878 228.635 160.878C228.528 160.878 228.438 160.844 228.365 160.778C228.298 160.711 228.251 160.601 228.225 160.448L227.475 157.258C227.455 157.138 227.468 157.034 227.515 156.948C227.561 156.861 227.645 156.798 227.765 156.758C227.885 156.718 227.991 156.724 228.085 156.778C228.178 156.824 228.258 156.914 228.325 157.048C228.685 157.781 229.088 158.368 229.535 158.808C229.981 159.248 230.455 159.568 230.955 159.768C231.461 159.968 231.978 160.068 232.505 160.068C233.251 160.068 233.835 159.868 234.255 159.468C234.675 159.061 234.888 158.528 234.895 157.868C234.895 157.454 234.801 157.074 234.615 156.728C234.428 156.374 234.075 156.034 233.555 155.708C233.041 155.381 232.288 155.051 231.295 154.718C230.301 154.371 229.501 153.984 228.895 153.558C228.295 153.131 227.858 152.641 227.585 152.088C227.311 151.534 227.175 150.904 227.175 150.198C227.175 149.418 227.358 148.734 227.725 148.148C228.091 147.561 228.605 147.108 229.265 146.788C229.925 146.461 230.688 146.298 231.555 146.298C232.181 146.298 232.695 146.368 233.095 146.508C233.495 146.641 233.815 146.781 234.055 146.928C234.295 147.068 234.491 147.138 234.645 147.138C234.785 147.138 234.881 147.068 234.935 146.928C234.988 146.788 235.048 146.648 235.115 146.508C235.181 146.361 235.295 146.288 235.455 146.288C235.568 146.288 235.658 146.324 235.725 146.398C235.798 146.464 235.865 146.591 235.925 146.778L236.895 150.068C236.935 150.201 236.931 150.324 236.885 150.438C236.838 150.544 236.755 150.614 236.635 150.648C236.515 150.688 236.405 150.684 236.305 150.638C236.211 150.591 236.131 150.504 236.065 150.378C235.665 149.558 235.231 148.911 234.765 148.438C234.305 147.958 233.818 147.614 233.305 147.408C232.798 147.201 232.278 147.098 231.745 147.098C230.978 147.098 230.365 147.318 229.905 147.758C229.451 148.191 229.225 148.768 229.225 149.488C229.225 149.908 229.318 150.301 229.505 150.668C229.698 151.034 230.048 151.391 230.555 151.738C231.061 152.078 231.785 152.421 232.725 152.768C233.758 153.148 234.578 153.551 235.185 153.978C235.791 154.404 236.225 154.878 236.485 155.398C236.745 155.911 236.875 156.494 236.875 157.148C236.868 157.828 236.698 158.451 236.365 159.018C236.038 159.578 235.558 160.028 234.925 160.368C234.298 160.701 233.531 160.868 232.625 160.868ZM243.752 150.988C244.725 150.988 245.585 151.198 246.332 151.618C247.079 152.031 247.659 152.608 248.072 153.348C248.492 154.088 248.702 154.941 248.702 155.908C248.702 156.841 248.489 157.678 248.062 158.418C247.635 159.151 247.045 159.731 246.292 160.158C245.545 160.578 244.675 160.788 243.682 160.788C242.709 160.788 241.849 160.581 241.102 160.168C240.362 159.748 239.782 159.168 239.362 158.428C238.942 157.688 238.732 156.838 238.732 155.878C238.732 154.931 238.945 154.091 239.372 153.358C239.799 152.624 240.385 152.048 241.132 151.628C241.885 151.201 242.759 150.988 243.752 150.988ZM244.442 159.958C244.995 159.878 245.445 159.651 245.792 159.278C246.145 158.904 246.379 158.398 246.492 157.758C246.612 157.118 246.602 156.364 246.462 155.498C246.315 154.624 246.079 153.901 245.752 153.328C245.425 152.754 245.025 152.341 244.552 152.088C244.079 151.828 243.559 151.738 242.992 151.818C242.439 151.898 241.985 152.128 241.632 152.508C241.285 152.881 241.052 153.388 240.932 154.028C240.819 154.661 240.835 155.411 240.982 156.278C241.122 157.144 241.355 157.868 241.682 158.448C242.015 159.021 242.415 159.438 242.882 159.698C243.355 159.951 243.875 160.038 244.442 159.958ZM254.053 159.208C254.053 159.374 254.093 159.508 254.173 159.608C254.253 159.708 254.37 159.764 254.523 159.778L255.553 159.888C255.687 159.901 255.783 159.941 255.843 160.008C255.91 160.068 255.943 160.144 255.943 160.238C255.943 160.451 255.797 160.558 255.503 160.558H250.993C250.867 160.558 250.767 160.531 250.693 160.478C250.62 160.418 250.583 160.341 250.583 160.248C250.583 160.154 250.613 160.081 250.673 160.028C250.733 159.968 250.827 159.921 250.953 159.888L251.463 159.788C251.637 159.741 251.763 159.674 251.843 159.588C251.923 159.501 251.963 159.381 251.963 159.228V152.788C251.963 152.654 251.93 152.544 251.863 152.458C251.803 152.371 251.683 152.298 251.503 152.238L250.923 152.088C250.717 152.021 250.58 151.954 250.513 151.888C250.447 151.821 250.413 151.748 250.413 151.668C250.413 151.581 250.443 151.511 250.503 151.458C250.57 151.404 250.673 151.378 250.813 151.378H252.443L251.973 151.728V151.398C251.973 151.178 251.923 150.971 251.823 150.778C251.723 150.578 251.607 150.374 251.473 150.168C251.34 149.961 251.223 149.731 251.123 149.478C251.023 149.218 250.973 148.918 250.973 148.578C250.973 147.811 251.24 147.194 251.773 146.728C252.307 146.254 253.033 146.018 253.953 146.018C254.54 146.018 255.04 146.114 255.453 146.308C255.867 146.501 256.18 146.758 256.393 147.078C256.613 147.398 256.723 147.744 256.723 148.118C256.723 148.478 256.633 148.754 256.453 148.948C256.273 149.134 256.037 149.228 255.743 149.228C255.437 149.228 255.19 149.131 255.003 148.938C254.823 148.738 254.733 148.471 254.733 148.138V147.638C254.733 147.304 254.643 147.051 254.463 146.878C254.283 146.698 254.027 146.608 253.693 146.608C253.287 146.608 252.973 146.734 252.753 146.988C252.54 147.241 252.433 147.598 252.433 148.058C252.433 148.351 252.483 148.618 252.583 148.858C252.683 149.098 252.807 149.318 252.953 149.518C253.107 149.718 253.257 149.914 253.403 150.108C253.55 150.294 253.673 150.488 253.773 150.688C253.873 150.888 253.923 151.104 253.923 151.338V151.738L253.653 151.378H255.993C256.127 151.378 256.227 151.404 256.293 151.458C256.36 151.504 256.393 151.578 256.393 151.678C256.393 151.811 256.327 151.924 256.193 152.018C256.06 152.104 255.847 152.148 255.553 152.148H254.053V159.208ZM258.18 151.998L257.63 151.858C257.47 151.811 257.36 151.761 257.3 151.708C257.24 151.648 257.21 151.578 257.21 151.498C257.21 151.398 257.243 151.321 257.31 151.268C257.383 151.214 257.48 151.188 257.6 151.188H258.25C258.416 151.188 258.553 151.161 258.66 151.108C258.766 151.054 258.86 150.954 258.94 150.808L259.77 149.328C259.863 149.181 259.956 149.074 260.05 149.008C260.15 148.941 260.253 148.908 260.36 148.908C260.473 148.908 260.56 148.944 260.62 149.018C260.68 149.084 260.71 149.181 260.71 149.308V158.108C260.71 158.568 260.803 158.918 260.99 159.158C261.183 159.398 261.45 159.518 261.79 159.518C262.03 159.518 262.216 159.478 262.35 159.398C262.49 159.318 262.596 159.224 262.67 159.118C262.75 159.011 262.823 158.918 262.89 158.838C262.963 158.751 263.05 158.701 263.15 158.688C263.236 158.688 263.3 158.714 263.34 158.768C263.386 158.821 263.41 158.904 263.41 159.018C263.403 159.311 263.296 159.588 263.09 159.848C262.89 160.108 262.61 160.321 262.25 160.488C261.89 160.648 261.48 160.728 261.02 160.728C260.28 160.728 259.693 160.538 259.26 160.158C258.833 159.778 258.62 159.204 258.62 158.438V152.558C258.62 152.398 258.586 152.278 258.52 152.198C258.453 152.111 258.34 152.044 258.18 151.998ZM259.78 151.958V151.188H262.92C263.053 151.188 263.153 151.214 263.22 151.268C263.293 151.314 263.33 151.388 263.33 151.488C263.33 151.621 263.26 151.734 263.12 151.828C262.986 151.914 262.773 151.958 262.48 151.958H259.78ZM269.346 160.668H268.626C268.466 160.668 268.326 160.628 268.206 160.548C268.093 160.468 268.003 160.331 267.936 160.138L265.346 152.578C265.266 152.331 265.186 152.168 265.106 152.088C265.026 152.008 264.926 151.954 264.806 151.928L264.426 151.848C264.306 151.821 264.223 151.781 264.176 151.728C264.129 151.668 264.106 151.598 264.106 151.518C264.106 151.411 264.143 151.331 264.216 151.278C264.289 151.218 264.393 151.188 264.526 151.188H268.406C268.539 151.188 268.643 151.218 268.716 151.278C268.796 151.331 268.836 151.408 268.836 151.508C268.836 151.594 268.809 151.668 268.756 151.728C268.703 151.781 268.609 151.821 268.476 151.848L268.046 151.918C267.786 151.958 267.633 152.044 267.586 152.178C267.539 152.311 267.579 152.578 267.706 152.978L269.816 159.438L269.366 159.808L271.846 152.498L272.546 153.018L270.026 160.198C269.959 160.378 269.863 160.501 269.736 160.568C269.616 160.634 269.486 160.668 269.346 160.668ZM275.476 160.668H274.786C274.639 160.668 274.503 160.628 274.376 160.548C274.249 160.461 274.156 160.328 274.096 160.148L271.526 152.498C271.453 152.284 271.379 152.144 271.306 152.078C271.233 152.004 271.136 151.954 271.016 151.928L270.626 151.858C270.506 151.824 270.419 151.781 270.366 151.728C270.319 151.674 270.296 151.601 270.296 151.508C270.296 151.294 270.443 151.188 270.736 151.188H274.426C274.706 151.188 274.846 151.298 274.846 151.518C274.846 151.604 274.819 151.674 274.766 151.728C274.713 151.781 274.626 151.818 274.506 151.838L274.026 151.908C273.839 151.934 273.726 152.021 273.686 152.168C273.653 152.308 273.689 152.548 273.796 152.888L275.926 159.458L275.476 159.848L277.656 153.108C277.796 152.681 277.843 152.388 277.796 152.228C277.749 152.068 277.579 151.964 277.286 151.918L276.866 151.848C276.733 151.821 276.639 151.781 276.586 151.728C276.533 151.674 276.506 151.601 276.506 151.508C276.506 151.408 276.543 151.331 276.616 151.278C276.689 151.218 276.793 151.188 276.926 151.188H279.566C279.699 151.188 279.803 151.218 279.876 151.278C279.956 151.331 279.996 151.411 279.996 151.518C279.996 151.591 279.973 151.658 279.926 151.718C279.879 151.771 279.786 151.814 279.646 151.848L279.286 151.908C279.159 151.941 279.046 152.028 278.946 152.168C278.853 152.308 278.746 152.554 278.626 152.908L276.166 160.188C276.099 160.374 276.003 160.501 275.876 160.568C275.749 160.634 275.616 160.668 275.476 160.668ZM286.717 159.338V159.148L286.597 159.088V153.368C286.597 152.788 286.454 152.344 286.167 152.038C285.88 151.731 285.47 151.578 284.937 151.578C284.43 151.578 284.05 151.684 283.797 151.898C283.544 152.104 283.417 152.354 283.417 152.648V153.428C283.417 153.748 283.314 153.994 283.107 154.168C282.9 154.341 282.61 154.428 282.237 154.428C281.917 154.428 281.67 154.344 281.497 154.178C281.33 154.011 281.247 153.784 281.247 153.498C281.247 153.091 281.407 152.698 281.727 152.318C282.047 151.931 282.51 151.614 283.117 151.368C283.724 151.114 284.46 150.988 285.327 150.988C286.454 150.988 287.294 151.231 287.847 151.718C288.4 152.204 288.677 152.858 288.677 153.678V159.078C288.677 159.298 288.717 159.458 288.797 159.558C288.884 159.658 288.997 159.708 289.137 159.708C289.304 159.708 289.424 159.671 289.497 159.598C289.57 159.518 289.63 159.441 289.677 159.368C289.71 159.328 289.744 159.294 289.777 159.268C289.817 159.234 289.86 159.218 289.907 159.218C289.974 159.218 290.024 159.241 290.057 159.288C290.09 159.334 290.107 159.401 290.107 159.488C290.107 159.674 290.04 159.868 289.907 160.068C289.78 160.268 289.59 160.438 289.337 160.578C289.09 160.718 288.777 160.788 288.397 160.788C287.877 160.788 287.467 160.664 287.167 160.418C286.867 160.164 286.717 159.804 286.717 159.338ZM280.797 158.488C280.797 157.701 281.147 157.058 281.847 156.558C282.547 156.051 283.524 155.798 284.777 155.798C285.23 155.798 285.644 155.841 286.017 155.928C286.397 156.008 286.73 156.114 287.017 156.248L286.867 156.768C286.587 156.654 286.3 156.561 286.007 156.488C285.72 156.408 285.407 156.368 285.067 156.368C284.407 156.368 283.89 156.528 283.517 156.848C283.15 157.161 282.967 157.594 282.967 158.148C282.967 158.681 283.117 159.094 283.417 159.388C283.724 159.674 284.114 159.818 284.587 159.818C285.027 159.818 285.45 159.718 285.857 159.518C286.27 159.311 286.624 159.024 286.917 158.658L287.117 159.108C286.73 159.641 286.227 160.054 285.607 160.348C284.987 160.641 284.334 160.788 283.647 160.788C282.807 160.788 282.12 160.581 281.587 160.168C281.06 159.748 280.797 159.188 280.797 158.488ZM294.399 155.358C294.399 154.411 294.539 153.614 294.819 152.968C295.099 152.314 295.462 151.821 295.909 151.488C296.355 151.154 296.829 150.988 297.329 150.988C297.929 150.988 298.392 151.154 298.719 151.488C299.052 151.814 299.219 152.268 299.219 152.848C299.219 153.308 299.119 153.654 298.919 153.888C298.725 154.121 298.475 154.238 298.169 154.238C297.855 154.238 297.612 154.151 297.439 153.978C297.272 153.804 297.189 153.561 297.189 153.248V152.908C297.182 152.681 297.125 152.514 297.019 152.408C296.919 152.294 296.749 152.238 296.509 152.238C296.222 152.238 295.942 152.354 295.669 152.588C295.395 152.814 295.172 153.158 294.999 153.618C294.825 154.078 294.739 154.658 294.739 155.358H294.399ZM294.639 151.568L294.739 153.948V159.208C294.739 159.374 294.775 159.501 294.849 159.588C294.929 159.674 295.059 159.731 295.239 159.758L296.149 159.878C296.282 159.898 296.382 159.938 296.449 159.998C296.515 160.051 296.549 160.131 296.549 160.238C296.549 160.338 296.509 160.418 296.429 160.478C296.355 160.531 296.245 160.558 296.099 160.558H291.869C291.722 160.558 291.612 160.531 291.539 160.478C291.472 160.418 291.439 160.338 291.439 160.238C291.439 160.158 291.465 160.091 291.519 160.038C291.572 159.978 291.655 159.931 291.769 159.898L292.249 159.798C292.382 159.764 292.482 159.704 292.549 159.618C292.615 159.524 292.649 159.391 292.649 159.218V152.978C292.649 152.831 292.622 152.724 292.569 152.658C292.522 152.591 292.442 152.551 292.329 152.538L291.649 152.508C291.535 152.494 291.455 152.464 291.409 152.418C291.362 152.371 291.339 152.311 291.339 152.238C291.339 152.151 291.365 152.081 291.419 152.028C291.479 151.968 291.579 151.914 291.719 151.868L293.379 151.288C293.632 151.194 293.819 151.134 293.939 151.108C294.065 151.074 294.165 151.058 294.239 151.058C294.365 151.058 294.459 151.098 294.519 151.178C294.579 151.258 294.619 151.388 294.639 151.568ZM309.083 154.738C309.083 155.031 308.993 155.258 308.813 155.418C308.64 155.571 308.387 155.648 308.053 155.648H301.663V155.028H306.453C306.773 155.028 306.933 154.884 306.933 154.598C306.933 153.698 306.74 152.998 306.353 152.498C305.973 151.998 305.463 151.748 304.823 151.748C304.317 151.748 303.87 151.894 303.483 152.188C303.103 152.474 302.803 152.884 302.583 153.418C302.37 153.944 302.263 154.568 302.263 155.288C302.263 156.614 302.58 157.621 303.213 158.308C303.847 158.994 304.677 159.338 305.703 159.338C306.363 159.338 306.937 159.188 307.423 158.888C307.91 158.588 308.25 158.188 308.443 157.688C308.523 157.581 308.59 157.508 308.643 157.468C308.703 157.428 308.767 157.408 308.833 157.408C308.92 157.408 308.983 157.444 309.023 157.518C309.063 157.591 309.08 157.681 309.073 157.788C309.033 158.334 308.837 158.838 308.483 159.298C308.13 159.751 307.657 160.114 307.063 160.388C306.47 160.654 305.797 160.788 305.043 160.788C304.11 160.788 303.287 160.594 302.573 160.208C301.867 159.814 301.313 159.264 300.913 158.558C300.52 157.844 300.323 157.011 300.323 156.058C300.323 155.078 300.517 154.208 300.903 153.448C301.29 152.688 301.84 152.088 302.553 151.648C303.267 151.208 304.113 150.988 305.093 150.988C305.907 150.988 306.61 151.148 307.203 151.468C307.803 151.781 308.267 152.221 308.593 152.788C308.92 153.348 309.083 153.998 309.083 154.738Z" fill="white"/>
<g filter="url(#filter1_d_594_57815)">
<rect x="373" y="75.5576" width="250" height="170" rx="12" fill="#080751"/>
</g>
<rect x="387" y="89.5576" width="9" height="9" rx="4.5" fill="#FF5F56"/>
<rect x="401" y="89.5576" width="9" height="9" rx="4.5" fill="#F5A623"/>
<rect x="415" y="89.5576" width="9" height="9" rx="4.5" fill="#22C55E"/>
<path d="M460.676 156.558C460.909 156.558 461.096 156.524 461.236 156.458C461.376 156.391 461.499 156.324 461.606 156.258C461.719 156.191 461.836 156.158 461.956 156.158C462.116 156.158 462.236 156.198 462.316 156.278C462.396 156.358 462.462 156.494 462.516 156.688L463.296 159.568C463.336 159.694 463.322 159.801 463.256 159.888C463.196 159.974 463.106 160.028 462.986 160.048C462.872 160.068 462.769 160.054 462.676 160.008C462.582 159.961 462.506 159.871 462.446 159.738C462.139 159.058 461.856 158.548 461.596 158.208C461.342 157.868 461.069 157.641 460.776 157.528C460.489 157.408 460.142 157.348 459.736 157.348H456.976V169.168C456.976 169.308 457.016 169.424 457.096 169.518C457.182 169.611 457.309 169.671 457.476 169.698L458.496 169.818C458.642 169.838 458.746 169.881 458.806 169.948C458.866 170.008 458.896 170.094 458.896 170.208C458.896 170.314 458.859 170.401 458.786 170.468C458.712 170.528 458.592 170.558 458.426 170.558H453.596C453.436 170.558 453.316 170.528 453.236 170.468C453.162 170.401 453.126 170.314 453.126 170.208C453.126 170.014 453.249 169.884 453.496 169.818L454.166 169.698C454.326 169.658 454.446 169.594 454.526 169.508C454.612 169.421 454.656 169.308 454.656 169.168V157.948C454.656 157.808 454.612 157.694 454.526 157.608C454.446 157.521 454.326 157.458 454.166 157.418L453.496 157.298C453.249 157.231 453.126 157.101 453.126 156.908C453.126 156.794 453.162 156.708 453.236 156.648C453.316 156.588 453.436 156.558 453.596 156.558H460.676ZM455.976 163.498H459.436C459.856 163.498 460.149 163.418 460.316 163.258C460.489 163.091 460.609 162.768 460.676 162.288C460.702 162.168 460.742 162.078 460.796 162.018C460.856 161.958 460.936 161.924 461.036 161.918C461.256 161.891 461.396 162.001 461.456 162.248L462.186 165.138C462.226 165.271 462.226 165.378 462.186 165.458C462.146 165.531 462.072 165.584 461.966 165.618C461.859 165.651 461.759 165.648 461.666 165.608C461.579 165.568 461.499 165.491 461.426 165.378C461.259 165.084 461.106 164.858 460.966 164.698C460.826 164.531 460.666 164.418 460.486 164.358C460.312 164.298 460.086 164.268 459.806 164.268H455.976V163.498ZM469.135 160.988C470.108 160.988 470.968 161.198 471.715 161.618C472.461 162.031 473.041 162.608 473.455 163.348C473.875 164.088 474.085 164.941 474.085 165.908C474.085 166.841 473.871 167.678 473.445 168.418C473.018 169.151 472.428 169.731 471.675 170.158C470.928 170.578 470.058 170.788 469.065 170.788C468.091 170.788 467.231 170.581 466.485 170.168C465.745 169.748 465.165 169.168 464.745 168.428C464.325 167.688 464.115 166.838 464.115 165.878C464.115 164.931 464.328 164.091 464.755 163.358C465.181 162.624 465.768 162.048 466.515 161.628C467.268 161.201 468.141 160.988 469.135 160.988ZM469.825 169.958C470.378 169.878 470.828 169.651 471.175 169.278C471.528 168.904 471.761 168.398 471.875 167.758C471.995 167.118 471.985 166.364 471.845 165.498C471.698 164.624 471.461 163.901 471.135 163.328C470.808 162.754 470.408 162.341 469.935 162.088C469.461 161.828 468.941 161.738 468.375 161.818C467.821 161.898 467.368 162.128 467.015 162.508C466.668 162.881 466.435 163.388 466.315 164.028C466.201 164.661 466.218 165.411 466.365 166.278C466.505 167.144 466.738 167.868 467.065 168.448C467.398 169.021 467.798 169.438 468.265 169.698C468.738 169.951 469.258 170.038 469.825 169.958ZM478.746 165.358C478.746 164.411 478.886 163.614 479.166 162.968C479.446 162.314 479.81 161.821 480.256 161.488C480.703 161.154 481.176 160.988 481.676 160.988C482.276 160.988 482.74 161.154 483.066 161.488C483.4 161.814 483.566 162.268 483.566 162.848C483.566 163.308 483.466 163.654 483.266 163.888C483.073 164.121 482.823 164.238 482.516 164.238C482.203 164.238 481.96 164.151 481.786 163.978C481.62 163.804 481.536 163.561 481.536 163.248V162.908C481.53 162.681 481.473 162.514 481.366 162.408C481.266 162.294 481.096 162.238 480.856 162.238C480.57 162.238 480.29 162.354 480.016 162.588C479.743 162.814 479.52 163.158 479.346 163.618C479.173 164.078 479.086 164.658 479.086 165.358H478.746ZM478.986 161.568L479.086 163.948V169.208C479.086 169.374 479.123 169.501 479.196 169.588C479.276 169.674 479.406 169.731 479.586 169.758L480.496 169.878C480.63 169.898 480.73 169.938 480.796 169.998C480.863 170.051 480.896 170.131 480.896 170.238C480.896 170.338 480.856 170.418 480.776 170.478C480.703 170.531 480.593 170.558 480.446 170.558H476.216C476.07 170.558 475.96 170.531 475.886 170.478C475.82 170.418 475.786 170.338 475.786 170.238C475.786 170.158 475.813 170.091 475.866 170.038C475.92 169.978 476.003 169.931 476.116 169.898L476.596 169.798C476.73 169.764 476.83 169.704 476.896 169.618C476.963 169.524 476.996 169.391 476.996 169.218V162.978C476.996 162.831 476.97 162.724 476.916 162.658C476.87 162.591 476.79 162.551 476.676 162.538L475.996 162.508C475.883 162.494 475.803 162.464 475.756 162.418C475.71 162.371 475.686 162.311 475.686 162.238C475.686 162.151 475.713 162.081 475.766 162.028C475.826 161.968 475.926 161.914 476.066 161.868L477.726 161.288C477.98 161.194 478.166 161.134 478.286 161.108C478.413 161.074 478.513 161.058 478.586 161.058C478.713 161.058 478.806 161.098 478.866 161.178C478.926 161.258 478.966 161.388 478.986 161.568ZM488.051 161.568V169.208C488.051 169.388 488.084 169.521 488.151 169.608C488.218 169.694 488.314 169.758 488.441 169.798L488.901 169.898C489.101 169.964 489.201 170.074 489.201 170.228C489.201 170.448 489.051 170.558 488.751 170.558H485.181C485.034 170.558 484.924 170.531 484.851 170.478C484.784 170.418 484.751 170.338 484.751 170.238C484.751 170.158 484.778 170.091 484.831 170.038C484.884 169.978 484.968 169.931 485.081 169.898L485.561 169.798C485.694 169.758 485.794 169.694 485.861 169.608C485.928 169.521 485.961 169.391 485.961 169.218V162.958C485.961 162.811 485.934 162.708 485.881 162.648C485.834 162.581 485.754 162.541 485.641 162.528L484.961 162.498C484.848 162.478 484.768 162.448 484.721 162.408C484.674 162.361 484.651 162.298 484.651 162.218C484.651 162.138 484.678 162.071 484.731 162.018C484.784 161.958 484.884 161.904 485.031 161.858L486.721 161.268C486.921 161.194 487.084 161.141 487.211 161.108C487.338 161.074 487.454 161.058 487.561 161.058C487.721 161.058 487.841 161.104 487.921 161.198C488.008 161.284 488.051 161.408 488.051 161.568ZM487.771 163.678L487.391 163.298L487.821 162.918C488.621 162.204 489.314 161.704 489.901 161.418C490.488 161.131 491.054 160.988 491.601 160.988C492.434 160.988 493.104 161.251 493.611 161.778C494.118 162.298 494.371 163.011 494.371 163.918V169.168C494.371 169.361 494.408 169.504 494.481 169.598C494.561 169.691 494.668 169.758 494.801 169.798L495.221 169.908C495.421 169.974 495.521 170.081 495.521 170.228C495.521 170.448 495.374 170.558 495.081 170.558H491.541C491.241 170.558 491.091 170.448 491.091 170.228C491.091 170.074 491.191 169.964 491.391 169.898L491.871 169.798C492.011 169.758 492.114 169.691 492.181 169.598C492.248 169.498 492.281 169.354 492.281 169.168V164.238C492.281 163.571 492.118 163.074 491.791 162.748C491.471 162.414 491.038 162.248 490.491 162.248C490.158 162.248 489.801 162.331 489.421 162.498C489.041 162.664 488.634 162.934 488.201 163.308L487.771 163.678ZM494.081 163.678L493.711 163.298L494.141 162.918C494.934 162.204 495.624 161.704 496.211 161.418C496.804 161.131 497.371 160.988 497.911 160.988C498.751 160.988 499.424 161.251 499.931 161.778C500.438 162.298 500.691 163.011 500.691 163.918V169.168C500.691 169.361 500.728 169.508 500.801 169.608C500.874 169.701 500.981 169.764 501.121 169.798L501.541 169.898C501.654 169.931 501.738 169.978 501.791 170.038C501.844 170.091 501.871 170.158 501.871 170.238C501.871 170.338 501.838 170.418 501.771 170.478C501.704 170.531 501.594 170.558 501.441 170.558H497.861C497.561 170.558 497.411 170.448 497.411 170.228C497.411 170.074 497.511 169.964 497.711 169.898L498.181 169.798C498.328 169.758 498.431 169.691 498.491 169.598C498.558 169.498 498.591 169.354 498.591 169.168V164.238C498.591 163.571 498.428 163.074 498.101 162.748C497.781 162.414 497.348 162.248 496.801 162.248C496.468 162.248 496.111 162.331 495.731 162.498C495.358 162.664 494.951 162.934 494.511 163.308L494.081 163.678ZM509.404 169.338V169.148L509.284 169.088V163.368C509.284 162.788 509.141 162.344 508.854 162.038C508.568 161.731 508.158 161.578 507.624 161.578C507.118 161.578 506.738 161.684 506.484 161.898C506.231 162.104 506.104 162.354 506.104 162.648V163.428C506.104 163.748 506.001 163.994 505.794 164.168C505.588 164.341 505.298 164.428 504.924 164.428C504.604 164.428 504.358 164.344 504.184 164.178C504.018 164.011 503.934 163.784 503.934 163.498C503.934 163.091 504.094 162.698 504.414 162.318C504.734 161.931 505.198 161.614 505.804 161.368C506.411 161.114 507.148 160.988 508.014 160.988C509.141 160.988 509.981 161.231 510.534 161.718C511.088 162.204 511.364 162.858 511.364 163.678V169.078C511.364 169.298 511.404 169.458 511.484 169.558C511.571 169.658 511.684 169.708 511.824 169.708C511.991 169.708 512.111 169.671 512.184 169.598C512.258 169.518 512.318 169.441 512.364 169.368C512.398 169.328 512.431 169.294 512.464 169.268C512.504 169.234 512.548 169.218 512.594 169.218C512.661 169.218 512.711 169.241 512.744 169.288C512.778 169.334 512.794 169.401 512.794 169.488C512.794 169.674 512.728 169.868 512.594 170.068C512.468 170.268 512.278 170.438 512.024 170.578C511.778 170.718 511.464 170.788 511.084 170.788C510.564 170.788 510.154 170.664 509.854 170.418C509.554 170.164 509.404 169.804 509.404 169.338ZM503.484 168.488C503.484 167.701 503.834 167.058 504.534 166.558C505.234 166.051 506.211 165.798 507.464 165.798C507.918 165.798 508.331 165.841 508.704 165.928C509.084 166.008 509.418 166.114 509.704 166.248L509.554 166.768C509.274 166.654 508.988 166.561 508.694 166.488C508.408 166.408 508.094 166.368 507.754 166.368C507.094 166.368 506.578 166.528 506.204 166.848C505.838 167.161 505.654 167.594 505.654 168.148C505.654 168.681 505.804 169.094 506.104 169.388C506.411 169.674 506.801 169.818 507.274 169.818C507.714 169.818 508.138 169.718 508.544 169.518C508.958 169.311 509.311 169.024 509.604 168.658L509.804 169.108C509.418 169.641 508.914 170.054 508.294 170.348C507.674 170.641 507.021 170.788 506.334 170.788C505.494 170.788 504.808 170.581 504.274 170.168C503.748 169.748 503.484 169.188 503.484 168.488ZM517.436 156.308V169.208C517.436 169.388 517.469 169.524 517.536 169.618C517.603 169.704 517.699 169.764 517.826 169.798L518.286 169.898C518.399 169.931 518.483 169.974 518.536 170.028C518.596 170.081 518.626 170.151 518.626 170.238C518.626 170.338 518.589 170.418 518.516 170.478C518.443 170.531 518.333 170.558 518.186 170.558H514.566C514.419 170.558 514.309 170.531 514.236 170.478C514.163 170.418 514.126 170.338 514.126 170.238C514.126 170.158 514.153 170.091 514.206 170.038C514.266 169.978 514.353 169.931 514.466 169.898L514.946 169.798C515.073 169.758 515.169 169.694 515.236 169.608C515.303 169.521 515.336 169.391 515.336 169.218V157.708C515.336 157.561 515.313 157.454 515.266 157.388C515.219 157.321 515.139 157.284 515.026 157.278L514.336 157.248C514.229 157.228 514.153 157.194 514.106 157.148C514.059 157.101 514.036 157.041 514.036 156.968C514.036 156.888 514.063 156.821 514.116 156.768C514.169 156.708 514.269 156.654 514.416 156.608L516.096 156.018C516.309 155.938 516.479 155.884 516.606 155.858C516.733 155.824 516.839 155.808 516.926 155.808C517.099 155.808 517.226 155.854 517.306 155.948C517.393 156.034 517.436 156.154 517.436 156.308ZM523.452 161.568V169.208C523.452 169.388 523.482 169.524 523.542 169.618C523.608 169.704 523.708 169.764 523.842 169.798L524.302 169.898C524.415 169.931 524.498 169.974 524.552 170.028C524.612 170.081 524.642 170.151 524.642 170.238C524.642 170.338 524.605 170.418 524.532 170.478C524.458 170.531 524.348 170.558 524.202 170.558H520.572C520.425 170.558 520.315 170.531 520.242 170.478C520.175 170.418 520.142 170.338 520.142 170.238C520.142 170.158 520.168 170.091 520.222 170.038C520.275 169.978 520.358 169.931 520.472 169.898L520.962 169.798C521.088 169.758 521.185 169.694 521.252 169.608C521.318 169.521 521.352 169.391 521.352 169.218V162.958C521.352 162.811 521.325 162.708 521.272 162.648C521.225 162.581 521.145 162.541 521.032 162.528L520.352 162.498C520.245 162.478 520.165 162.448 520.112 162.408C520.065 162.361 520.042 162.298 520.042 162.218C520.042 162.138 520.068 162.071 520.122 162.018C520.182 161.958 520.282 161.904 520.422 161.858L522.112 161.268C522.325 161.194 522.492 161.141 522.612 161.108C522.738 161.074 522.848 161.058 522.942 161.058C523.108 161.058 523.235 161.104 523.322 161.198C523.408 161.284 523.452 161.408 523.452 161.568ZM522.182 159.208C521.755 159.208 521.408 159.091 521.142 158.858C520.875 158.618 520.742 158.311 520.742 157.938C520.742 157.564 520.875 157.261 521.142 157.028C521.408 156.794 521.755 156.678 522.182 156.678C522.615 156.678 522.965 156.794 523.232 157.028C523.498 157.261 523.632 157.564 523.632 157.938C523.632 158.311 523.498 158.618 523.232 158.858C522.965 159.091 522.615 159.208 522.182 159.208ZM533.729 162.158L527.989 170.248L527.619 169.868H531.019C531.339 169.868 531.599 169.834 531.799 169.768C531.999 169.701 532.182 169.574 532.349 169.388C532.522 169.201 532.712 168.928 532.919 168.568L533.379 167.728C533.452 167.608 533.529 167.528 533.609 167.488C533.689 167.448 533.775 167.434 533.869 167.448C533.982 167.461 534.059 167.508 534.099 167.588C534.145 167.661 534.155 167.761 534.129 167.888L533.539 170.388C533.499 170.554 533.445 170.671 533.379 170.738C533.319 170.804 533.239 170.838 533.139 170.838C533.012 170.838 532.879 170.791 532.739 170.698C532.605 170.604 532.402 170.558 532.129 170.558H526.409C526.195 170.558 526.045 170.528 525.959 170.468C525.872 170.408 525.829 170.324 525.829 170.218C525.829 170.131 525.849 170.041 525.889 169.948C525.929 169.848 526.002 169.728 526.109 169.588L531.809 161.558L532.139 161.878H528.889C528.615 161.878 528.382 161.911 528.189 161.978C528.002 162.038 527.835 162.151 527.689 162.318C527.542 162.484 527.389 162.718 527.229 163.018L526.869 163.708C526.809 163.828 526.739 163.908 526.659 163.948C526.585 163.988 526.495 163.998 526.389 163.978C526.289 163.958 526.212 163.908 526.159 163.828C526.112 163.741 526.102 163.634 526.129 163.508L526.589 161.398C526.622 161.224 526.672 161.104 526.739 161.038C526.812 160.964 526.902 160.928 527.009 160.928C527.142 160.928 527.272 160.971 527.399 161.058C527.532 161.144 527.729 161.188 527.989 161.188H533.429C533.642 161.188 533.789 161.218 533.869 161.278C533.955 161.331 533.999 161.414 533.999 161.528C533.999 161.608 533.979 161.698 533.939 161.798C533.899 161.891 533.829 162.011 533.729 162.158ZM544.212 164.738C544.212 165.031 544.122 165.258 543.942 165.418C543.769 165.571 543.516 165.648 543.182 165.648H536.792V165.028H541.582C541.902 165.028 542.062 164.884 542.062 164.598C542.062 163.698 541.869 162.998 541.482 162.498C541.102 161.998 540.592 161.748 539.952 161.748C539.446 161.748 538.999 161.894 538.612 162.188C538.232 162.474 537.932 162.884 537.712 163.418C537.499 163.944 537.392 164.568 537.392 165.288C537.392 166.614 537.709 167.621 538.342 168.308C538.976 168.994 539.806 169.338 540.832 169.338C541.492 169.338 542.066 169.188 542.552 168.888C543.039 168.588 543.379 168.188 543.572 167.688C543.652 167.581 543.719 167.508 543.772 167.468C543.832 167.428 543.896 167.408 543.962 167.408C544.049 167.408 544.112 167.444 544.152 167.518C544.192 167.591 544.209 167.681 544.202 167.788C544.162 168.334 543.966 168.838 543.612 169.298C543.259 169.751 542.786 170.114 542.192 170.388C541.599 170.654 540.926 170.788 540.172 170.788C539.239 170.788 538.416 170.594 537.702 170.208C536.996 169.814 536.442 169.264 536.042 168.558C535.649 167.844 535.452 167.011 535.452 166.058C535.452 165.078 535.646 164.208 536.032 163.448C536.419 162.688 536.969 162.088 537.682 161.648C538.396 161.208 539.242 160.988 540.222 160.988C541.036 160.988 541.739 161.148 542.332 161.468C542.932 161.781 543.396 162.221 543.722 162.788C544.049 163.348 544.212 163.998 544.212 164.738Z" fill="white"/>
<path d="M737.5 127.5C712.5 135 659.5 101.058 643 94.0577C626.5 87.0577 629 56.0577 597 43.0577C565 30.0577 525.5 52.0576 504 56.5576C482.5 61.0576 409 66.5576 408.5 61.0577" stroke="#94A3B8" stroke-width="2" stroke-dasharray="5 6"/>
<rect x="738.75" y="94.75" width="118.5" height="88.5" rx="9.25" fill="#F0F3F7" stroke="#94A3B8" stroke-width="1.5" stroke-dasharray="6 5"/>
<path d="M803.718 139.662C802.678 139.662 802.063 139.567 801.872 139.376C801.785 139.289 801.534 139.125 801.118 138.882C800.719 138.639 800.139 138.327 799.376 137.946C799.203 137.859 798.891 137.695 798.44 137.452C797.989 137.192 797.461 136.915 796.854 136.62C796.767 136.568 796.62 136.49 796.412 136.386C796.221 136.282 796.022 136.178 795.814 136.074C795.606 135.953 795.45 135.866 795.346 135.814L794.878 135.58C794.843 135.563 794.791 135.537 794.722 135.502C794.653 135.467 794.575 135.424 794.488 135.372L793.76 135.008C793.639 134.939 793.5 134.861 793.344 134.774C793.205 134.687 793.058 134.609 792.902 134.54L789.47 132.72C789.331 132.321 789.21 131.957 789.106 131.628C789.002 131.299 788.933 131.004 788.898 130.744C788.863 130.484 788.794 130.163 788.69 129.782C788.586 129.401 788.465 128.959 788.326 128.456C788.534 128.005 788.725 127.615 788.898 127.286C789.071 126.939 789.227 126.671 789.366 126.48C789.47 126.341 789.583 126.185 789.704 126.012C789.825 125.821 789.99 125.561 790.198 125.232C790.285 125.111 790.363 124.981 790.432 124.842C790.519 124.686 790.597 124.539 790.666 124.4C790.805 124.365 790.987 124.313 791.212 124.244C791.437 124.175 791.611 124.131 791.732 124.114C792.027 124.062 792.365 123.975 792.746 123.854C793.127 123.733 793.431 123.637 793.656 123.568C793.899 123.481 794.202 123.395 794.566 123.308L796.464 124.478C796.88 124.738 797.279 124.963 797.66 125.154C798.041 125.345 798.405 125.553 798.752 125.778L799.48 126.246C800 126.575 800.399 126.835 800.676 127.026C800.971 127.217 801.153 127.347 801.222 127.416C801.291 127.485 801.43 127.581 801.638 127.702C801.846 127.823 802.123 127.988 802.47 128.196C802.99 128.508 803.51 128.82 804.03 129.132C804.567 129.427 805.096 129.73 805.616 130.042C805.945 130.25 806.214 130.432 806.422 130.588C806.63 130.761 806.881 131.013 807.176 131.342C807.471 131.654 807.722 131.983 807.93 132.33L809.36 134.722C810.105 135.97 810.669 136.923 811.05 137.582C811.449 138.241 811.657 138.613 811.674 138.7C811.726 138.856 811.752 138.977 811.752 139.064C811.752 139.255 811.665 139.385 811.492 139.454C811.336 139.523 811.137 139.558 810.894 139.558C810.599 139.558 810.296 139.567 809.984 139.584C809.672 139.584 809.369 139.584 809.074 139.584L804.446 139.636C804.325 139.636 804.203 139.645 804.082 139.662C803.961 139.662 803.839 139.662 803.718 139.662ZM790.25 131.784C790.285 131.784 790.319 131.784 790.354 131.784C790.389 131.767 790.423 131.758 790.458 131.758L790.978 131.68C791.186 131.68 791.515 131.567 791.966 131.342C792.174 131.238 792.443 131.125 792.772 131.004C793.101 130.865 793.318 130.796 793.422 130.796C793.457 130.761 793.543 130.623 793.682 130.38C793.838 130.12 793.925 129.955 793.942 129.886L794.072 129.548C794.141 129.357 794.219 129.201 794.306 129.08C794.41 128.941 794.497 128.829 794.566 128.742C794.722 128.551 794.852 128.369 794.956 128.196C795.008 128.109 795.069 128.014 795.138 127.91C795.225 127.789 795.329 127.659 795.45 127.52C795.433 127.451 795.389 127.321 795.32 127.13C795.251 126.939 795.147 126.688 795.008 126.376C794.748 125.752 794.583 125.336 794.514 125.128L794.254 124.296L793.552 124.556C793.379 124.625 793.205 124.695 793.032 124.764C792.859 124.816 792.729 124.851 792.642 124.868L791.342 125.232C791.307 125.284 791.221 125.414 791.082 125.622C790.961 125.813 790.883 125.934 790.848 125.986L790.094 127.182C789.973 127.39 789.834 127.624 789.678 127.884C789.522 128.127 789.366 128.369 789.21 128.612L789.574 129.834C789.643 130.059 789.704 130.233 789.756 130.354C789.808 130.458 789.851 130.571 789.886 130.692L790.25 131.784ZM805.954 132.98V131.212L804.186 130.068C804.065 129.981 803.917 129.895 803.744 129.808C803.571 129.704 803.389 129.609 803.198 129.522L802.678 129.262C802.609 129.227 802.539 129.193 802.47 129.158C802.401 129.123 802.349 129.097 802.314 129.08L800.312 127.806C800.191 127.719 800.078 127.65 799.974 127.598C799.887 127.546 799.818 127.503 799.766 127.468L795.294 124.66L795.528 125.258C795.58 125.397 795.632 125.544 795.684 125.7C795.736 125.839 795.762 125.943 795.762 126.012C795.762 126.081 795.788 126.22 795.84 126.428C795.909 126.636 795.987 126.844 796.074 127.052C796.161 127.243 796.221 127.39 796.256 127.494C796.343 127.615 796.551 127.771 796.88 127.962C797.071 128.049 797.227 128.135 797.348 128.222C797.469 128.309 797.565 128.395 797.634 128.482C797.79 128.638 797.972 128.785 798.18 128.924L798.492 129.132C798.596 129.201 798.7 129.262 798.804 129.314C798.925 129.366 799.021 129.409 799.09 129.444C799.402 129.548 799.601 129.626 799.688 129.678C799.792 129.73 799.974 129.834 800.234 129.99C800.338 130.059 800.451 130.129 800.572 130.198C800.693 130.25 800.823 130.302 800.962 130.354C801.187 130.423 801.395 130.519 801.586 130.64C801.794 130.761 802.123 130.969 802.574 131.264L804.238 132.044C804.411 132.113 804.567 132.191 804.706 132.278C804.845 132.347 804.957 132.408 805.044 132.46L805.954 132.98ZM791.81 129.704C791.55 129.704 791.333 129.583 791.16 129.34C791.004 129.08 790.926 128.785 790.926 128.456C790.926 128.075 791.03 127.711 791.238 127.364C791.446 127 791.689 126.705 791.966 126.48C792.261 126.237 792.538 126.116 792.798 126.116C793.11 126.116 793.344 126.22 793.5 126.428C793.656 126.636 793.734 126.913 793.734 127.26C793.734 127.416 793.673 127.633 793.552 127.91C793.431 128.17 793.275 128.439 793.084 128.716C792.893 128.993 792.685 129.227 792.46 129.418C792.235 129.609 792.018 129.704 791.81 129.704ZM804.134 136.672C804.481 136.395 804.741 136.143 804.914 135.918C805.105 135.693 805.226 135.493 805.278 135.32C805.33 135.147 805.373 134.982 805.408 134.826C805.46 134.67 805.521 134.531 805.59 134.41L805.746 134.072C805.469 133.899 805.2 133.734 804.94 133.578C804.697 133.405 804.455 133.231 804.212 133.058C804.021 132.989 803.865 132.928 803.744 132.876C803.64 132.824 803.493 132.737 803.302 132.616L802.782 132.252C802.175 131.819 801.768 131.602 801.56 131.602C801.352 131.602 801.066 131.472 800.702 131.212L799.506 130.328C799.402 130.241 799.255 130.163 799.064 130.094C798.873 130.007 798.553 129.886 798.102 129.73C797.79 129.609 797.547 129.479 797.374 129.34C797.27 129.253 797.166 129.184 797.062 129.132C796.975 129.08 796.889 129.028 796.802 128.976L796.438 128.768C796.369 128.716 796.291 128.673 796.204 128.638C796.135 128.603 796.057 128.56 795.97 128.508C795.641 128.889 795.476 129.141 795.476 129.262C795.476 129.401 795.381 129.617 795.19 129.912L794.462 131.004L794.8 131.238C794.991 131.377 795.19 131.489 795.398 131.576L795.736 131.732C796.117 131.923 796.438 132.113 796.698 132.304C796.837 132.391 796.949 132.469 797.036 132.538C797.123 132.607 797.201 132.659 797.27 132.694L800.598 134.54C800.719 134.609 800.875 134.705 801.066 134.826C801.257 134.947 801.456 135.077 801.664 135.216L803.224 136.204C803.293 136.239 803.363 136.282 803.432 136.334C803.519 136.369 803.597 136.403 803.666 136.438L804.134 136.672ZM802.21 138.388L803.458 137.348C803.406 137.313 803.354 137.287 803.302 137.27C803.25 137.235 803.207 137.201 803.172 137.166C803.12 137.131 803.068 137.097 803.016 137.062C802.964 137.027 802.903 136.993 802.834 136.958L802.574 136.776C802.539 136.741 802.418 136.663 802.21 136.542L800.65 135.606C800.598 135.571 800.503 135.519 800.364 135.45C800.243 135.363 800.078 135.285 799.87 135.216C799.593 135.112 799.35 134.999 799.142 134.878C798.951 134.757 798.761 134.653 798.57 134.566C798.466 134.445 798.371 134.349 798.284 134.28C798.215 134.211 798.154 134.141 798.102 134.072C798.015 133.985 797.825 133.881 797.53 133.76L797.192 133.63C796.811 133.491 796.507 133.309 796.282 133.084C796.022 132.824 795.814 132.685 795.658 132.668C795.45 132.651 795.225 132.555 794.982 132.382C794.705 132.191 794.462 132.044 794.254 131.94C794.046 131.819 793.838 131.715 793.63 131.628C793.561 131.663 793.396 131.715 793.136 131.784C792.893 131.853 792.729 131.897 792.642 131.914C792.469 131.931 792.304 131.975 792.148 132.044C792.009 132.113 791.845 132.191 791.654 132.278L791.186 132.512C791.637 132.789 792.061 133.058 792.46 133.318C792.876 133.578 793.309 133.812 793.76 134.02L794.566 134.384C794.653 134.419 794.748 134.462 794.852 134.514C794.956 134.566 795.06 134.609 795.164 134.644C795.251 134.679 795.381 134.739 795.554 134.826C795.745 134.913 795.97 135.025 796.23 135.164L797.79 135.996C798.05 136.135 798.31 136.282 798.57 136.438C798.83 136.594 799.09 136.741 799.35 136.88C799.523 136.967 799.688 137.062 799.844 137.166C800 137.27 800.165 137.365 800.338 137.452C800.529 137.556 800.797 137.703 801.144 137.894C801.508 138.067 801.863 138.232 802.21 138.388ZM803.302 138.726C803.371 138.726 803.51 138.726 803.718 138.726C803.943 138.709 804.195 138.7 804.472 138.7C804.784 138.7 805.105 138.7 805.434 138.7C805.781 138.683 806.153 138.674 806.552 138.674C807.003 138.674 807.445 138.683 807.878 138.7C808.311 138.7 808.745 138.7 809.178 138.7C809.386 138.7 809.585 138.553 809.776 138.258C809.967 137.946 810.062 137.695 810.062 137.504C810.062 137.417 809.984 137.244 809.828 136.984C809.689 136.724 809.525 136.464 809.334 136.204L808.97 135.684C808.831 135.476 808.658 135.216 808.45 134.904C808.242 134.592 808.069 134.297 807.93 134.02L807.722 133.604C807.67 133.5 807.592 133.37 807.488 133.214C807.384 133.041 807.28 132.885 807.176 132.746L806.786 132.2L806.734 132.512C806.717 132.616 806.708 132.72 806.708 132.824C806.708 132.928 806.708 133.041 806.708 133.162V133.318C806.725 133.353 806.734 133.396 806.734 133.448C806.734 133.535 806.821 133.725 806.994 134.02C807.081 134.159 807.167 134.306 807.254 134.462C807.341 134.618 807.445 134.783 807.566 134.956C807.393 134.817 807.211 134.696 807.02 134.592C806.847 134.488 806.708 134.436 806.604 134.436C806.448 134.436 806.37 134.54 806.37 134.748C806.37 134.921 806.526 135.19 806.838 135.554C807.15 135.901 807.479 136.239 807.826 136.568C807.739 136.533 807.644 136.507 807.54 136.49C807.453 136.473 807.367 136.455 807.28 136.438L806.708 136.204C806.639 136.169 806.526 136.143 806.37 136.126C806.214 136.109 806.084 136.1 805.98 136.1C805.72 136.1 805.503 136.195 805.33 136.386C805.157 136.577 805.07 136.741 805.07 136.88C805.07 137.036 805.131 137.183 805.252 137.322C805.391 137.443 805.573 137.591 805.798 137.764C805.607 137.764 805.451 137.773 805.33 137.79C805.226 137.79 805.139 137.79 805.07 137.79C804.983 137.79 804.888 137.799 804.784 137.816C804.697 137.816 804.602 137.816 804.498 137.816C804.169 137.816 803.883 137.911 803.64 138.102C803.397 138.293 803.198 138.492 803.042 138.7L803.302 138.726Z" fill="#94A3B8"/>
<path d="M780.624 153.66C781.512 153.66 782.288 153.832 782.952 154.176C783.624 154.512 784.14 155 784.5 155.64C784.868 156.272 785.052 157.012 785.052 157.86C785.052 158.708 784.868 159.444 784.5 160.068C784.14 160.692 783.624 161.172 782.952 161.508C782.288 161.836 781.512 162 780.624 162H777.9V153.66H780.624ZM780.624 160.884C781.6 160.884 782.348 160.62 782.868 160.092C783.388 159.564 783.648 158.82 783.648 157.86C783.648 156.892 783.388 156.136 782.868 155.592C782.348 155.048 781.6 154.776 780.624 154.776H779.268V160.884H780.624ZM792.468 158.532C792.468 158.78 792.452 159.004 792.42 159.204H787.368C787.408 159.732 787.604 160.156 787.956 160.476C788.308 160.796 788.74 160.956 789.252 160.956C789.988 160.956 790.508 160.648 790.812 160.032H792.288C792.088 160.64 791.724 161.14 791.196 161.532C790.676 161.916 790.028 162.108 789.252 162.108C788.62 162.108 788.052 161.968 787.548 161.688C787.052 161.4 786.66 161 786.372 160.488C786.092 159.968 785.952 159.368 785.952 158.688C785.952 158.008 786.088 157.412 786.36 156.9C786.64 156.38 787.028 155.98 787.524 155.7C788.028 155.42 788.604 155.28 789.252 155.28C789.876 155.28 790.432 155.416 790.92 155.688C791.408 155.96 791.788 156.344 792.06 156.84C792.332 157.328 792.468 157.892 792.468 158.532ZM791.04 158.1C791.032 157.596 790.852 157.192 790.5 156.888C790.148 156.584 789.712 156.432 789.192 156.432C788.72 156.432 788.316 156.584 787.98 156.888C787.644 157.184 787.444 157.588 787.38 158.1H791.04ZM796.214 162.108C795.694 162.108 795.226 162.016 794.81 161.832C794.402 161.64 794.078 161.384 793.838 161.064C793.598 160.736 793.47 160.372 793.454 159.972H794.87C794.894 160.252 795.026 160.488 795.266 160.68C795.514 160.864 795.822 160.956 796.19 160.956C796.574 160.956 796.87 160.884 797.078 160.74C797.294 160.588 797.402 160.396 797.402 160.164C797.402 159.916 797.282 159.732 797.042 159.612C796.81 159.492 796.438 159.36 795.926 159.216C795.43 159.08 795.026 158.948 794.714 158.82C794.402 158.692 794.13 158.496 793.898 158.232C793.674 157.968 793.562 157.62 793.562 157.188C793.562 156.836 793.666 156.516 793.874 156.228C794.082 155.932 794.378 155.7 794.762 155.532C795.154 155.364 795.602 155.28 796.106 155.28C796.858 155.28 797.462 155.472 797.918 155.856C798.382 156.232 798.63 156.748 798.662 157.404H797.294C797.27 157.108 797.15 156.872 796.934 156.696C796.718 156.52 796.426 156.432 796.058 156.432C795.698 156.432 795.422 156.5 795.23 156.636C795.038 156.772 794.942 156.952 794.942 157.176C794.942 157.352 795.006 157.5 795.134 157.62C795.262 157.74 795.418 157.836 795.602 157.908C795.786 157.972 796.058 158.056 796.418 158.16C796.898 158.288 797.29 158.42 797.594 158.556C797.906 158.684 798.174 158.876 798.398 159.132C798.622 159.388 798.738 159.728 798.746 160.152C798.746 160.528 798.642 160.864 798.434 161.16C798.226 161.456 797.93 161.688 797.546 161.856C797.17 162.024 796.726 162.108 796.214 162.108ZM800.92 154.512C800.672 154.512 800.464 154.428 800.296 154.26C800.128 154.092 800.044 153.884 800.044 153.636C800.044 153.388 800.128 153.18 800.296 153.012C800.464 152.844 800.672 152.76 800.92 152.76C801.16 152.76 801.364 152.844 801.532 153.012C801.7 153.18 801.784 153.388 801.784 153.636C801.784 153.884 801.7 154.092 801.532 154.26C801.364 154.428 801.16 154.512 800.92 154.512ZM801.592 155.388V162H800.224V155.388H801.592ZM806.052 155.28C806.564 155.28 807.016 155.384 807.408 155.592C807.808 155.792 808.12 156.044 808.344 156.348V155.388H809.724V162.108C809.724 162.716 809.596 163.256 809.34 163.728C809.084 164.208 808.712 164.584 808.224 164.856C807.744 165.128 807.168 165.264 806.496 165.264C805.6 165.264 804.856 165.052 804.264 164.628C803.672 164.212 803.336 163.644 803.256 162.924H804.612C804.716 163.268 804.936 163.544 805.272 163.752C805.616 163.968 806.024 164.076 806.496 164.076C807.048 164.076 807.492 163.908 807.828 163.572C808.172 163.236 808.344 162.748 808.344 162.108V161.004C808.112 161.316 807.796 161.58 807.396 161.796C807.004 162.004 806.556 162.108 806.052 162.108C805.476 162.108 804.948 161.964 804.468 161.676C803.996 161.38 803.62 160.972 803.34 160.452C803.068 159.924 802.932 159.328 802.932 158.664C802.932 158 803.068 157.412 803.34 156.9C803.62 156.388 803.996 155.992 804.468 155.712C804.948 155.424 805.476 155.28 806.052 155.28ZM808.344 158.688C808.344 158.232 808.248 157.836 808.056 157.5C807.872 157.164 807.628 156.908 807.324 156.732C807.02 156.556 806.692 156.468 806.34 156.468C805.988 156.468 805.66 156.556 805.356 156.732C805.052 156.9 804.804 157.152 804.612 157.488C804.428 157.816 804.336 158.208 804.336 158.664C804.336 159.12 804.428 159.52 804.612 159.864C804.804 160.208 805.052 160.472 805.356 160.656C805.668 160.832 805.996 160.92 806.34 160.92C806.692 160.92 807.02 160.832 807.324 160.656C807.628 160.48 807.872 160.224 808.056 159.888C808.248 159.544 808.344 159.144 808.344 158.688ZM814.857 155.28C815.377 155.28 815.841 155.388 816.249 155.604C816.665 155.82 816.989 156.14 817.221 156.564C817.453 156.988 817.569 157.5 817.569 158.1V162H816.213V158.304C816.213 157.712 816.065 157.26 815.769 156.948C815.473 156.628 815.069 156.468 814.557 156.468C814.045 156.468 813.637 156.628 813.333 156.948C813.037 157.26 812.889 157.712 812.889 158.304V162H811.521V155.388H812.889V156.144C813.113 155.872 813.397 155.66 813.741 155.508C814.093 155.356 814.465 155.28 814.857 155.28Z" fill="#94A3B8"/>
<path d="M634.5 176.5C686 176.5 684.5 145.5 736 145.5" stroke="#94A3B8" stroke-width="2" stroke-dasharray="5 6"/>
<defs>
<filter id="filter0_d_594_57815" x="115" y="33.5576" width="306" height="226" filterUnits="userSpaceOnUse" color-interpolation-filters="sRGB">
<feFlood flood-opacity="0" result="BackgroundImageFix"/>
<feColorMatrix in="SourceAlpha" type="matrix" values="0 0 0 0 0 0 0 0 0 0 0 0 0 0 0 0 0 0 127 0" result="hardAlpha"/>
<feOffset dy="10"/>
<feGaussianBlur stdDeviation="14"/>
<feColorMatrix type="matrix" values="0 0 0 0 0 0 0 0 0 0 0 0 0 0 0 0 0 0 0.18 0"/>
<feBlend mode="normal" in2="BackgroundImageFix" result="effect1_dropShadow_594_57815"/>
<feBlend mode="normal" in="SourceGraphic" in2="effect1_dropShadow_594_57815" result="shape"/>
</filter>
<filter id="filter1_d_594_57815" x="345" y="57.5576" width="306" height="226" filterUnits="userSpaceOnUse" color-interpolation-filters="sRGB">
<feFlood flood-opacity="0" result="BackgroundImageFix"/>
<feColorMatrix in="SourceAlpha" type="matrix" values="0 0 0 0 0 0 0 0 0 0 0 0 0 0 0 0 0 0 127 0" result="hardAlpha"/>
<feOffset dy="10"/>
<feGaussianBlur stdDeviation="14"/>
<feColorMatrix type="matrix" values="0 0 0 0 0 0 0 0 0 0 0 0 0 0 0 0 0 0 0.18 0"/>
<feBlend mode="normal" in2="BackgroundImageFix" result="effect1_dropShadow_594_57815"/>
<feBlend mode="normal" in="SourceGraphic" in2="effect1_dropShadow_594_57815" result="shape"/>
</filter>
</defs>
</svg>
