<svg width="390" height="80" viewBox="0 0 390 80" fill="none" xmlns="http://www.w3.org/2000/svg">
<g clip-path="url(#clip0_421_10546)">
<path d="M80 72H310V80H80V72Z" fill="#B6DFF4"/>
<path d="M310 72H388C389.105 72 390 72.8954 390 74V78C390 79.1046 389.105 80 388 80H310V72Z" fill="#8F9FAA"/>
<path d="M80 80L2 80C0.895432 80 -7.8281e-08 79.1046 -1.74846e-07 78L-5.24537e-07 74C-6.21102e-07 72.8954 0.895431 72 2 72L80 72L80 80Z" fill="#8F9FAA"/>
<path d="M143.668 48.2258V37H138.923L135.884 48.2258H143.668Z" fill="#A2CFE5"/>
<path d="M179.124 55.5598V51.389C179.125 51.2624 179.177 51.1414 179.267 51.0524C179.357 50.9634 179.478 50.9134 179.605 50.9135H194.831C194.957 50.9135 195.078 50.9636 195.167 51.0527C195.256 51.1419 195.306 51.2628 195.306 51.389V55.5598H179.124Z" fill="#828695"/>
<path d="M179.124 50.4178V46.252C179.124 46.1245 179.175 46.0023 179.265 45.9121C179.355 45.822 179.477 45.7714 179.605 45.7714H194.831C194.957 45.7727 195.078 45.824 195.167 45.914C195.256 46.004 195.306 46.1254 195.306 46.252V50.4178H179.124Z" fill="#828695"/>
<path d="M179.124 45.2793V41.1136C179.124 40.9861 179.175 40.8639 179.265 40.7737C179.355 40.6836 179.477 40.6329 179.605 40.6329H194.831C194.957 40.6343 195.078 40.6855 195.167 40.7755C195.256 40.8655 195.306 40.987 195.306 41.1136V45.2793H179.124Z" fill="#828695"/>
<path d="M162.355 60.6968V56.5259C162.357 56.3993 162.408 56.2784 162.498 56.1894C162.588 56.1003 162.709 56.0504 162.836 56.0504H178.062C178.188 56.0504 178.309 56.1005 178.398 56.1897C178.487 56.2789 178.537 56.3998 178.537 56.5259V60.6968H162.355Z" fill="#828695"/>
<path d="M162.355 55.5598V51.389C162.357 51.2624 162.408 51.1414 162.498 51.0524C162.588 50.9634 162.709 50.9134 162.836 50.9135H178.062C178.188 50.9135 178.309 50.9636 178.398 51.0527C178.487 51.1419 178.537 51.2628 178.537 51.389V55.5598H162.355Z" fill="#828695"/>
<path d="M179.124 60.6968V56.5311C179.124 56.4036 179.175 56.2813 179.265 56.1912C179.355 56.1011 179.477 56.0504 179.605 56.0504H194.831C194.894 56.0504 194.956 56.0629 195.014 56.0871C195.072 56.1113 195.125 56.1468 195.169 56.1915C195.213 56.2362 195.248 56.2892 195.272 56.3475C195.295 56.4058 195.307 56.4682 195.306 56.5311V60.6968H179.124Z" fill="#828695"/>
<path d="M195.89 55.5599V51.389C195.892 51.2624 195.943 51.1415 196.033 51.0524C196.123 50.9634 196.245 50.9135 196.371 50.9135H211.592C211.655 50.9128 211.717 50.9246 211.776 50.9482C211.834 50.9718 211.887 51.0067 211.932 51.0509C211.976 51.0951 212.012 51.1478 212.036 51.2058C212.06 51.2638 212.073 51.3261 212.073 51.389V55.5599H195.89Z" fill="#828695"/>
<path d="M212.655 55.5599V51.389C212.656 51.2624 212.707 51.1415 212.797 51.0524C212.887 50.9634 213.009 50.9135 213.135 50.9135H228.356C228.419 50.9128 228.482 50.9246 228.54 50.9482C228.598 50.9718 228.651 51.0067 228.696 51.0509C228.741 51.0951 228.776 51.1478 228.8 51.2058C228.824 51.2638 228.837 51.3261 228.837 51.389V55.5599H212.655Z" fill="#828695"/>
<path d="M195.89 50.4178V46.252C195.89 46.1245 195.941 46.0023 196.031 45.9121C196.121 45.822 196.244 45.7714 196.371 45.7714H211.592C211.72 45.7714 211.842 45.822 211.932 45.9121C212.022 46.0023 212.073 46.1245 212.073 46.252V50.4178H195.89Z" fill="#828695"/>
<path d="M195.89 60.6968V56.5311C195.89 56.4036 195.941 56.2814 196.031 56.1912C196.121 56.1011 196.244 56.0504 196.371 56.0504H211.592C211.655 56.0498 211.718 56.0617 211.777 56.0856C211.835 56.1095 211.889 56.1449 211.933 56.1897C211.978 56.2345 212.014 56.2877 212.038 56.3464C212.061 56.405 212.073 56.4678 212.073 56.5311V60.6968H195.89Z" fill="#828695"/>
<path d="M212.655 60.6968V56.5311C212.655 56.4036 212.705 56.2814 212.795 56.1912C212.886 56.1011 213.008 56.0504 213.135 56.0504H228.356C228.42 56.0498 228.482 56.0617 228.541 56.0856C228.6 56.1095 228.653 56.1449 228.698 56.1897C228.742 56.2345 228.778 56.2877 228.802 56.3464C228.826 56.405 228.838 56.4678 228.837 56.5311V60.6968H212.655Z" fill="#828695"/>
<path d="M145.403 48.2212H151.502V43.0683H145.403V48.2212Z" fill="#D0D0CF"/>
<path d="M131.869 53.2136V48.4069C131.873 48.1989 131.958 48.0007 132.105 47.8541C132.253 47.7074 132.452 47.624 132.66 47.6213H152.015C152.227 47.6227 152.43 47.7075 152.58 47.8575C152.73 48.0074 152.815 48.2104 152.817 48.4224V53.2291L131.869 53.2136Z" fill="#D0D0CF"/>
<path d="M151.865 43.0677H145.414V41.6671H152.826V42.1064C152.826 42.3614 152.725 42.6059 152.544 42.7862C152.364 42.9665 152.119 43.0677 151.865 43.0677V43.0677Z" fill="#D0D0CF"/>
<path d="M136.67 45.3162H143.668V39.264H138.314L136.67 45.3162Z" fill="#A2CFE5"/>
<path d="M139.977 42.1376L139.011 40.923L140.406 41.5949L140.753 40.0857H140.758L141.099 41.5949L142.494 40.923H142.5L141.533 42.1376L142.923 42.8043V42.8094H141.378L141.724 44.3186H141.719L140.753 43.1092L139.786 44.3186L140.127 42.8094H138.582V42.8043L139.977 42.1376Z" fill="white"/>
<path d="M158.413 53.3731C158.413 54.7686 158.413 57.5802 158.413 58.8774C158.413 60.6399 160.569 60.6812 160.569 60.6812H228.43C232.523 60.6812 233.536 56.7377 233.769 55.2492C233.806 55.0724 233.909 54.9162 234.056 54.8118C234.204 54.7074 234.385 54.6624 234.565 54.6859L261.957 54.7272L251.202 65.3896C254.029 66.5112 255.528 68.9042 255.528 72H135.295C135.295 64.4903 129.155 65.9737 129 52.5461H157.628C158.248 52.5461 158.408 52.8666 158.413 53.3731" fill="#42B0D5"/>
<path d="M354.467 49.9382H346.838V49.4763C346.838 48.9035 347.3 48.4416 347.873 48.4416H348.556L365.05 42.4366V42.1594C365.05 41.9377 365.697 41.9562 365.697 42.1594V42.3996L378.571 48.4416H378.996V49.9198H377.74V50.8067C377.758 51.0838 377.555 51.324 377.278 51.3425C377.241 51.3425 377.204 51.3425 377.185 51.3425H375.523V49.9198H373.417V66.6968C373.953 66.7153 374.396 67.1033 374.507 67.6207C375.006 67.6207 375.505 67.6207 375.966 67.6207V66.2719C375.966 66.1795 376.04 66.1241 376.114 66.1056H377.666C377.74 66.1056 377.813 66.161 377.813 66.2349V66.2534V67.6022H378.146V66.2534C378.146 66.161 378.22 66.1056 378.294 66.0871H379.845C379.919 66.0871 379.993 66.1425 379.993 66.2164C379.993 66.2164 379.993 66.2164 379.993 66.2349V67.5837H380.325V66.2349C380.325 66.1425 380.399 66.0871 380.473 66.0686H382.025C382.099 66.0686 382.172 66.1241 382.172 66.198C382.172 66.198 382.172 66.198 382.172 66.2164V67.5653C383.096 67.5653 383.964 67.5653 384.481 67.5653C387.751 67.5653 387.972 71.9258 387.972 71.9258H352.195C352.195 71.9258 352.25 67.5837 355.649 67.5837H355.667V67.5468C355.667 67.3066 355.815 67.1033 356.037 67.0294V63.4079C356.037 63.1123 356.277 62.8536 356.591 62.8536H361.836C362.132 62.8536 362.391 63.0938 362.391 63.4079V67.0109C362.612 67.0849 362.778 67.2881 362.778 67.5283V67.5468H363.684C363.739 66.937 364.182 66.6599 364.755 66.6229V49.8459H355.76C355.76 49.9752 355.667 50.0861 355.538 50.0861H355.52V51.2686C355.686 51.3425 355.797 51.5088 355.778 51.6751H356.148C356.221 51.6751 356.295 51.7305 356.295 51.8229V53.6336H353.876V51.8414C353.876 51.749 353.95 51.6751 354.042 51.6936C354.042 51.6936 354.042 51.6936 354.06 51.6936H354.393C354.374 51.5088 354.485 51.3425 354.651 51.2871V50.1045C354.559 50.16 354.467 50.0676 354.467 49.9382ZM372.549 46.8341H373.584C374.84 46.8341 374.877 47.8873 374.877 47.8873V48.4416H378.127L365.789 42.6583L372.272 48.4047V47.0928C372.254 46.9634 372.365 46.8341 372.494 46.8341C372.512 46.8341 372.531 46.8341 372.549 46.8341ZM365.992 52.913H372.272V50.4002L365.992 52.913ZM365.937 66.6968H365.992C366.546 66.6968 367.027 67.0849 367.119 67.6392C368.43 67.6392 369.779 67.6392 371.109 67.6392C371.164 67.0109 371.663 66.7153 372.272 66.6968V53.4858H365.937V66.6968ZM365.937 52.4142L372.18 49.9198H365.937V52.4142ZM365.678 48.4416H372.051L365.678 42.8061V48.4416ZM359.361 64.184H358.974V65.2187H359.361V64.184ZM361.412 63.9992H359.768C359.768 64.1101 359.675 64.2024 359.565 64.2024V65.2556C359.712 65.3111 359.805 65.4589 359.805 65.6252H360.119C360.193 65.6252 360.248 65.6806 360.248 65.7545V66.3273H358.087V65.7545C358.087 65.6806 358.142 65.6067 358.235 65.6067C358.235 65.6067 358.235 65.6067 358.253 65.6067H358.567C358.549 65.4404 358.641 65.2926 358.807 65.2372V64.184C358.697 64.184 358.623 64.0916 358.623 63.9807H357.127V67.0664C357.367 67.1218 357.533 67.3435 357.533 67.6022V67.6392C358.438 67.6392 359.657 67.6392 361.042 67.6392V67.6207C361.042 67.3805 361.208 67.1772 361.43 67.1033V63.9992H361.412ZM365.032 48.4416V42.7322L354.153 48.4416H365.032ZM354.892 51.3425H355.335V50.1784H354.892V51.3425ZM353.839 48.4416L364.552 42.8616L348.981 48.4416H353.839Z" fill="#C9C9C9"/>
<path d="M346 58.2695V53.9089C346 53.6318 346.222 53.41 346.499 53.41H362.42C362.697 53.41 362.919 53.6318 362.919 53.9089V58.2695H346Z" fill="#FAFAFA"/>
<path d="M361.92 57.512H362.086C362.142 57.512 362.179 57.4751 362.179 57.4196V54.2231C362.179 54.1677 362.142 54.1307 362.086 54.1307H361.92C361.865 54.1307 361.828 54.1677 361.828 54.2231V57.4196C361.828 57.4751 361.865 57.512 361.92 57.512Z" fill="#EDEDED"/>
<path d="M361.072 57.512H361.238C361.294 57.512 361.331 57.4751 361.331 57.4196V54.2231C361.331 54.1677 361.294 54.1307 361.238 54.1307H361.072C361.017 54.1307 360.98 54.1677 360.98 54.2231V57.4196C360.98 57.4751 361.035 57.512 361.072 57.512Z" fill="#EDEDED"/>
<path d="M360.24 57.512H360.406C360.461 57.512 360.498 57.4751 360.498 57.4196V54.2231C360.498 54.1677 360.461 54.1307 360.406 54.1307H360.24C360.184 54.1307 360.147 54.1677 360.147 54.2231V57.4196C360.147 57.4751 360.184 57.512 360.24 57.512Z" fill="#EDEDED"/>
<path d="M359.409 57.512H359.575C359.631 57.512 359.668 57.4751 359.668 57.4196V54.2231C359.668 54.1677 359.631 54.1307 359.575 54.1307H359.409C359.354 54.1307 359.317 54.1677 359.317 54.2231V57.4196C359.317 57.4751 359.354 57.512 359.409 57.512Z" fill="#EDEDED"/>
<path d="M358.559 57.512H358.726C358.781 57.512 358.818 57.4751 358.818 57.4196V54.2231C358.818 54.1677 358.781 54.1307 358.726 54.1307H358.559C358.504 54.1307 358.467 54.1677 358.467 54.2231V57.4196C358.467 57.4751 358.522 57.512 358.559 57.512Z" fill="#EDEDED"/>
<path d="M357.729 57.512H357.895C357.95 57.512 357.987 57.4751 357.987 57.4196V54.2231C357.987 54.1677 357.95 54.1307 357.895 54.1307H357.729C357.673 54.1307 357.636 54.1677 357.636 54.2231V57.4196C357.636 57.4751 357.673 57.512 357.729 57.512Z" fill="#EDEDED"/>
<path d="M356.898 57.512H357.064C357.119 57.512 357.156 57.4751 357.156 57.4196V54.2231C357.156 54.1677 357.119 54.1307 357.064 54.1307H356.898C356.842 54.1307 356.805 54.1677 356.805 54.2231V57.4196C356.805 57.4751 356.842 57.512 356.898 57.512Z" fill="#EDEDED"/>
<path d="M356.048 57.512H356.214C356.27 57.512 356.307 57.4751 356.307 57.4196V54.2231C356.307 54.1677 356.27 54.1307 356.214 54.1307H356.048C355.993 54.1307 355.956 54.1677 355.956 54.2231V57.4196C355.956 57.4751 356.011 57.512 356.048 57.512Z" fill="#EDEDED"/>
<path d="M355.217 57.512H355.384C355.439 57.512 355.476 57.4751 355.476 57.4196V54.2231C355.476 54.1677 355.439 54.1307 355.384 54.1307H355.217C355.162 54.1307 355.125 54.1677 355.125 54.2231V57.4196C355.125 57.4751 355.162 57.512 355.217 57.512Z" fill="#EDEDED"/>
<path d="M354.385 57.512H354.551C354.607 57.512 354.643 57.4751 354.643 57.4196V54.2231C354.643 54.1677 354.607 54.1307 354.551 54.1307H354.385C354.329 54.1307 354.293 54.1677 354.293 54.2231V57.4196C354.293 57.4751 354.329 57.512 354.385 57.512Z" fill="#EDEDED"/>
<path d="M353.553 57.512H353.719C353.774 57.512 353.811 57.4751 353.811 57.4196V54.2231C353.811 54.1677 353.774 54.1307 353.719 54.1307H353.553C353.497 54.1307 353.46 54.1677 353.46 54.2231V57.4196C353.442 57.4751 353.497 57.512 353.553 57.512Z" fill="#EDEDED"/>
<path d="M352.705 57.512H352.871C352.926 57.512 352.963 57.4751 352.963 57.4196V54.2231C352.963 54.1677 352.926 54.1307 352.871 54.1307H352.705C352.649 54.1307 352.612 54.1677 352.612 54.2231V57.4196C352.612 57.4751 352.649 57.512 352.705 57.512Z" fill="#EDEDED"/>
<path d="M351.874 57.512H352.04C352.095 57.512 352.132 57.4751 352.132 57.4196V54.2231C352.132 54.1677 352.095 54.1307 352.04 54.1307H351.874C351.818 54.1307 351.781 54.1677 351.781 54.2231V57.4196C351.781 57.4751 351.818 57.512 351.874 57.512Z" fill="#EDEDED"/>
<path d="M351.041 57.512H351.208C351.263 57.512 351.3 57.4751 351.3 57.4196V54.2231C351.3 54.1677 351.263 54.1307 351.208 54.1307H351.041C350.986 54.1307 350.949 54.1677 350.949 54.2231V57.4196C350.931 57.4751 350.986 57.512 351.041 57.512Z" fill="#EDEDED"/>
<path d="M350.192 57.512H350.358C350.413 57.512 350.45 57.4751 350.45 57.4196V54.2231C350.45 54.1677 350.413 54.1307 350.358 54.1307H350.192C350.136 54.1307 350.099 54.1677 350.099 54.2231V57.4196C350.099 57.4751 350.136 57.512 350.192 57.512Z" fill="#EDEDED"/>
<path d="M349.361 57.512H349.527C349.583 57.512 349.619 57.4751 349.619 57.4196V54.2231C349.619 54.1677 349.583 54.1307 349.527 54.1307H349.361C349.305 54.1307 349.269 54.1677 349.269 54.2231V57.4196C349.269 57.4751 349.305 57.512 349.361 57.512Z" fill="#EDEDED"/>
<path d="M348.53 57.512H348.696C348.752 57.512 348.789 57.4751 348.789 57.4196V54.2231C348.789 54.1677 348.752 54.1307 348.696 54.1307H348.53C348.475 54.1307 348.438 54.1677 348.438 54.2231V57.4196C348.438 57.4751 348.475 57.512 348.53 57.512Z" fill="#EDEDED"/>
<path d="M347.68 57.5303H347.847C347.902 57.5303 347.939 57.4934 347.939 57.4379V54.2414C347.939 54.186 347.902 54.149 347.847 54.149H347.68C347.625 54.149 347.588 54.186 347.588 54.2414V57.4379C347.588 57.4934 347.643 57.5303 347.68 57.5303Z" fill="#EDEDED"/>
<path d="M346.848 57.5303H347.014C347.07 57.5303 347.107 57.4934 347.107 57.4379V54.2414C347.107 54.186 347.07 54.149 347.014 54.149H346.848C346.793 54.149 346.756 54.186 346.756 54.2414V57.4379C346.756 57.4934 346.793 57.5303 346.848 57.5303Z" fill="#EDEDED"/>
<path d="M352.409 56.3479V55.3317H352.686L353.037 56.0892L353.369 55.3317H353.628V56.3479H353.406V55.7566L353.148 56.3479H352.907L352.649 55.7566V56.3479H352.409Z" fill="black"/>
<path d="M353.997 56.3478H353.739L354.2 55.3131H354.533L354.995 56.3478H354.736L354.644 56.1446H354.108L353.997 56.3478ZM354.551 55.9598L354.367 55.5164L354.182 55.9598H354.551Z" fill="black"/>
<path d="M355.087 56.3479V55.3317H356.066V55.5349H355.328V55.7382H355.956V55.9414H355.328V56.1447H356.066V56.3479H355.087Z" fill="black"/>
<path d="M356.269 56.3478V55.3131H357.1C357.192 55.3131 357.266 55.3685 357.266 55.4609C357.266 55.4794 357.266 55.4794 357.266 55.4979V55.8489C357.266 55.9228 357.192 55.9968 357.063 55.9968H357.044L357.285 56.3663H357.026L356.804 56.0152H356.527V56.3663L356.269 56.3478ZM356.509 55.7935H357.026V55.5348H356.509V55.7935Z" fill="black"/>
<path d="M357.692 56.3475H357.618C357.544 56.366 357.47 56.3106 357.452 56.2182C357.452 56.1997 357.452 56.1997 357.452 56.1812V56.0519H357.692V56.1258H358.209V55.9225H357.618C357.544 55.9225 357.47 55.8671 357.452 55.7932C357.452 55.7932 357.452 55.7932 357.452 55.7747V55.4606C357.452 55.3682 357.525 55.2943 357.599 55.2943H358.264C358.357 55.2943 358.412 55.3682 358.412 55.4421V55.4606V55.5899H358.19V55.516H357.673V55.7193H358.246C358.338 55.7193 358.412 55.7747 358.412 55.8671V55.8856V56.1812C358.412 56.2551 358.357 56.329 358.283 56.3475C358.264 56.3475 358.264 56.3475 358.246 56.3475H357.692Z" fill="black"/>
<path d="M358.67 56.3479V55.3317H358.911V55.7382L359.372 55.3317H359.705L359.151 55.8121L359.723 56.3479H359.391L358.911 55.886V56.3479H358.67Z" fill="black"/>
<path d="M351.429 56.7356C351.429 56.8834 351.318 56.9942 351.17 56.9942H349.49C349.342 56.9942 349.231 56.8834 349.231 56.7356V54.9248C349.231 54.777 349.342 54.6661 349.49 54.6661H351.17C351.318 54.6661 351.429 54.777 351.429 54.9248V56.7356Z" fill="#42B0D5"/>
<path d="M350.672 55.775L351.096 55.2392V55.2207L350.468 55.5348L350.321 54.8512L350.154 55.5348L349.526 55.2207V55.2392L349.97 55.775L349.323 56.0892H350.025L349.877 56.7728L350.321 56.2185L350.745 56.7728L350.598 56.0892H351.3L350.672 55.775Z" fill="white"/>
<path d="M313 72V60.1378C313 59.4172 313.536 58.789 314.293 58.6042L331.489 53.6524C331.858 53.56 332.265 53.56 332.634 53.6524L349.83 58.6042C350.606 58.8444 351.123 59.4727 351.123 60.1378V72H313Z" fill="#EEEEEE"/>
<path d="M348.019 63.6852H339.079V71.9998H348.019V63.6852Z" fill="#878787"/>
<path d="M348.019 63.6852H339.079V65.9394H348.019V63.6852Z" fill="#C3C3C3"/>
<path d="M348.574 62.6134H338.49V63.6666H348.574V62.6134Z" fill="#DBDBDB"/>
<path d="M336.68 63.6852H327.741V71.9998H336.68V63.6852Z" fill="#C3C3C3"/>
<path d="M337.253 62.6134H327.168V63.6666H337.253V62.6134Z" fill="#DBDBDB"/>
<path d="M325.3 63.6852H316.361V71.9998H325.3V63.6852Z" fill="#C3C3C3"/>
<path d="M325.873 62.6134H315.788V63.6666H325.873V62.6134Z" fill="#DBDBDB"/>
<path d="M347.337 60.9877H347.725C347.817 60.9877 347.909 60.9323 347.909 60.8399V59.8236C347.909 59.7313 347.817 59.6758 347.725 59.6758H347.337C347.263 59.6573 347.208 59.7128 347.189 59.7867C347.189 59.8052 347.189 59.8052 347.189 59.8236V60.8399C347.171 60.9138 347.226 60.9692 347.3 60.9877C347.318 60.9877 347.318 60.9877 347.337 60.9877Z" fill="#CFCFCF"/>
<path d="M345.6 60.9877H345.988C346.062 61.0062 346.117 60.9508 346.136 60.8769C346.136 60.8584 346.136 60.8584 346.136 60.8399V59.3433C346.136 59.2694 346.062 59.1955 345.988 59.1955H345.6C345.526 59.177 345.471 59.2324 345.452 59.3063C345.452 59.3248 345.452 59.3248 345.452 59.3433V60.8399C345.434 60.9138 345.489 60.9693 345.563 60.9877C345.582 60.9877 345.6 60.9877 345.6 60.9877Z" fill="#CFCFCF"/>
<path d="M343.884 60.9878H344.271C344.345 61.0062 344.401 60.9508 344.419 60.8769C344.419 60.8584 344.419 60.8584 344.419 60.8399V58.826C344.419 58.7521 344.345 58.6781 344.271 58.6781H343.884C343.81 58.6597 343.754 58.7151 343.736 58.789C343.736 58.8075 343.736 58.8075 343.736 58.826V60.8399C343.736 60.9139 343.791 60.9878 343.884 60.9878Z" fill="#CFCFCF"/>
<path d="M342.203 60.9878H342.591C342.664 61.0063 342.72 60.9509 342.738 60.877C342.738 60.8585 342.738 60.8585 342.738 60.84V58.3456C342.738 58.2717 342.664 58.1978 342.591 58.1978H342.203C342.129 58.1793 342.073 58.2347 342.055 58.3087C342.055 58.3271 342.055 58.3271 342.055 58.3456V60.84C342 60.9324 342.092 60.9878 342.203 60.9878Z" fill="#CFCFCF"/>
<path d="M340.466 60.988H340.854C340.928 61.0065 340.983 60.951 341.002 60.8771C341.002 60.8586 341.002 60.8587 341.002 60.8402V57.8654C341.002 57.7915 340.928 57.7176 340.854 57.7176H340.466C340.392 57.6991 340.337 57.7545 340.318 57.8284C340.318 57.8469 340.318 57.8469 340.318 57.8654V60.8402C340.282 60.9326 340.374 60.988 340.466 60.988Z" fill="#CFCFCF"/>
<path d="M338.729 60.9878H339.117C339.191 61.0063 339.247 60.9508 339.265 60.8769C339.265 60.8585 339.265 60.8585 339.265 60.84V57.3848C339.265 57.3109 339.191 57.237 339.117 57.237H338.729C338.656 57.2185 338.6 57.2739 338.582 57.3478C338.582 57.3663 338.582 57.3663 338.582 57.3848V60.84C338.545 60.9324 338.637 60.9878 338.729 60.9878Z" fill="#CFCFCF"/>
<path d="M337.013 60.9881H337.401C337.475 61.0066 337.53 60.9511 337.548 60.8772C337.548 60.8588 337.548 60.8588 337.548 60.8403V56.9047C337.548 56.8308 337.475 56.7569 337.401 56.7569H337.013C336.939 56.7384 336.883 56.7938 336.865 56.8677C336.865 56.8862 336.865 56.8862 336.865 56.9047V60.8403C336.81 60.9327 336.92 60.9881 337.013 60.9881Z" fill="#CFCFCF"/>
<path d="M335.276 60.9879H335.664C335.738 61.0064 335.794 60.951 335.812 60.877C335.812 60.8586 335.812 60.8586 335.812 60.8401V56.4241C335.812 56.3502 335.738 56.2763 335.664 56.2763H335.276C335.202 56.2578 335.147 56.3132 335.129 56.3871C335.129 56.4056 335.129 56.4056 335.129 56.4241V60.8401C335.092 60.9325 335.184 60.9879 335.276 60.9879Z" fill="#CFCFCF"/>
<path d="M333.557 60.9871H333.945C334.019 61.0056 334.074 60.9502 334.093 60.8763C334.093 60.8578 334.093 60.8578 334.093 60.8393V55.8875C334.093 55.8136 334.019 55.7397 333.945 55.7397H333.557C333.483 55.7212 333.428 55.7766 333.409 55.8505C333.409 55.869 333.409 55.869 333.409 55.8875V60.8393C333.391 60.9132 333.446 60.9686 333.52 60.9871C333.52 60.9871 333.539 60.9871 333.557 60.9871Z" fill="#CFCFCF"/>
<path d="M331.822 60.9879H332.21C332.284 61.0064 332.339 60.951 332.358 60.877C332.358 60.8586 332.358 60.8586 332.358 60.8401V55.4079C332.358 55.334 332.284 55.2601 332.21 55.2601H331.822C331.748 55.2416 331.693 55.297 331.674 55.3709C331.674 55.3894 331.674 55.3894 331.674 55.4079V60.8401C331.656 60.914 331.711 60.9694 331.785 60.9879C331.803 60.9879 331.803 60.9879 331.822 60.9879Z" fill="#CFCFCF"/>
<path d="M330.085 60.9871H330.473C330.547 61.0056 330.602 60.9502 330.621 60.8763C330.621 60.8578 330.621 60.8578 330.621 60.8393V55.8875C330.621 55.8136 330.547 55.7397 330.473 55.7397H330.085C330.011 55.7212 329.956 55.7766 329.937 55.8505C329.937 55.869 329.937 55.869 329.937 55.8875V60.8393C329.919 60.9132 329.974 60.9686 330.048 60.9871C330.067 60.9871 330.085 60.9871 330.085 60.9871Z" fill="#CFCFCF"/>
<path d="M328.367 60.9879H328.755C328.829 61.0064 328.884 60.951 328.903 60.877C328.903 60.8586 328.903 60.8586 328.903 60.8401V56.4241C328.903 56.3502 328.829 56.2763 328.755 56.2763H328.367C328.293 56.2578 328.238 56.3132 328.219 56.3871C328.219 56.4056 328.219 56.4056 328.219 56.4241V60.8401C328.201 60.914 328.256 60.9694 328.33 60.9879C328.349 60.9879 328.349 60.9879 328.367 60.9879Z" fill="#68C0DD"/>
<path d="M326.632 60.9881H327.02C327.094 61.0066 327.149 60.9511 327.168 60.8772C327.168 60.8588 327.168 60.8588 327.168 60.8403V56.9047C327.168 56.8308 327.094 56.7569 327.02 56.7569H326.632C326.558 56.7384 326.503 56.7938 326.484 56.8677C326.484 56.8862 326.484 56.8862 326.484 56.9047V60.8403C326.466 60.9142 326.521 60.9696 326.595 60.9881C326.614 60.9881 326.632 60.9881 326.632 60.9881Z" fill="#68C0DD"/>
<path d="M324.914 60.9878H325.302C325.376 61.0063 325.431 60.9508 325.449 60.8769C325.449 60.8585 325.449 60.8585 325.449 60.84V57.3848C325.449 57.3109 325.376 57.237 325.302 57.237H324.914C324.84 57.2185 324.785 57.2739 324.766 57.3478C324.766 57.3663 324.766 57.3663 324.766 57.3848V60.84C324.766 60.9139 324.821 60.9878 324.914 60.9878Z" fill="#68C0DD"/>
<path d="M323.233 60.988H323.621C323.695 61.0065 323.75 60.951 323.769 60.8771C323.769 60.8586 323.769 60.8587 323.769 60.8402V57.8654C323.769 57.7915 323.695 57.7176 323.621 57.7176H323.233C323.159 57.6991 323.104 57.7545 323.085 57.8284C323.085 57.8469 323.085 57.8469 323.085 57.8654V60.8402C323.03 60.9326 323.122 60.988 323.233 60.988Z" fill="#68C0DD"/>
<path d="M321.496 60.9878H321.884C321.958 61.0063 322.014 60.9509 322.032 60.877C322.032 60.8585 322.032 60.8585 322.032 60.84V58.3456C322.032 58.2717 321.958 58.1978 321.884 58.1978H321.496C321.423 58.1793 321.367 58.2347 321.349 58.3087C321.349 58.3271 321.349 58.3271 321.349 58.3456V60.84C321.312 60.9324 321.404 60.9878 321.496 60.9878Z" fill="#68C0DD"/>
<path d="M319.76 60.9878H320.148C320.222 61.0062 320.277 60.9508 320.295 60.8769C320.295 60.8584 320.295 60.8584 320.295 60.8399V58.826C320.295 58.7521 320.222 58.6781 320.148 58.6781H319.76C319.686 58.6597 319.63 58.7151 319.612 58.789C319.612 58.8075 319.612 58.8075 319.612 58.826V60.8399C319.575 60.9323 319.667 60.9878 319.76 60.9878Z" fill="#68C0DD"/>
<path d="M318.041 60.9877H318.429C318.503 61.0062 318.559 60.9508 318.577 60.8769C318.577 60.8584 318.577 60.8584 318.577 60.8399V59.3433C318.577 59.2694 318.503 59.1955 318.429 59.1955H318.041C317.968 59.177 317.912 59.2324 317.894 59.3063C317.894 59.3248 317.894 59.3248 317.894 59.3433V60.8399C317.838 60.9323 317.949 60.9877 318.041 60.9877Z" fill="#68C0DD"/>
<path d="M316.307 60.9877H316.694C316.768 61.0062 316.824 60.9507 316.842 60.8768C316.842 60.8583 316.842 60.8584 316.842 60.8399V59.8236C316.842 59.7497 316.768 59.6758 316.694 59.6758H316.307C316.233 59.6573 316.177 59.7128 316.159 59.7867C316.159 59.8052 316.159 59.8052 316.159 59.8236V60.8399C316.122 60.9323 316.214 60.9877 316.307 60.9877Z" fill="#68C0DD"/>
<path d="M348.001 64.8309H339.079" stroke="#A9A9A9" stroke-width="0.698833" stroke-miterlimit="10"/>
<path d="M336.68 64.8309H327.741" stroke="#A9A9A9" stroke-width="0.698833" stroke-miterlimit="10"/>
<path d="M336.68 66.0873H327.741" stroke="#A9A9A9" stroke-width="0.698833" stroke-miterlimit="10"/>
<path d="M336.68 67.2882H327.741" stroke="#A9A9A9" stroke-width="0.698833" stroke-miterlimit="10"/>
<path d="M336.68 68.4893H327.741" stroke="#A9A9A9" stroke-width="0.698833" stroke-miterlimit="10"/>
<path d="M336.68 69.6902H327.741" stroke="#A9A9A9" stroke-width="0.698833" stroke-miterlimit="10"/>
<path d="M325.282 64.8309H316.361" stroke="#A9A9A9" stroke-width="0.698833" stroke-miterlimit="10"/>
<path d="M325.282 66.0873H316.361" stroke="#A9A9A9" stroke-width="0.698833" stroke-miterlimit="10"/>
<path d="M325.282 67.2882H316.361" stroke="#A9A9A9" stroke-width="0.698833" stroke-miterlimit="10"/>
<path d="M325.282 68.4893H316.361" stroke="#A9A9A9" stroke-width="0.698833" stroke-miterlimit="10"/>
<path d="M325.282 69.6902H316.361" stroke="#A9A9A9" stroke-width="0.698833" stroke-miterlimit="10"/>
<path d="M343.273 71.9997V69.3206C343.273 69.1543 343.144 69.0065 342.959 69.0065H340.595C340.429 69.0065 340.281 69.1358 340.281 69.3206V71.9997H343.273Z" fill="#EEEEEE"/>
<path d="M346.728 71.9997V69.3206C346.728 69.1543 346.599 69.0065 346.414 69.0065H344.05C343.884 69.0065 343.736 69.1358 343.736 69.3206V71.9997H346.728Z" fill="#FB8877"/>
<path d="M71.3438 49.9382H78.9721V49.4763C78.9721 48.9035 78.5104 48.4416 77.9378 48.4416H77.2544L60.7603 42.4366V42.1594C60.7603 41.9377 60.1138 41.9562 60.1138 42.1594V42.3996L47.2399 48.4416H46.8151V49.9198H48.0711V50.8067C48.0526 51.0838 48.2558 51.324 48.5328 51.3425C48.5698 51.3425 48.6067 51.3425 48.6252 51.3425H50.2875V49.9198H52.3931V66.6968C51.8575 66.7153 51.4142 67.1033 51.3034 67.6207C50.8047 67.6207 50.306 67.6207 49.8442 67.6207V66.2719C49.8442 66.1795 49.7703 66.1241 49.6965 66.1056H48.1449C48.0711 66.1056 47.9972 66.161 47.9972 66.2349V66.2534V67.6022H47.6647V66.2534C47.6647 66.161 47.5908 66.1056 47.517 66.0871H45.9654C45.8916 66.0871 45.8177 66.1425 45.8177 66.2164C45.8177 66.2164 45.8177 66.2164 45.8177 66.2349V67.5837H45.4852V66.2349C45.4852 66.1425 45.4113 66.0871 45.3374 66.0686H43.7859C43.712 66.0686 43.6382 66.1241 43.6382 66.198C43.6382 66.198 43.6382 66.198 43.6382 66.2164V67.5653C42.7146 67.5653 41.8465 67.5653 41.3294 67.5653C38.0601 67.5653 37.8384 71.9258 37.8384 71.9258H73.6157C73.6157 71.9258 73.5603 67.5837 70.1617 67.5837H70.1432V67.5468C70.1432 67.3066 69.9955 67.1033 69.7738 67.0294V63.4079C69.7738 63.1123 69.5337 62.8536 69.2197 62.8536H63.9741C63.6786 62.8536 63.42 63.0938 63.42 63.4079V67.0109C63.1984 67.0849 63.0321 67.2881 63.0321 67.5283V67.5468H62.1271C62.0717 66.937 61.6284 66.6599 61.0558 66.6229V49.8459H70.0509C70.0509 49.9752 70.1432 50.0861 70.2725 50.0861H70.291V51.2686C70.1248 51.3425 70.014 51.5088 70.0324 51.6751H69.663C69.5891 51.6751 69.5153 51.7305 69.5153 51.8229V53.6336H71.9349V51.8414C71.9349 51.749 71.861 51.6751 71.7686 51.6936C71.7686 51.6936 71.7686 51.6936 71.7502 51.6936H71.4177C71.4362 51.5088 71.3254 51.3425 71.1591 51.2871V50.1045C71.2515 50.16 71.3438 50.0676 71.3438 49.9382ZM53.2613 46.8341H52.2269C50.9709 46.8341 50.934 47.8873 50.934 47.8873V48.4416H47.6832L60.0214 42.6583L53.5383 48.4047V47.0928C53.5568 46.9634 53.446 46.8341 53.3167 46.8341C53.2982 46.8341 53.2797 46.8341 53.2613 46.8341ZM59.8183 52.913H53.5383V50.4002L59.8183 52.913ZM59.8737 66.6968H59.8183C59.2642 66.6968 58.7839 67.0849 58.6916 67.6392C57.3802 67.6392 56.0318 67.6392 54.702 67.6392C54.6465 67.0109 54.1478 66.7153 53.5383 66.6968V53.4858H59.8737V66.6968ZM59.8737 52.4142L53.6307 49.9198H59.8737V52.4142ZM60.1323 48.4416H53.76L60.1323 42.8061V48.4416ZM66.4492 64.184H66.837V65.2187H66.4492V64.184ZM64.3989 63.9992H66.0428C66.0428 64.1101 66.1352 64.2024 66.246 64.2024V65.2556C66.0982 65.3111 66.0059 65.4589 66.0059 65.6252H65.6919C65.618 65.6252 65.5626 65.6806 65.5626 65.7545V66.3273H67.7236V65.7545C67.7236 65.6806 67.6682 65.6067 67.5759 65.6067C67.5759 65.6067 67.5759 65.6067 67.5574 65.6067H67.2434C67.2619 65.4404 67.1695 65.2926 67.0033 65.2372V64.184C67.1141 64.184 67.188 64.0916 67.188 63.9807H68.6841V67.0664C68.444 67.1218 68.2777 67.3435 68.2777 67.6022V67.6392C67.3727 67.6392 66.1536 67.6392 64.7683 67.6392V67.6207C64.7683 67.3805 64.6021 67.1772 64.3805 67.1033V63.9992H64.3989ZM60.7787 48.4416V42.7322L71.6578 48.4416H60.7787ZM70.919 51.3425H70.4757V50.1784H70.919V51.3425ZM71.9718 48.4416L61.259 42.8616L76.8295 48.4416H71.9718Z" fill="#C9C9C9"/>
<path d="M62.1826 58.2718V53.9112C62.1826 53.6341 62.4043 53.4124 62.6813 53.4124H78.6028C78.8799 53.4124 79.1015 53.6341 79.1015 53.9112V58.2718H62.1826Z" fill="#FAFAFA"/>
<path d="M78.1027 57.5145H78.269C78.3244 57.5145 78.3613 57.4775 78.3613 57.4221V54.2256C78.3613 54.1701 78.3244 54.1332 78.269 54.1332H78.1027C78.0473 54.1332 78.0104 54.1701 78.0104 54.2256V57.4221C78.0104 57.4775 78.0473 57.5145 78.1027 57.5145Z" fill="#EDEDED"/>
<path d="M77.2548 57.5145H77.4211C77.4765 57.5145 77.5134 57.4775 77.5134 57.4221V54.2256C77.5134 54.1701 77.4765 54.1332 77.4211 54.1332H77.2548C77.1994 54.1332 77.1625 54.1701 77.1625 54.2256V57.4221C77.1625 57.4775 77.2179 57.5145 77.2548 57.5145Z" fill="#EDEDED"/>
<path d="M76.4224 57.5145H76.5886C76.644 57.5145 76.681 57.4775 76.681 57.4221V54.2256C76.681 54.1701 76.644 54.1332 76.5886 54.1332H76.4224C76.367 54.1332 76.33 54.1701 76.33 54.2256V57.4221C76.33 57.4775 76.367 57.5145 76.4224 57.5145Z" fill="#EDEDED"/>
<path d="M75.5916 57.5145H75.7578C75.8132 57.5145 75.8501 57.4775 75.8501 57.4221V54.2256C75.8501 54.1701 75.8132 54.1332 75.7578 54.1332H75.5916C75.5361 54.1332 75.4992 54.1701 75.4992 54.2256V57.4221C75.4992 57.4775 75.5361 57.5145 75.5916 57.5145Z" fill="#EDEDED"/>
<path d="M74.742 57.5145H74.9082C74.9637 57.5145 75.0006 57.4775 75.0006 57.4221V54.2256C75.0006 54.1701 74.9637 54.1332 74.9082 54.1332H74.742C74.6866 54.1332 74.6497 54.1701 74.6497 54.2256V57.4221C74.6497 57.4775 74.7051 57.5145 74.742 57.5145Z" fill="#EDEDED"/>
<path d="M73.9112 57.5145H74.0774C74.1328 57.5145 74.1698 57.4775 74.1698 57.4221V54.2256C74.1698 54.1701 74.1328 54.1332 74.0774 54.1332H73.9112C73.8558 54.1332 73.8188 54.1701 73.8188 54.2256V57.4221C73.8188 57.4775 73.8558 57.5145 73.9112 57.5145Z" fill="#EDEDED"/>
<path d="M73.0804 57.5145H73.2466C73.302 57.5145 73.339 57.4775 73.339 57.4221V54.2256C73.339 54.1701 73.302 54.1332 73.2466 54.1332H73.0804C73.025 54.1332 72.988 54.1701 72.988 54.2256V57.4221C72.988 57.4775 73.025 57.5145 73.0804 57.5145Z" fill="#EDEDED"/>
<path d="M72.2308 57.5145H72.397C72.4524 57.5145 72.4894 57.4775 72.4894 57.4221V54.2256C72.4894 54.1701 72.4524 54.1332 72.397 54.1332H72.2308C72.1754 54.1332 72.1384 54.1701 72.1384 54.2256V57.4221C72.1384 57.4775 72.1938 57.5145 72.2308 57.5145Z" fill="#EDEDED"/>
<path d="M71.4 57.5145H71.5662C71.6216 57.5145 71.6586 57.4775 71.6586 57.4221V54.2256C71.6586 54.1701 71.6216 54.1332 71.5662 54.1332H71.4C71.3446 54.1332 71.3076 54.1701 71.3076 54.2256V57.4221C71.3076 57.4775 71.3446 57.5145 71.4 57.5145Z" fill="#EDEDED"/>
<path d="M70.5675 57.5145H70.7337C70.7892 57.5145 70.8261 57.4775 70.8261 57.4221V54.2256C70.8261 54.1701 70.7892 54.1332 70.7337 54.1332H70.5675C70.5121 54.1332 70.4752 54.1701 70.4752 54.2256V57.4221C70.4752 57.4775 70.5121 57.5145 70.5675 57.5145Z" fill="#EDEDED"/>
<path d="M69.7353 57.5145H69.9015C69.9569 57.5145 69.9938 57.4775 69.9938 57.4221V54.2256C69.9938 54.1701 69.9569 54.1332 69.9015 54.1332H69.7353C69.6798 54.1332 69.6429 54.1701 69.6429 54.2256V57.4221C69.6244 57.4775 69.6798 57.5145 69.7353 57.5145Z" fill="#EDEDED"/>
<path d="M68.8872 57.5145H69.0534C69.1088 57.5145 69.1457 57.4775 69.1457 57.4221V54.2256C69.1457 54.1701 69.1088 54.1332 69.0534 54.1332H68.8872C68.8317 54.1332 68.7948 54.1701 68.7948 54.2256V57.4221C68.7948 57.4775 68.8317 57.5145 68.8872 57.5145Z" fill="#EDEDED"/>
<path d="M68.0563 57.5145H68.2226C68.278 57.5145 68.3149 57.4775 68.3149 57.4221V54.2256C68.3149 54.1701 68.278 54.1332 68.2226 54.1332H68.0563C68.0009 54.1332 67.964 54.1701 67.964 54.2256V57.4221C67.964 57.4775 68.0009 57.5145 68.0563 57.5145Z" fill="#EDEDED"/>
<path d="M67.2241 57.5145H67.3903C67.4457 57.5145 67.4827 57.4775 67.4827 57.4221V54.2256C67.4827 54.1701 67.4457 54.1332 67.3903 54.1332H67.2241C67.1687 54.1332 67.1317 54.1701 67.1317 54.2256V57.4221C67.1133 57.4775 67.1687 57.5145 67.2241 57.5145Z" fill="#EDEDED"/>
<path d="M66.3743 57.5145H66.5405C66.5959 57.5145 66.6329 57.4775 66.6329 57.4221V54.2256C66.6329 54.1701 66.5959 54.1332 66.5405 54.1332H66.3743C66.3189 54.1332 66.2819 54.1701 66.2819 54.2256V57.4221C66.2819 57.4775 66.3189 57.5145 66.3743 57.5145Z" fill="#EDEDED"/>
<path d="M65.5435 57.5145H65.7098C65.7652 57.5145 65.8021 57.4775 65.8021 57.4221V54.2256C65.8021 54.1701 65.7652 54.1332 65.7098 54.1332H65.5435C65.4881 54.1332 65.4512 54.1701 65.4512 54.2256V57.4221C65.4512 57.4775 65.4881 57.5145 65.5435 57.5145Z" fill="#EDEDED"/>
<path d="M64.7127 57.5145H64.8789C64.9343 57.5145 64.9712 57.4775 64.9712 57.4221V54.2256C64.9712 54.1701 64.9343 54.1332 64.8789 54.1332H64.7127C64.6572 54.1332 64.6203 54.1701 64.6203 54.2256V57.4221C64.6203 57.4775 64.6572 57.5145 64.7127 57.5145Z" fill="#EDEDED"/>
<path d="M63.863 57.5328H64.0293C64.0847 57.5328 64.1216 57.4958 64.1216 57.4404V54.2439C64.1216 54.1884 64.0847 54.1515 64.0293 54.1515H63.863C63.8076 54.1515 63.7707 54.1884 63.7707 54.2439V57.4404C63.7707 57.4958 63.8261 57.5328 63.863 57.5328Z" fill="#EDEDED"/>
<path d="M63.0306 57.5328H63.1968C63.2522 57.5328 63.2892 57.4958 63.2892 57.4404V54.2439C63.2892 54.1884 63.2522 54.1515 63.1968 54.1515H63.0306C62.9752 54.1515 62.9382 54.1884 62.9382 54.2439V57.4404C62.9382 57.4958 62.9752 57.5328 63.0306 57.5328Z" fill="#EDEDED"/>
<path d="M68.5914 56.3501V55.3339H68.8684L69.2194 56.0914L69.5518 55.3339H69.8104V56.3501H69.5888V55.7588L69.3302 56.3501H69.0901L68.8315 55.7588V56.3501H68.5914Z" fill="black"/>
<path d="M70.1799 56.35H69.9213L70.3831 55.3153H70.7156L71.1773 56.35H70.9187L70.8264 56.1468H70.2907L70.1799 56.35ZM70.734 55.962L70.5493 55.5186L70.3646 55.962H70.734Z" fill="black"/>
<path d="M71.27 56.3501V55.3339H72.2489V55.5371H71.5101V55.7404H72.1381V55.9436H71.5101V56.1468H72.2489V56.3501H71.27Z" fill="black"/>
<path d="M72.4513 56.35V55.3153H73.2825C73.3748 55.3153 73.4487 55.3707 73.4487 55.4631C73.4487 55.4816 73.4487 55.4816 73.4487 55.5001V55.8511C73.4487 55.925 73.3748 55.999 73.2455 55.999H73.227L73.4672 56.3685H73.2086L72.9869 56.0174H72.7099V56.3685L72.4513 56.35ZM72.6914 55.7957H73.2086V55.537H72.6914V55.7957Z" fill="black"/>
<path d="M73.8743 56.3499H73.8004C73.7266 56.3684 73.6527 56.313 73.6342 56.2206C73.6342 56.2021 73.6342 56.2021 73.6342 56.1837V56.0543H73.8743V56.1282H74.3915V55.925H73.8004C73.7266 55.925 73.6527 55.8695 73.6342 55.7956C73.6342 55.7956 73.6342 55.7956 73.6342 55.7772V55.463C73.6342 55.3707 73.7081 55.2968 73.782 55.2968H74.4469C74.5393 55.2968 74.5947 55.3707 74.5947 55.4446V55.463V55.5924H74.373V55.5185H73.8559V55.7217H74.4284C74.5208 55.7217 74.5947 55.7772 74.5947 55.8695V55.888V56.1837C74.5947 56.2576 74.5393 56.3315 74.4654 56.3499C74.4469 56.3499 74.4469 56.3499 74.4284 56.3499H73.8743Z" fill="black"/>
<path d="M74.853 56.3501V55.3339H75.0931V55.7404L75.5549 55.3339H75.8874L75.3333 55.8143L75.9058 56.3501H75.5734L75.0931 55.8882V56.3501H74.853Z" fill="black"/>
<path d="M67.6116 56.738C67.6116 56.8858 67.5007 56.9967 67.353 56.9967H65.6722C65.5244 56.9967 65.4136 56.8858 65.4136 56.738V54.9273C65.4136 54.7794 65.5244 54.6686 65.6722 54.6686H67.353C67.5007 54.6686 67.6116 54.7794 67.6116 54.9273V56.738Z" fill="#42B0D5"/>
<path d="M66.8541 55.7774L67.279 55.2415V55.2231L66.651 55.5372L66.5032 54.8535L66.337 55.5372L65.709 55.2231V55.2415L66.1523 55.7774L65.5058 56.0915H66.2077L66.0599 56.7751L66.5032 56.2208L66.928 56.7751L66.7803 56.0915H67.4821L66.8541 55.7774Z" fill="white"/>
<path d="M4 72V60.1378C4 59.4172 4.53564 58.789 5.29293 58.6042L22.4889 53.6524C22.8583 53.56 23.2647 53.56 23.6341 53.6524L40.8301 58.6042C41.6058 58.8444 42.123 59.4727 42.123 60.1378V72H4Z" fill="#EEEEEE"/>
<path d="M39.019 63.6852H30.0793V71.9998H39.019V63.6852Z" fill="#878787"/>
<path d="M39.019 63.6852H30.0793V65.9394H39.019V63.6852Z" fill="#C3C3C3"/>
<path d="M39.5744 62.6134H29.4896V63.6666H39.5744V62.6134Z" fill="#DBDBDB"/>
<path d="M27.6802 63.6852H18.7405V71.9998H27.6802V63.6852Z" fill="#C3C3C3"/>
<path d="M28.2528 62.6134H18.1679V63.6666H28.2528V62.6134Z" fill="#DBDBDB"/>
<path d="M16.3004 63.6852H7.36075V71.9998H16.3004V63.6852Z" fill="#C3C3C3"/>
<path d="M16.873 62.6134H6.78812V63.6666H16.873V62.6134Z" fill="#DBDBDB"/>
<path d="M38.3369 60.9877H38.7247C38.8171 60.9877 38.9094 60.9323 38.9094 60.8399V59.8236C38.9094 59.7313 38.8171 59.6758 38.7247 59.6758H38.3369C38.263 59.6573 38.2076 59.7128 38.1891 59.7867C38.1891 59.8052 38.1891 59.8052 38.1891 59.8236V60.8399C38.1706 60.9138 38.226 60.9692 38.2999 60.9877C38.3184 60.9877 38.3184 60.9877 38.3369 60.9877Z" fill="#CFCFCF"/>
<path d="M36.6 60.9877H36.9879C37.0618 61.0062 37.1172 60.9508 37.1357 60.8769C37.1357 60.8584 37.1357 60.8584 37.1357 60.8399V59.3433C37.1357 59.2694 37.0618 59.1955 36.9879 59.1955H36.6C36.5262 59.177 36.4708 59.2324 36.4523 59.3063C36.4523 59.3248 36.4523 59.3248 36.4523 59.3433V60.8399C36.4338 60.9138 36.4892 60.9693 36.5631 60.9877C36.5816 60.9877 36.6 60.9877 36.6 60.9877Z" fill="#CFCFCF"/>
<path d="M34.8835 60.9878H35.2714C35.3453 61.0062 35.4007 60.9508 35.4192 60.8769C35.4192 60.8584 35.4192 60.8584 35.4192 60.8399V58.826C35.4192 58.7521 35.3453 58.6781 35.2714 58.6781H34.8835C34.8097 58.6597 34.7542 58.7151 34.7358 58.789C34.7358 58.8075 34.7358 58.8075 34.7358 58.826V60.8399C34.7358 60.9139 34.7912 60.9878 34.8835 60.9878Z" fill="#CFCFCF"/>
<path d="M33.2027 60.9878H33.5906C33.6645 61.0063 33.7199 60.9509 33.7384 60.877C33.7384 60.8585 33.7384 60.8585 33.7384 60.84V58.3456C33.7384 58.2717 33.6645 58.1978 33.5906 58.1978H33.2027C33.1288 58.1793 33.0734 58.2347 33.055 58.3087C33.055 58.3271 33.055 58.3271 33.055 58.3456V60.84C32.9995 60.9324 33.0919 60.9878 33.2027 60.9878Z" fill="#CFCFCF"/>
<path d="M31.4662 60.988H31.8541C31.928 61.0065 31.9834 60.951 32.0018 60.8771C32.0018 60.8586 32.0018 60.8587 32.0018 60.8402V57.8654C32.0018 57.7915 31.928 57.7176 31.8541 57.7176H31.4662C31.3923 57.6991 31.3369 57.7545 31.3184 57.8284C31.3184 57.8469 31.3184 57.8469 31.3184 57.8654V60.8402C31.2815 60.9326 31.3738 60.988 31.4662 60.988Z" fill="#CFCFCF"/>
<path d="M29.7294 60.9878H30.1173C30.1912 61.0063 30.2466 60.9508 30.2651 60.8769C30.2651 60.8585 30.2651 60.8585 30.2651 60.84V57.3848C30.2651 57.3109 30.1912 57.237 30.1173 57.237H29.7294C29.6556 57.2185 29.6001 57.2739 29.5817 57.3478C29.5817 57.3663 29.5817 57.3663 29.5817 57.3848V60.84C29.5447 60.9324 29.6371 60.9878 29.7294 60.9878Z" fill="#CFCFCF"/>
<path d="M28.0128 60.9881H28.4007C28.4745 61.0066 28.5299 60.9511 28.5484 60.8772C28.5484 60.8588 28.5484 60.8588 28.5484 60.8403V56.9047C28.5484 56.8308 28.4745 56.7569 28.4007 56.7569H28.0128C27.9389 56.7384 27.8835 56.7938 27.865 56.8677C27.865 56.8862 27.865 56.8862 27.865 56.9047V60.8403C27.8096 60.9327 27.9204 60.9881 28.0128 60.9881Z" fill="#CFCFCF"/>
<path d="M26.2763 60.9879H26.6642C26.7381 61.0064 26.7935 60.951 26.812 60.877C26.812 60.8586 26.812 60.8586 26.812 60.8401V56.4241C26.812 56.3502 26.7381 56.2763 26.6642 56.2763H26.2763C26.2024 56.2578 26.147 56.3132 26.1285 56.3871C26.1285 56.4056 26.1285 56.4056 26.1285 56.4241V60.8401C26.0916 60.9325 26.184 60.9879 26.2763 60.9879Z" fill="#CFCFCF"/>
<path d="M24.557 60.9871H24.9449C25.0187 61.0056 25.0742 60.9502 25.0926 60.8763C25.0926 60.8578 25.0926 60.8578 25.0926 60.8393V55.8875C25.0926 55.8136 25.0187 55.7397 24.9449 55.7397H24.557C24.4831 55.7212 24.4277 55.7766 24.4092 55.8505C24.4092 55.869 24.4092 55.869 24.4092 55.8875V60.8393C24.3907 60.9132 24.4462 60.9686 24.52 60.9871C24.52 60.9871 24.5385 60.9871 24.557 60.9871Z" fill="#CFCFCF"/>
<path d="M22.8219 60.9879H23.2098C23.2837 61.0064 23.3391 60.951 23.3576 60.877C23.3576 60.8586 23.3576 60.8586 23.3576 60.8401V55.4079C23.3576 55.334 23.2837 55.2601 23.2098 55.2601H22.8219C22.7481 55.2416 22.6926 55.297 22.6742 55.3709C22.6742 55.3894 22.6742 55.3894 22.6742 55.4079V60.8401C22.6557 60.914 22.7111 60.9694 22.785 60.9879C22.8035 60.9879 22.8035 60.9879 22.8219 60.9879Z" fill="#CFCFCF"/>
<path d="M21.0851 60.9871H21.473C21.5469 61.0056 21.6023 60.9502 21.6208 60.8763C21.6208 60.8578 21.6208 60.8578 21.6208 60.8393V55.8875C21.6208 55.8136 21.5469 55.7397 21.473 55.7397H21.0851C21.0112 55.7212 20.9558 55.7766 20.9374 55.8505C20.9374 55.869 20.9374 55.869 20.9374 55.8875V60.8393C20.9189 60.9132 20.9743 60.9686 21.0482 60.9871C21.0667 60.9871 21.0851 60.9871 21.0851 60.9871Z" fill="#CFCFCF"/>
<path d="M19.3672 60.9879H19.755C19.8289 61.0064 19.8843 60.951 19.9028 60.877C19.9028 60.8586 19.9028 60.8586 19.9028 60.8401V56.4241C19.9028 56.3502 19.8289 56.2763 19.755 56.2763H19.3672C19.2933 56.2578 19.2379 56.3132 19.2194 56.3871C19.2194 56.4056 19.2194 56.4056 19.2194 56.4241V60.8401C19.2009 60.914 19.2563 60.9694 19.3302 60.9879C19.3487 60.9879 19.3487 60.9879 19.3672 60.9879Z" fill="#68C0DD"/>
<path d="M17.6321 60.9881H18.0199C18.0938 61.0066 18.1492 60.9511 18.1677 60.8772C18.1677 60.8588 18.1677 60.8588 18.1677 60.8403V56.9047C18.1677 56.8308 18.0938 56.7569 18.0199 56.7569H17.6321C17.5582 56.7384 17.5028 56.7938 17.4843 56.8677C17.4843 56.8862 17.4843 56.8862 17.4843 56.9047V60.8403C17.4658 60.9142 17.5212 60.9696 17.5951 60.9881C17.6136 60.9881 17.6321 60.9881 17.6321 60.9881Z" fill="#68C0DD"/>
<path d="M15.9138 60.9878H16.3017C16.3756 61.0063 16.431 60.9508 16.4495 60.8769C16.4495 60.8585 16.4495 60.8585 16.4495 60.84V57.3848C16.4495 57.3109 16.3756 57.237 16.3017 57.237H15.9138C15.84 57.2185 15.7846 57.2739 15.7661 57.3478C15.7661 57.3663 15.7661 57.3663 15.7661 57.3848V60.84C15.7661 60.9139 15.8215 60.9878 15.9138 60.9878Z" fill="#68C0DD"/>
<path d="M14.233 60.988H14.6208C14.6947 61.0065 14.7501 60.951 14.7686 60.8771C14.7686 60.8586 14.7686 60.8587 14.7686 60.8402V57.8654C14.7686 57.7915 14.6947 57.7176 14.6208 57.7176H14.233C14.1591 57.6991 14.1037 57.7545 14.0852 57.8284C14.0852 57.8469 14.0852 57.8469 14.0852 57.8654V60.8402C14.0298 60.9326 14.1221 60.988 14.233 60.988Z" fill="#68C0DD"/>
<path d="M12.4965 60.9878H12.8844C12.9583 61.0063 13.0137 60.9509 13.0321 60.877C13.0321 60.8585 13.0321 60.8585 13.0321 60.84V58.3456C13.0321 58.2717 12.9583 58.1978 12.8844 58.1978H12.4965C12.4226 58.1793 12.3672 58.2347 12.3487 58.3087C12.3487 58.3271 12.3487 58.3271 12.3487 58.3456V60.84C12.3118 60.9324 12.4041 60.9878 12.4965 60.9878Z" fill="#68C0DD"/>
<path d="M10.7597 60.9878H11.1476C11.2215 61.0062 11.2769 60.9508 11.2954 60.8769C11.2954 60.8584 11.2954 60.8584 11.2954 60.8399V58.826C11.2954 58.7521 11.2215 58.6781 11.1476 58.6781H10.7597C10.6859 58.6597 10.6304 58.7151 10.612 58.789C10.612 58.8075 10.612 58.8075 10.612 58.826V60.8399C10.575 60.9323 10.6674 60.9878 10.7597 60.9878Z" fill="#68C0DD"/>
<path d="M9.04143 60.9877H9.42931C9.50319 61.0062 9.55861 60.9508 9.57708 60.8769C9.57708 60.8584 9.57708 60.8584 9.57708 60.8399V59.3433C9.57708 59.2694 9.50319 59.1955 9.42931 59.1955H9.04143C8.96755 59.177 8.91214 59.2324 8.89367 59.3063C8.89367 59.3248 8.89367 59.3248 8.89367 59.3433V60.8399C8.83826 60.9323 8.94908 60.9877 9.04143 60.9877Z" fill="#68C0DD"/>
<path d="M7.30665 60.9877H7.69453C7.76841 61.0062 7.82382 60.9507 7.84229 60.8768C7.84229 60.8583 7.84229 60.8584 7.84229 60.8399V59.8236C7.84229 59.7497 7.76841 59.6758 7.69453 59.6758H7.30665C7.23277 59.6573 7.17735 59.7128 7.15888 59.7867C7.15888 59.8052 7.15888 59.8052 7.15888 59.8236V60.8399C7.12194 60.9323 7.2143 60.9877 7.30665 60.9877Z" fill="#68C0DD"/>
<path d="M39.0005 64.8309H30.0793" stroke="#A9A9A9" stroke-width="0.698833" stroke-miterlimit="10"/>
<path d="M27.6802 64.8309H18.7405" stroke="#A9A9A9" stroke-width="0.698833" stroke-miterlimit="10"/>
<path d="M27.6802 66.0873H18.7405" stroke="#A9A9A9" stroke-width="0.698833" stroke-miterlimit="10"/>
<path d="M27.6802 67.2882H18.7405" stroke="#A9A9A9" stroke-width="0.698833" stroke-miterlimit="10"/>
<path d="M27.6802 68.4893H18.7405" stroke="#A9A9A9" stroke-width="0.698833" stroke-miterlimit="10"/>
<path d="M27.6802 69.6902H18.7405" stroke="#A9A9A9" stroke-width="0.698833" stroke-miterlimit="10"/>
<path d="M16.282 64.8309H7.36075" stroke="#A9A9A9" stroke-width="0.698833" stroke-miterlimit="10"/>
<path d="M16.282 66.0873H7.36075" stroke="#A9A9A9" stroke-width="0.698833" stroke-miterlimit="10"/>
<path d="M16.282 67.2882H7.36075" stroke="#A9A9A9" stroke-width="0.698833" stroke-miterlimit="10"/>
<path d="M16.282 68.4893H7.36075" stroke="#A9A9A9" stroke-width="0.698833" stroke-miterlimit="10"/>
<path d="M16.282 69.6902H7.36075" stroke="#A9A9A9" stroke-width="0.698833" stroke-miterlimit="10"/>
<path d="M34.2732 71.9997V69.3206C34.2732 69.1543 34.1439 69.0065 33.9592 69.0065H31.595C31.4288 69.0065 31.281 69.1358 31.281 69.3206V71.9997H34.2732Z" fill="#EEEEEE"/>
<path d="M37.728 71.9997V69.3206C37.728 69.1543 37.5987 69.0065 37.414 69.0065H35.0498C34.8835 69.0065 34.7358 69.1358 34.7358 69.3206V71.9997H37.728Z" fill="#FB8877"/>
</g>
<defs>
<clipPath id="clip0_421_10546">
<rect width="390" height="80" fill="white"/>
</clipPath>
</defs>
</svg>
