<svg width="304" height="190" viewBox="0 0 304 190" fill="none" xmlns="http://www.w3.org/2000/svg">
<g clip-path="url(#clip0_462_30136)">
<rect width="303.158" height="189.474" rx="2.10526" fill="white"/>
<rect x="16.8409" y="27.7896" width="286.316" height="119.368" fill="#F7F7F7"/>
<path d="M-0.000823975 2.10526C-0.000823975 0.942556 0.941734 0 2.10444 0H301.052C302.215 0 303.157 0.942558 303.157 2.10526V12.6316H-0.000823975V2.10526Z" fill="#00243D"/>
<path d="M-0.000823975 12.2109H16.8413V189.474H2.10444C0.941733 189.474 -0.000823975 188.532 -0.000823975 187.369V12.2109Z" fill="#353535"/>
<rect x="17.0514" y="12.4215" width="285.895" height="15.1579" fill="white" stroke="white" stroke-width="0.421053"/>
<rect x="16.8409" y="5.05273" width="27.5789" height="2.52632" rx="1.05263" fill="white" fill-opacity="0.3"/>
<rect x="273.262" y="5.05273" width="24" height="2.52632" rx="1.05263" fill="white" fill-opacity="0.3"/>
<rect x="257.472" y="5.05273" width="11.7895" height="2.52632" rx="1.05263" fill="white" fill-opacity="0.3"/>
<rect x="244.631" y="16.6323" width="25.2632" height="6.73684" rx="1.05263" fill="#42B0D5"/>
<rect x="244.631" y="16.6323" width="25.2632" height="6.73684" rx="1.05263" fill="#00243D"/>
<rect x="248.841" y="18.7383" width="16.8421" height="2.52632" rx="1.05263" fill="white" fill-opacity="0.3"/>
<rect x="272" y="16.6323" width="25.2632" height="6.73684" rx="1.05263" fill="#42B0D5"/>
<rect x="272" y="16.6323" width="25.2632" height="6.73684" rx="1.05263" fill="#00243D"/>
<rect x="276.211" y="18.7383" width="16.8421" height="2.52632" rx="1.05263" fill="white" fill-opacity="0.3"/>
<rect x="4.84088" y="18.9473" width="7.36842" height="2.52632" rx="1.05263" fill="white" fill-opacity="0.3"/>
<rect x="4.84088" y="34.5264" width="7.36842" height="2.52632" rx="1.05263" fill="white" fill-opacity="0.3"/>
<rect x="4.84088" y="50.105" width="7.36842" height="2.52632" rx="1.05263" fill="white" fill-opacity="0.3"/>
<rect x="4.84088" y="65.6841" width="7.36842" height="2.52632" rx="1.05263" fill="white" fill-opacity="0.3"/>
<rect x="4.84088" y="81.2632" width="7.36842" height="2.52632" rx="1.05263" fill="white" fill-opacity="0.3"/>
<rect x="4.84088" y="96.8418" width="7.36842" height="2.52632" rx="1.05263" fill="white" fill-opacity="0.3"/>
<rect x="4.84088" y="112.421" width="7.36842" height="2.52632" rx="1.05263" fill="white" fill-opacity="0.3"/>
<rect x="4.84088" y="128" width="7.36842" height="2.52632" rx="1.05263" fill="white" fill-opacity="0.3"/>
<rect x="4.84088" y="143.579" width="7.36842" height="2.52632" rx="1.05263" fill="white" fill-opacity="0.3"/>
<rect x="4.84088" y="159.158" width="7.36842" height="2.52632" rx="1.05263" fill="white" fill-opacity="0.3"/>
<circle cx="8.63034" cy="6.3161" r="3.15789" fill="white" fill-opacity="0.3"/>
<rect x="22.736" y="18.9473" width="20.4211" height="2.52632" rx="1.05263" fill="#DBDBDB"/>
<line x1="16.8409" y1="27.6843" x2="303.157" y2="27.6843" stroke="#DBDBDB" stroke-width="0.210526"/>
<rect x="22.841" y="33.7889" width="274.316" height="31.3684" rx="0.947368" fill="white" stroke="#DBDBDB" stroke-width="0.210526"/>
<circle cx="39.9985" cy="42.7359" r="4.21053" fill="#00243D"/>
<rect x="35.7879" y="53.2622" width="14.7368" height="1.68421" rx="0.842105" fill="#DBDBDB"/>
<rect x="35.7879" y="58.1045" width="21.0526" height="2.52632" rx="1.05263" fill="#DBDBDB"/>
<line x1="74.8406" y1="38.5254" x2="74.8406" y2="60.6307" stroke="#DBDBDB" stroke-width="0.210526" stroke-dasharray="0.42 0.42"/>
<circle cx="96.8406" cy="42.7359" r="4.21053" fill="#00243D"/>
<rect x="92.63" y="53.2622" width="14.7368" height="1.68421" rx="0.842105" fill="#DBDBDB"/>
<rect x="92.63" y="58.1045" width="21.0526" height="2.52632" rx="1.05263" fill="#DBDBDB"/>
<line x1="131.683" y1="38.5254" x2="131.683" y2="60.6307" stroke="#DBDBDB" stroke-width="0.210526" stroke-dasharray="0.42 0.42"/>
<circle cx="153.683" cy="42.7359" r="4.21053" fill="#00243D"/>
<rect x="149.472" y="53.2622" width="14.7368" height="1.68421" rx="0.842105" fill="#DBDBDB"/>
<rect x="149.472" y="58.1045" width="21.0526" height="2.52632" rx="1.05263" fill="#DBDBDB"/>
<line x1="188.525" y1="38.5254" x2="188.525" y2="60.6307" stroke="#DBDBDB" stroke-width="0.210526" stroke-dasharray="0.42 0.42"/>
<circle cx="210.525" cy="42.7359" r="4.21053" fill="#00243D"/>
<rect x="206.314" y="53.2622" width="14.7368" height="1.68421" rx="0.842105" fill="#DBDBDB"/>
<rect x="206.314" y="58.1045" width="21.0526" height="2.52632" rx="1.05263" fill="#DBDBDB"/>
<line x1="245.367" y1="38.5254" x2="245.367" y2="60.6307" stroke="#DBDBDB" stroke-width="0.210526" stroke-dasharray="0.42 0.42"/>
<circle cx="267.367" cy="42.7359" r="4.21053" fill="#00243D"/>
<rect x="263.156" y="53.2622" width="14.7368" height="1.68421" rx="0.842105" fill="#DBDBDB"/>
<rect x="263.156" y="58.1045" width="21.0526" height="2.52632" rx="1.05263" fill="#DBDBDB"/>
<rect x="22.841" y="71.2644" width="62.9474" height="69.2632" rx="0.947368" fill="white" stroke="#DBDBDB" stroke-width="0.210526"/>
<rect x="28.6309" y="77.0547" width="5.26316" height="5.26316" rx="1.05263" fill="#DBDBDB"/>
<rect x="35.9993" y="78.4233" width="31.5789" height="2.52632" rx="1.05263" fill="#DBDBDB"/>
<rect x="28.6309" y="90.7388" width="14.7368" height="1.68421" rx="0.842105" fill="#DBDBDB"/>
<rect x="28.6309" y="94.5283" width="27.3684" height="2.52632" rx="1.05263" fill="#DBDBDB"/>
<rect x="28.6309" y="103.37" width="14.7368" height="1.68421" rx="0.842105" fill="#DBDBDB"/>
<rect x="28.6309" y="107.16" width="27.3684" height="2.52632" rx="1.05263" fill="#DBDBDB"/>
<rect x="28.6309" y="116.002" width="50.5263" height="1.68421" rx="0.842105" fill="#DBDBDB"/>
<rect x="28.6309" y="119.792" width="50.5263" height="1.68421" rx="0.842105" fill="#DBDBDB"/>
<rect x="28.6309" y="123.581" width="50.5263" height="1.68421" rx="0.842105" fill="#DBDBDB"/>
<rect x="28.6309" y="127.371" width="50.5263" height="1.68421" rx="0.842105" fill="#DBDBDB"/>
<rect x="28.6309" y="131.16" width="50.5263" height="1.68421" rx="0.842105" fill="#DBDBDB"/>
<rect x="22.736" y="153.053" width="42.1053" height="2.52632" rx="1.05263" fill="#DBDBDB"/>
<rect x="22.736" y="157.685" width="52.6316" height="1.68421" rx="0.842105" fill="#DBDBDB"/>
<rect x="93.6842" y="70.948" width="62.9474" height="69.2632" rx="0.947368" fill="white" stroke="#DBDBDB" stroke-width="0.210526"/>
<rect x="99.4741" y="76.7383" width="5.26316" height="5.26316" rx="1.05263" fill="#DBDBDB"/>
<rect x="106.843" y="78.1069" width="31.5789" height="2.52632" rx="1.05263" fill="#DBDBDB"/>
<rect x="99.4741" y="90.4224" width="14.7368" height="1.68421" rx="0.842105" fill="#DBDBDB"/>
<rect x="99.4741" y="94.2119" width="27.3684" height="2.52632" rx="1.05263" fill="#DBDBDB"/>
<rect x="99.4741" y="103.054" width="14.7368" height="1.68421" rx="0.842105" fill="#DBDBDB"/>
<rect x="99.4742" y="106.843" width="27.3684" height="2.52632" rx="1.05263" fill="#DBDBDB"/>
<rect x="99.4741" y="115.686" width="14.7368" height="1.68421" rx="0.842105" fill="#DBDBDB"/>
<rect x="99.4741" y="119.475" width="27.3684" height="2.52632" rx="1.05263" fill="#DBDBDB"/>
<rect x="99.5794" y="128.422" width="20.8421" height="6.52632" rx="0.947368" stroke="#DBDBDB" stroke-width="0.210526"/>
<rect x="102.632" y="130.423" width="14.7368" height="2.52632" rx="1.05263" fill="#DBDBDB"/>
<rect x="124.843" y="128.422" width="20.8421" height="6.52632" rx="0.947368" stroke="#DBDBDB" stroke-width="0.210526"/>
<rect x="127.895" y="130.423" width="14.7368" height="2.52632" rx="1.05263" fill="#DBDBDB"/>
<rect x="163.894" y="71.2644" width="62.9474" height="69.2632" rx="0.947368" fill="white" stroke="#DBDBDB" stroke-width="0.210526"/>
<rect x="169.684" y="77.0547" width="5.26316" height="5.26316" rx="1.05263" fill="#DBDBDB"/>
<rect x="177.052" y="78.4233" width="31.5789" height="2.52632" rx="1.05263" fill="#DBDBDB"/>
<rect x="173.894" y="92.6333" width="14.7368" height="1.68421" rx="0.842105" fill="#DBDBDB"/>
<rect x="173.894" y="96.4229" width="27.3684" height="2.52632" rx="1.05263" fill="#DBDBDB"/>
<rect x="173.894" y="104.422" width="14.7368" height="1.68421" rx="0.842105" fill="#DBDBDB"/>
<rect x="173.894" y="108.212" width="27.3684" height="2.52632" rx="1.05263" fill="#DBDBDB"/>
<rect x="173.894" y="116.213" width="14.7368" height="1.68421" rx="0.842105" fill="#DBDBDB"/>
<rect x="173.894" y="120.002" width="27.3684" height="2.52632" rx="1.05263" fill="#DBDBDB"/>
<rect x="173.894" y="128.002" width="14.7368" height="1.68421" rx="0.842105" fill="#DBDBDB"/>
<rect x="173.894" y="131.792" width="27.3684" height="2.52632" rx="1.05263" fill="#DBDBDB"/>
<path d="M170.842 126.95L170.842 93.0552" stroke="#CFCFCF" stroke-width="0.631579" stroke-linecap="round" stroke-linejoin="round"/>
<circle cx="170.842" cy="93.3703" r="1.47368" fill="#DBDBDB" stroke="white" stroke-width="0.631579"/>
<circle cx="170.842" cy="105.159" r="1.47368" fill="#DBDBDB" stroke="white" stroke-width="0.631579"/>
<circle cx="170.842" cy="116.949" r="1.47368" fill="#DBDBDB" stroke="white" stroke-width="0.631579"/>
<circle cx="170.842" cy="128.738" r="1.47368" fill="#DBDBDB" stroke="white" stroke-width="0.631579"/>
<rect x="234.21" y="71.2644" width="62.9474" height="69.2632" rx="0.947368" fill="white" stroke="#DBDBDB" stroke-width="0.210526"/>
<rect x="240" y="77.0547" width="5.26316" height="5.26316" rx="1.05263" fill="#DBDBDB"/>
<rect x="247.369" y="78.4233" width="31.5789" height="2.52632" rx="1.05263" fill="#DBDBDB"/>
<rect x="240" y="90.7388" width="14.7368" height="1.68421" rx="0.842105" fill="#DBDBDB"/>
<rect x="240" y="94.5283" width="27.3684" height="2.52632" rx="1.05263" fill="#DBDBDB"/>
<rect x="240" y="103.37" width="14.7368" height="1.68421" rx="0.842105" fill="#DBDBDB"/>
<rect x="240" y="107.16" width="27.3684" height="2.52632" rx="1.05263" fill="#DBDBDB"/>
<rect x="240" y="116.002" width="50.5263" height="1.68421" rx="0.842105" fill="#DBDBDB"/>
<rect x="240" y="119.792" width="50.5263" height="1.68421" rx="0.842105" fill="#DBDBDB"/>
<rect x="240" y="123.581" width="50.5263" height="1.68421" rx="0.842105" fill="#DBDBDB"/>
<rect x="240" y="127.371" width="50.5263" height="1.68421" rx="0.842105" fill="#DBDBDB"/>
<rect x="240" y="131.16" width="50.5263" height="1.68421" rx="0.842105" fill="#DBDBDB"/>
<rect x="22.6308" y="165.157" width="274.737" height="151.789" stroke="#DBDBDB" stroke-width="0.210526"/>
<g clip-path="url(#clip1_462_30136)">
<mask id="path-104-inside-1_462_30136" fill="white">
<path d="M22.736 165.263H31.157V172.842H22.736V165.263Z"/>
</mask>
<path d="M22.736 165.263H31.157V172.842H22.736V165.263Z" fill="#F7F7F7"/>
</g>
<path d="M31.157 172.842H31.2623V172.526H31.157H31.0518V172.842H31.157ZM31.157 171.894H31.2623V171.263H31.157H31.0518V171.894H31.157ZM31.157 170.631H31.2623V170H31.157H31.0518V170.631H31.157ZM31.157 169.368H31.2623V168.736H31.157H31.0518V169.368H31.157ZM31.157 168.105H31.2623V167.473H31.157H31.0518V168.105H31.157ZM31.157 166.842H31.2623V166.21H31.157H31.0518V166.842H31.157ZM31.157 165.578H31.2623V165.263H31.157H31.0518V165.578H31.157ZM31.157 172.842H31.3675V172.526H31.157H30.9465V172.842H31.157ZM31.157 171.894H31.3675V171.263H31.157H30.9465V171.894H31.157ZM31.157 170.631H31.3675V170H31.157H30.9465V170.631H31.157ZM31.157 169.368H31.3675V168.736H31.157H30.9465V169.368H31.157ZM31.157 168.105H31.3675V167.473H31.157H30.9465V168.105H31.157ZM31.157 166.842H31.3675V166.21H31.157H30.9465V166.842H31.157ZM31.157 165.578H31.3675V165.263H31.157H30.9465V165.578H31.157Z" fill="#DBDBDB" mask="url(#path-104-inside-1_462_30136)"/>
<rect x="25.3675" y="167.474" width="3.15789" height="3.15789" rx="0.947368" stroke="#DBDBDB" stroke-width="0.210526"/>
<g clip-path="url(#clip2_462_30136)">
<mask id="path-107-inside-2_462_30136" fill="white">
<path d="M31.1571 165.263H55.5994V172.842H31.1571V165.263Z"/>
</mask>
<path d="M31.1571 165.263H55.5994V172.842H31.1571V165.263Z" fill="#F7F7F7"/>
</g>
<path d="M55.5994 172.842H55.7047V172.526H55.5994H55.4941V172.842H55.5994ZM55.5994 171.894H55.7047V171.263H55.5994H55.4941V171.894H55.5994ZM55.5994 170.631H55.7047V170H55.5994H55.4941V170.631H55.5994ZM55.5994 169.368H55.7047V168.736H55.5994H55.4941V169.368H55.5994ZM55.5994 168.105H55.7047V167.473H55.5994H55.4941V168.105H55.5994ZM55.5994 166.842H55.7047V166.21H55.5994H55.4941V166.842H55.5994ZM55.5994 165.578H55.7047V165.263H55.5994H55.4941V165.578H55.5994ZM55.5994 172.842H55.8099V172.526H55.5994H55.3889V172.842H55.5994ZM55.5994 171.894H55.8099V171.263H55.5994H55.3889V171.894H55.5994ZM55.5994 170.631H55.8099V170H55.5994H55.3889V170.631H55.5994ZM55.5994 169.368H55.8099V168.736H55.5994H55.3889V169.368H55.5994ZM55.5994 168.105H55.8099V167.473H55.5994H55.3889V168.105H55.5994ZM55.5994 166.842H55.8099V166.21H55.5994H55.3889V166.842H55.5994ZM55.5994 165.578H55.8099V165.263H55.5994H55.3889V165.578H55.5994Z" fill="#DBDBDB" mask="url(#path-107-inside-2_462_30136)"/>
<rect x="33.6834" y="167.789" width="12.6316" height="2.52632" rx="1.05263" fill="#DBDBDB"/>
<g clip-path="url(#clip3_462_30136)">
<mask id="path-110-inside-3_462_30136" fill="white">
<path d="M55.5994 165.263H80.0417V172.842H55.5994V165.263Z"/>
</mask>
<path d="M55.5994 165.263H80.0417V172.842H55.5994V165.263Z" fill="#F7F7F7"/>
</g>
<path d="M80.0417 172.842H80.1469V172.526H80.0417H79.9364V172.842H80.0417ZM80.0417 171.894H80.1469V171.263H80.0417H79.9364V171.894H80.0417ZM80.0417 170.631H80.1469V170H80.0417H79.9364V170.631H80.0417ZM80.0417 169.368H80.1469V168.736H80.0417H79.9364V169.368H80.0417ZM80.0417 168.105H80.1469V167.473H80.0417H79.9364V168.105H80.0417ZM80.0417 166.842H80.1469V166.21H80.0417H79.9364V166.842H80.0417ZM80.0417 165.578H80.1469V165.263H80.0417H79.9364V165.578H80.0417ZM80.0417 172.842H80.2522V172.526H80.0417H79.8312V172.842H80.0417ZM80.0417 171.894H80.2522V171.263H80.0417H79.8312V171.894H80.0417ZM80.0417 170.631H80.2522V170H80.0417H79.8312V170.631H80.0417ZM80.0417 169.368H80.2522V168.736H80.0417H79.8312V169.368H80.0417ZM80.0417 168.105H80.2522V167.473H80.0417H79.8312V168.105H80.0417ZM80.0417 166.842H80.2522V166.21H80.0417H79.8312V166.842H80.0417ZM80.0417 165.578H80.2522V165.263H80.0417H79.8312V165.578H80.0417Z" fill="#DBDBDB" mask="url(#path-110-inside-3_462_30136)"/>
<rect x="58.1257" y="167.789" width="12.6316" height="2.52632" rx="1.05263" fill="#DBDBDB"/>
<g clip-path="url(#clip4_462_30136)">
<mask id="path-113-inside-4_462_30136" fill="white">
<path d="M80.0417 165.263H104.484V172.842H80.0417V165.263Z"/>
</mask>
<path d="M80.0417 165.263H104.484V172.842H80.0417V165.263Z" fill="#F7F7F7"/>
</g>
<path d="M104.484 172.842H104.589V172.526H104.484H104.379V172.842H104.484ZM104.484 171.894H104.589V171.263H104.484H104.379V171.894H104.484ZM104.484 170.631H104.589V170H104.484H104.379V170.631H104.484ZM104.484 169.368H104.589V168.736H104.484H104.379V169.368H104.484ZM104.484 168.105H104.589V167.473H104.484H104.379V168.105H104.484ZM104.484 166.842H104.589V166.21H104.484H104.379V166.842H104.484ZM104.484 165.578H104.589V165.263H104.484H104.379V165.578H104.484ZM104.484 172.842H104.694V172.526H104.484H104.273V172.842H104.484ZM104.484 171.894H104.694V171.263H104.484H104.273V171.894H104.484ZM104.484 170.631H104.694V170H104.484H104.273V170.631H104.484ZM104.484 169.368H104.694V168.736H104.484H104.273V169.368H104.484ZM104.484 168.105H104.694V167.473H104.484H104.273V168.105H104.484ZM104.484 166.842H104.694V166.21H104.484H104.273V166.842H104.484ZM104.484 165.578H104.694V165.263H104.484H104.273V165.578H104.484Z" fill="#DBDBDB" mask="url(#path-113-inside-4_462_30136)"/>
<rect x="82.568" y="167.789" width="12.6316" height="2.52632" rx="1.05263" fill="#DBDBDB"/>
<g clip-path="url(#clip5_462_30136)">
<mask id="path-116-inside-5_462_30136" fill="white">
<path d="M104.484 165.263H128.926V172.842H104.484V165.263Z"/>
</mask>
<path d="M104.484 165.263H128.926V172.842H104.484V165.263Z" fill="#F7F7F7"/>
</g>
<path d="M128.926 172.842H129.032V172.526H128.926H128.821V172.842H128.926ZM128.926 171.894H129.032V171.263H128.926H128.821V171.894H128.926ZM128.926 170.631H129.032V170H128.926H128.821V170.631H128.926ZM128.926 169.368H129.032V168.736H128.926H128.821V169.368H128.926ZM128.926 168.105H129.032V167.473H128.926H128.821V168.105H128.926ZM128.926 166.842H129.032V166.21H128.926H128.821V166.842H128.926ZM128.926 165.578H129.032V165.263H128.926H128.821V165.578H128.926ZM128.926 172.842H129.137V172.526H128.926H128.716V172.842H128.926ZM128.926 171.894H129.137V171.263H128.926H128.716V171.894H128.926ZM128.926 170.631H129.137V170H128.926H128.716V170.631H128.926ZM128.926 169.368H129.137V168.736H128.926H128.716V169.368H128.926ZM128.926 168.105H129.137V167.473H128.926H128.716V168.105H128.926ZM128.926 166.842H129.137V166.21H128.926H128.716V166.842H128.926ZM128.926 165.578H129.137V165.263H128.926H128.716V165.578H128.926Z" fill="#DBDBDB" mask="url(#path-116-inside-5_462_30136)"/>
<rect x="107.01" y="167.789" width="12.6316" height="2.52632" rx="1.05263" fill="#DBDBDB"/>
<g clip-path="url(#clip6_462_30136)">
<mask id="path-119-inside-6_462_30136" fill="white">
<path d="M128.926 165.263H153.369V172.842H128.926V165.263Z"/>
</mask>
<path d="M128.926 165.263H153.369V172.842H128.926V165.263Z" fill="#F7F7F7"/>
</g>
<path d="M153.369 172.842H153.474V172.526H153.369H153.263V172.842H153.369ZM153.369 171.894H153.474V171.263H153.369H153.263V171.894H153.369ZM153.369 170.631H153.474V170H153.369H153.263V170.631H153.369ZM153.369 169.368H153.474V168.736H153.369H153.263V169.368H153.369ZM153.369 168.105H153.474V167.473H153.369H153.263V168.105H153.369ZM153.369 166.842H153.474V166.21H153.369H153.263V166.842H153.369ZM153.369 165.578H153.474V165.263H153.369H153.263V165.578H153.369ZM153.369 172.842H153.579V172.526H153.369H153.158V172.842H153.369ZM153.369 171.894H153.579V171.263H153.369H153.158V171.894H153.369ZM153.369 170.631H153.579V170H153.369H153.158V170.631H153.369ZM153.369 169.368H153.579V168.736H153.369H153.158V169.368H153.369ZM153.369 168.105H153.579V167.473H153.369H153.158V168.105H153.369ZM153.369 166.842H153.579V166.21H153.369H153.158V166.842H153.369ZM153.369 165.578H153.579V165.263H153.369H153.158V165.578H153.369Z" fill="#DBDBDB" mask="url(#path-119-inside-6_462_30136)"/>
<rect x="131.453" y="167.789" width="12.6316" height="2.52632" rx="1.05263" fill="#DBDBDB"/>
<g clip-path="url(#clip7_462_30136)">
<mask id="path-122-inside-7_462_30136" fill="white">
<path d="M153.369 165.263H177.811V172.842H153.369V165.263Z"/>
</mask>
<path d="M153.369 165.263H177.811V172.842H153.369V165.263Z" fill="#F7F7F7"/>
</g>
<path d="M177.811 172.842H177.916V172.526H177.811H177.706V172.842H177.811ZM177.811 171.894H177.916V171.263H177.811H177.706V171.894H177.811ZM177.811 170.631H177.916V170H177.811H177.706V170.631H177.811ZM177.811 169.368H177.916V168.736H177.811H177.706V169.368H177.811ZM177.811 168.105H177.916V167.473H177.811H177.706V168.105H177.811ZM177.811 166.842H177.916V166.21H177.811H177.706V166.842H177.811ZM177.811 165.578H177.916V165.263H177.811H177.706V165.578H177.811ZM177.811 172.842H178.022V172.526H177.811H177.601V172.842H177.811ZM177.811 171.894H178.022V171.263H177.811H177.601V171.894H177.811ZM177.811 170.631H178.022V170H177.811H177.601V170.631H177.811ZM177.811 169.368H178.022V168.736H177.811H177.601V169.368H177.811ZM177.811 168.105H178.022V167.473H177.811H177.601V168.105H177.811ZM177.811 166.842H178.022V166.21H177.811H177.601V166.842H177.811ZM177.811 165.578H178.022V165.263H177.811H177.601V165.578H177.811Z" fill="#DBDBDB" mask="url(#path-122-inside-7_462_30136)"/>
<rect x="155.895" y="167.789" width="12.6316" height="2.52632" rx="1.05263" fill="#DBDBDB"/>
<g clip-path="url(#clip8_462_30136)">
<mask id="path-125-inside-8_462_30136" fill="white">
<path d="M177.811 165.263H202.253V172.842H177.811V165.263Z"/>
</mask>
<path d="M177.811 165.263H202.253V172.842H177.811V165.263Z" fill="#F7F7F7"/>
</g>
<path d="M202.253 172.842H202.359V172.526H202.253H202.148V172.842H202.253ZM202.253 171.894H202.359V171.263H202.253H202.148V171.894H202.253ZM202.253 170.631H202.359V170H202.253H202.148V170.631H202.253ZM202.253 169.368H202.359V168.736H202.253H202.148V169.368H202.253ZM202.253 168.105H202.359V167.473H202.253H202.148V168.105H202.253ZM202.253 166.842H202.359V166.21H202.253H202.148V166.842H202.253ZM202.253 165.578H202.359V165.263H202.253H202.148V165.578H202.253ZM202.253 172.842H202.464V172.526H202.253H202.043V172.842H202.253ZM202.253 171.894H202.464V171.263H202.253H202.043V171.894H202.253ZM202.253 170.631H202.464V170H202.253H202.043V170.631H202.253ZM202.253 169.368H202.464V168.736H202.253H202.043V169.368H202.253ZM202.253 168.105H202.464V167.473H202.253H202.043V168.105H202.253ZM202.253 166.842H202.464V166.21H202.253H202.043V166.842H202.253ZM202.253 165.578H202.464V165.263H202.253H202.043V165.578H202.253Z" fill="#DBDBDB" mask="url(#path-125-inside-8_462_30136)"/>
<rect x="180.337" y="167.789" width="12.6316" height="2.52632" rx="1.05263" fill="#DBDBDB"/>
<g clip-path="url(#clip9_462_30136)">
<mask id="path-128-inside-9_462_30136" fill="white">
<path d="M202.253 165.263H226.696V172.842H202.253V165.263Z"/>
</mask>
<path d="M202.253 165.263H226.696V172.842H202.253V165.263Z" fill="#F7F7F7"/>
</g>
<path d="M226.696 172.842H226.801V172.526H226.696H226.59V172.842H226.696ZM226.696 171.894H226.801V171.263H226.696H226.59V171.894H226.696ZM226.696 170.631H226.801V170H226.696H226.59V170.631H226.696ZM226.696 169.368H226.801V168.736H226.696H226.59V169.368H226.696ZM226.696 168.105H226.801V167.473H226.696H226.59V168.105H226.696ZM226.696 166.842H226.801V166.21H226.696H226.59V166.842H226.696ZM226.696 165.578H226.801V165.263H226.696H226.59V165.578H226.696ZM226.696 172.842H226.906V172.526H226.696H226.485V172.842H226.696ZM226.696 171.894H226.906V171.263H226.696H226.485V171.894H226.696ZM226.696 170.631H226.906V170H226.696H226.485V170.631H226.696ZM226.696 169.368H226.906V168.736H226.696H226.485V169.368H226.696ZM226.696 168.105H226.906V167.473H226.696H226.485V168.105H226.696ZM226.696 166.842H226.906V166.21H226.696H226.485V166.842H226.696ZM226.696 165.578H226.906V165.263H226.696H226.485V165.578H226.696Z" fill="#DBDBDB" mask="url(#path-128-inside-9_462_30136)"/>
<rect x="204.78" y="167.789" width="12.6316" height="2.52632" rx="1.05263" fill="#DBDBDB"/>
<g clip-path="url(#clip10_462_30136)">
<mask id="path-131-inside-10_462_30136" fill="white">
<path d="M226.696 165.263H251.138V172.842H226.696V165.263Z"/>
</mask>
<path d="M226.696 165.263H251.138V172.842H226.696V165.263Z" fill="#F7F7F7"/>
</g>
<path d="M251.138 172.842H251.243V172.526H251.138H251.033V172.842H251.138ZM251.138 171.894H251.243V171.263H251.138H251.033V171.894H251.138ZM251.138 170.631H251.243V170H251.138H251.033V170.631H251.138ZM251.138 169.368H251.243V168.736H251.138H251.033V169.368H251.138ZM251.138 168.105H251.243V167.473H251.138H251.033V168.105H251.138ZM251.138 166.842H251.243V166.21H251.138H251.033V166.842H251.138ZM251.138 165.578H251.243V165.263H251.138H251.033V165.578H251.138ZM251.138 172.842H251.348V172.526H251.138H250.927V172.842H251.138ZM251.138 171.894H251.348V171.263H251.138H250.927V171.894H251.138ZM251.138 170.631H251.348V170H251.138H250.927V170.631H251.138ZM251.138 169.368H251.348V168.736H251.138H250.927V169.368H251.138ZM251.138 168.105H251.348V167.473H251.138H250.927V168.105H251.138ZM251.138 166.842H251.348V166.21H251.138H250.927V166.842H251.138ZM251.138 165.578H251.348V165.263H251.138H250.927V165.578H251.138Z" fill="#DBDBDB" mask="url(#path-131-inside-10_462_30136)"/>
<rect x="229.222" y="167.789" width="12.6316" height="2.52632" rx="1.05263" fill="#DBDBDB"/>
<g clip-path="url(#clip11_462_30136)">
<mask id="path-134-inside-11_462_30136" fill="white">
<path d="M251.138 165.263H275.58V172.842H251.138V165.263Z"/>
</mask>
<path d="M251.138 165.263H275.58V172.842H251.138V165.263Z" fill="#F7F7F7"/>
</g>
<path d="M275.58 172.842H275.686V172.526H275.58H275.475V172.842H275.58ZM275.58 171.894H275.686V171.263H275.58H275.475V171.894H275.58ZM275.58 170.631H275.686V170H275.58H275.475V170.631H275.58ZM275.58 169.368H275.686V168.736H275.58H275.475V169.368H275.58ZM275.58 168.105H275.686V167.473H275.58H275.475V168.105H275.58ZM275.58 166.842H275.686V166.21H275.58H275.475V166.842H275.58ZM275.58 165.578H275.686V165.263H275.58H275.475V165.578H275.58ZM275.58 172.842H275.791V172.526H275.58H275.37V172.842H275.58ZM275.58 171.894H275.791V171.263H275.58H275.37V171.894H275.58ZM275.58 170.631H275.791V170H275.58H275.37V170.631H275.58ZM275.58 169.368H275.791V168.736H275.58H275.37V169.368H275.58ZM275.58 168.105H275.791V167.473H275.58H275.37V168.105H275.58ZM275.58 166.842H275.791V166.21H275.58H275.37V166.842H275.58ZM275.58 165.578H275.791V165.263H275.58H275.37V165.578H275.58Z" fill="#DBDBDB" mask="url(#path-134-inside-11_462_30136)"/>
<rect x="253.664" y="167.789" width="12.6316" height="2.52632" rx="1.05263" fill="#DBDBDB"/>
<g clip-path="url(#clip12_462_30136)">
<mask id="path-137-inside-12_462_30136" fill="white">
<path d="M275.58 165.263H297.262V172.842H275.58V165.263Z"/>
</mask>
<path d="M275.58 165.263H297.262V172.842H275.58V165.263Z" fill="#F7F7F7"/>
</g>
<path d="M297.262 172.842H297.367V172.526H297.262H297.157V172.842H297.262ZM297.262 171.894H297.367V171.263H297.262H297.157V171.894H297.262ZM297.262 170.631H297.367V170H297.262H297.157V170.631H297.262ZM297.262 169.368H297.367V168.736H297.262H297.157V169.368H297.262ZM297.262 168.105H297.367V167.473H297.262H297.157V168.105H297.262ZM297.262 166.842H297.367V166.21H297.262H297.157V166.842H297.262ZM297.262 165.578H297.367V165.263H297.262H297.157V165.578H297.262ZM297.262 172.842H297.472V172.526H297.262H297.051V172.842H297.262ZM297.262 171.894H297.472V171.263H297.262H297.051V171.894H297.262ZM297.262 170.631H297.472V170H297.262H297.051V170.631H297.262ZM297.262 169.368H297.472V168.736H297.262H297.051V169.368H297.262ZM297.262 168.105H297.472V167.473H297.262H297.051V168.105H297.262ZM297.262 166.842H297.472V166.21H297.262H297.051V166.842H297.262ZM297.262 165.578H297.472V165.263H297.262H297.051V165.578H297.262Z" fill="#DBDBDB" mask="url(#path-137-inside-12_462_30136)"/>
<rect x="277.822" y="167.789" width="11.2049" height="2.52632" rx="1.05263" fill="#DBDBDB"/>
<g clip-path="url(#clip13_462_30136)">
<mask id="path-140-inside-13_462_30136" fill="white">
<path d="M22.736 172.842H31.157V180.421H22.736V172.842Z"/>
</mask>
<path d="M22.736 172.842H31.157V180.421H22.736V172.842Z" fill="white"/>
</g>
<path d="M31.157 180.421H31.2623V180.105H31.157H31.0518V180.421H31.157ZM31.157 179.473H31.2623V178.842H31.157H31.0518V179.473H31.157ZM31.157 178.21H31.2623V177.579H31.157H31.0518V178.21H31.157ZM31.157 176.947H31.2623V176.315H31.157H31.0518V176.947H31.157ZM31.157 175.684H31.2623V175.052H31.157H31.0518V175.684H31.157ZM31.157 174.421H31.2623V173.789H31.157H31.0518V174.421H31.157ZM31.157 173.158H31.2623V172.842H31.157H31.0518V173.158H31.157ZM31.157 180.421H31.3675V180.105H31.157H30.9465V180.421H31.157ZM31.157 179.473H31.3675V178.842H31.157H30.9465V179.473H31.157ZM31.157 178.21H31.3675V177.579H31.157H30.9465V178.21H31.157ZM31.157 176.947H31.3675V176.315H31.157H30.9465V176.947H31.157ZM31.157 175.684H31.3675V175.052H31.157H30.9465V175.684H31.157ZM31.157 174.421H31.3675V173.789H31.157H30.9465V174.421H31.157ZM31.157 173.158H31.3675V172.842H31.157H30.9465V173.158H31.157Z" fill="#DBDBDB" mask="url(#path-140-inside-13_462_30136)"/>
<rect x="25.3675" y="175.053" width="3.15789" height="3.15789" rx="0.947368" stroke="#DBDBDB" stroke-width="0.210526"/>
<g clip-path="url(#clip14_462_30136)">
<mask id="path-143-inside-14_462_30136" fill="white">
<path d="M31.1571 172.842H55.5994V180.421H31.1571V172.842Z"/>
</mask>
<path d="M31.1571 172.842H55.5994V180.421H31.1571V172.842Z" fill="white"/>
</g>
<path d="M55.5994 180.421H55.7047V180.105H55.5994H55.4941V180.421H55.5994ZM55.5994 179.473H55.7047V178.842H55.5994H55.4941V179.473H55.5994ZM55.5994 178.21H55.7047V177.579H55.5994H55.4941V178.21H55.5994ZM55.5994 176.947H55.7047V176.315H55.5994H55.4941V176.947H55.5994ZM55.5994 175.684H55.7047V175.052H55.5994H55.4941V175.684H55.5994ZM55.5994 174.421H55.7047V173.789H55.5994H55.4941V174.421H55.5994ZM55.5994 173.158H55.7047V172.842H55.5994H55.4941V173.158H55.5994ZM55.5994 180.421H55.8099V180.105H55.5994H55.3889V180.421H55.5994ZM55.5994 179.473H55.8099V178.842H55.5994H55.3889V179.473H55.5994ZM55.5994 178.21H55.8099V177.579H55.5994H55.3889V178.21H55.5994ZM55.5994 176.947H55.8099V176.315H55.5994H55.3889V176.947H55.5994ZM55.5994 175.684H55.8099V175.052H55.5994H55.3889V175.684H55.5994ZM55.5994 174.421H55.8099V173.789H55.5994H55.3889V174.421H55.5994ZM55.5994 173.158H55.8099V172.842H55.5994H55.3889V173.158H55.5994Z" fill="#DBDBDB" mask="url(#path-143-inside-14_462_30136)"/>
<rect x="33.6834" y="175.368" width="12.6316" height="2.52632" rx="1.05263" fill="#DBDBDB"/>
<g clip-path="url(#clip15_462_30136)">
<mask id="path-146-inside-15_462_30136" fill="white">
<path d="M55.5994 172.842H80.0417V180.421H55.5994V172.842Z"/>
</mask>
<path d="M55.5994 172.842H80.0417V180.421H55.5994V172.842Z" fill="white"/>
</g>
<path d="M80.0417 180.421H80.1469V180.105H80.0417H79.9364V180.421H80.0417ZM80.0417 179.473H80.1469V178.842H80.0417H79.9364V179.473H80.0417ZM80.0417 178.21H80.1469V177.579H80.0417H79.9364V178.21H80.0417ZM80.0417 176.947H80.1469V176.315H80.0417H79.9364V176.947H80.0417ZM80.0417 175.684H80.1469V175.052H80.0417H79.9364V175.684H80.0417ZM80.0417 174.421H80.1469V173.789H80.0417H79.9364V174.421H80.0417ZM80.0417 173.158H80.1469V172.842H80.0417H79.9364V173.158H80.0417ZM80.0417 180.421H80.2522V180.105H80.0417H79.8312V180.421H80.0417ZM80.0417 179.473H80.2522V178.842H80.0417H79.8312V179.473H80.0417ZM80.0417 178.21H80.2522V177.579H80.0417H79.8312V178.21H80.0417ZM80.0417 176.947H80.2522V176.315H80.0417H79.8312V176.947H80.0417ZM80.0417 175.684H80.2522V175.052H80.0417H79.8312V175.684H80.0417ZM80.0417 174.421H80.2522V173.789H80.0417H79.8312V174.421H80.0417ZM80.0417 173.158H80.2522V172.842H80.0417H79.8312V173.158H80.0417Z" fill="#DBDBDB" mask="url(#path-146-inside-15_462_30136)"/>
<rect x="58.1257" y="175.368" width="12.6316" height="2.52632" rx="1.05263" fill="#DBDBDB"/>
<g clip-path="url(#clip16_462_30136)">
<mask id="path-149-inside-16_462_30136" fill="white">
<path d="M80.0417 172.842H104.484V180.421H80.0417V172.842Z"/>
</mask>
<path d="M80.0417 172.842H104.484V180.421H80.0417V172.842Z" fill="white"/>
</g>
<path d="M104.484 180.421H104.589V180.105H104.484H104.379V180.421H104.484ZM104.484 179.473H104.589V178.842H104.484H104.379V179.473H104.484ZM104.484 178.21H104.589V177.579H104.484H104.379V178.21H104.484ZM104.484 176.947H104.589V176.315H104.484H104.379V176.947H104.484ZM104.484 175.684H104.589V175.052H104.484H104.379V175.684H104.484ZM104.484 174.421H104.589V173.789H104.484H104.379V174.421H104.484ZM104.484 173.158H104.589V172.842H104.484H104.379V173.158H104.484ZM104.484 180.421H104.694V180.105H104.484H104.273V180.421H104.484ZM104.484 179.473H104.694V178.842H104.484H104.273V179.473H104.484ZM104.484 178.21H104.694V177.579H104.484H104.273V178.21H104.484ZM104.484 176.947H104.694V176.315H104.484H104.273V176.947H104.484ZM104.484 175.684H104.694V175.052H104.484H104.273V175.684H104.484ZM104.484 174.421H104.694V173.789H104.484H104.273V174.421H104.484ZM104.484 173.158H104.694V172.842H104.484H104.273V173.158H104.484Z" fill="#DBDBDB" mask="url(#path-149-inside-16_462_30136)"/>
<rect x="82.568" y="175.368" width="12.6316" height="2.52632" rx="1.05263" fill="#DBDBDB"/>
<g clip-path="url(#clip17_462_30136)">
<mask id="path-152-inside-17_462_30136" fill="white">
<path d="M104.484 172.842H128.926V180.421H104.484V172.842Z"/>
</mask>
<path d="M104.484 172.842H128.926V180.421H104.484V172.842Z" fill="white"/>
</g>
<path d="M128.926 180.421H129.032V180.105H128.926H128.821V180.421H128.926ZM128.926 179.473H129.032V178.842H128.926H128.821V179.473H128.926ZM128.926 178.21H129.032V177.579H128.926H128.821V178.21H128.926ZM128.926 176.947H129.032V176.315H128.926H128.821V176.947H128.926ZM128.926 175.684H129.032V175.052H128.926H128.821V175.684H128.926ZM128.926 174.421H129.032V173.789H128.926H128.821V174.421H128.926ZM128.926 173.158H129.032V172.842H128.926H128.821V173.158H128.926ZM128.926 180.421H129.137V180.105H128.926H128.716V180.421H128.926ZM128.926 179.473H129.137V178.842H128.926H128.716V179.473H128.926ZM128.926 178.21H129.137V177.579H128.926H128.716V178.21H128.926ZM128.926 176.947H129.137V176.315H128.926H128.716V176.947H128.926ZM128.926 175.684H129.137V175.052H128.926H128.716V175.684H128.926ZM128.926 174.421H129.137V173.789H128.926H128.716V174.421H128.926ZM128.926 173.158H129.137V172.842H128.926H128.716V173.158H128.926Z" fill="#DBDBDB" mask="url(#path-152-inside-17_462_30136)"/>
<rect x="107.01" y="175.368" width="12.6316" height="2.52632" rx="1.05263" fill="#DBDBDB"/>
<g clip-path="url(#clip18_462_30136)">
<mask id="path-155-inside-18_462_30136" fill="white">
<path d="M128.926 172.842H153.369V180.421H128.926V172.842Z"/>
</mask>
<path d="M128.926 172.842H153.369V180.421H128.926V172.842Z" fill="white"/>
</g>
<path d="M153.369 180.421H153.474V180.105H153.369H153.263V180.421H153.369ZM153.369 179.473H153.474V178.842H153.369H153.263V179.473H153.369ZM153.369 178.21H153.474V177.579H153.369H153.263V178.21H153.369ZM153.369 176.947H153.474V176.315H153.369H153.263V176.947H153.369ZM153.369 175.684H153.474V175.052H153.369H153.263V175.684H153.369ZM153.369 174.421H153.474V173.789H153.369H153.263V174.421H153.369ZM153.369 173.158H153.474V172.842H153.369H153.263V173.158H153.369ZM153.369 180.421H153.579V180.105H153.369H153.158V180.421H153.369ZM153.369 179.473H153.579V178.842H153.369H153.158V179.473H153.369ZM153.369 178.21H153.579V177.579H153.369H153.158V178.21H153.369ZM153.369 176.947H153.579V176.315H153.369H153.158V176.947H153.369ZM153.369 175.684H153.579V175.052H153.369H153.158V175.684H153.369ZM153.369 174.421H153.579V173.789H153.369H153.158V174.421H153.369ZM153.369 173.158H153.579V172.842H153.369H153.158V173.158H153.369Z" fill="#DBDBDB" mask="url(#path-155-inside-18_462_30136)"/>
<rect x="131.453" y="175.368" width="12.6316" height="2.52632" rx="1.05263" fill="#DBDBDB"/>
<g clip-path="url(#clip19_462_30136)">
<mask id="path-158-inside-19_462_30136" fill="white">
<path d="M153.369 172.842H177.811V180.421H153.369V172.842Z"/>
</mask>
<path d="M153.369 172.842H177.811V180.421H153.369V172.842Z" fill="white"/>
</g>
<path d="M177.811 180.421H177.916V180.105H177.811H177.706V180.421H177.811ZM177.811 179.473H177.916V178.842H177.811H177.706V179.473H177.811ZM177.811 178.21H177.916V177.579H177.811H177.706V178.21H177.811ZM177.811 176.947H177.916V176.315H177.811H177.706V176.947H177.811ZM177.811 175.684H177.916V175.052H177.811H177.706V175.684H177.811ZM177.811 174.421H177.916V173.789H177.811H177.706V174.421H177.811ZM177.811 173.158H177.916V172.842H177.811H177.706V173.158H177.811ZM177.811 180.421H178.021V180.105H177.811H177.6V180.421H177.811ZM177.811 179.473H178.021V178.842H177.811H177.6V179.473H177.811ZM177.811 178.21H178.021V177.579H177.811H177.6V178.21H177.811ZM177.811 176.947H178.021V176.315H177.811H177.6V176.947H177.811ZM177.811 175.684H178.021V175.052H177.811H177.6V175.684H177.811ZM177.811 174.421H178.021V173.789H177.811H177.6V174.421H177.811ZM177.811 173.158H178.021V172.842H177.811H177.6V173.158H177.811Z" fill="#DBDBDB" mask="url(#path-158-inside-19_462_30136)"/>
<rect x="155.895" y="175.368" width="12.6316" height="2.52632" rx="1.05263" fill="#DBDBDB"/>
<g clip-path="url(#clip20_462_30136)">
<mask id="path-161-inside-20_462_30136" fill="white">
<path d="M177.811 172.842H202.253V180.421H177.811V172.842Z"/>
</mask>
<path d="M177.811 172.842H202.253V180.421H177.811V172.842Z" fill="white"/>
</g>
<path d="M202.253 180.421H202.359V180.105H202.253H202.148V180.421H202.253ZM202.253 179.473H202.359V178.842H202.253H202.148V179.473H202.253ZM202.253 178.21H202.359V177.579H202.253H202.148V178.21H202.253ZM202.253 176.947H202.359V176.315H202.253H202.148V176.947H202.253ZM202.253 175.684H202.359V175.052H202.253H202.148V175.684H202.253ZM202.253 174.421H202.359V173.789H202.253H202.148V174.421H202.253ZM202.253 173.158H202.359V172.842H202.253H202.148V173.158H202.253ZM202.253 180.421H202.464V180.105H202.253H202.043V180.421H202.253ZM202.253 179.473H202.464V178.842H202.253H202.043V179.473H202.253ZM202.253 178.21H202.464V177.579H202.253H202.043V178.21H202.253ZM202.253 176.947H202.464V176.315H202.253H202.043V176.947H202.253ZM202.253 175.684H202.464V175.052H202.253H202.043V175.684H202.253ZM202.253 174.421H202.464V173.789H202.253H202.043V174.421H202.253ZM202.253 173.158H202.464V172.842H202.253H202.043V173.158H202.253Z" fill="#DBDBDB" mask="url(#path-161-inside-20_462_30136)"/>
<rect x="180.337" y="175.368" width="12.6316" height="2.52632" rx="1.05263" fill="#DBDBDB"/>
<g clip-path="url(#clip21_462_30136)">
<mask id="path-164-inside-21_462_30136" fill="white">
<path d="M202.253 172.842H226.696V180.421H202.253V172.842Z"/>
</mask>
<path d="M202.253 172.842H226.696V180.421H202.253V172.842Z" fill="white"/>
</g>
<path d="M226.696 180.421H226.801V180.105H226.696H226.59V180.421H226.696ZM226.696 179.473H226.801V178.842H226.696H226.59V179.473H226.696ZM226.696 178.21H226.801V177.579H226.696H226.59V178.21H226.696ZM226.696 176.947H226.801V176.315H226.696H226.59V176.947H226.696ZM226.696 175.684H226.801V175.052H226.696H226.59V175.684H226.696ZM226.696 174.421H226.801V173.789H226.696H226.59V174.421H226.696ZM226.696 173.158H226.801V172.842H226.696H226.59V173.158H226.696ZM226.696 180.421H226.906V180.105H226.696H226.485V180.421H226.696ZM226.696 179.473H226.906V178.842H226.696H226.485V179.473H226.696ZM226.696 178.21H226.906V177.579H226.696H226.485V178.21H226.696ZM226.696 176.947H226.906V176.315H226.696H226.485V176.947H226.696ZM226.696 175.684H226.906V175.052H226.696H226.485V175.684H226.696ZM226.696 174.421H226.906V173.789H226.696H226.485V174.421H226.696ZM226.696 173.158H226.906V172.842H226.696H226.485V173.158H226.696Z" fill="#DBDBDB" mask="url(#path-164-inside-21_462_30136)"/>
<rect x="204.779" y="175.368" width="12.6316" height="2.52632" rx="1.05263" fill="#DBDBDB"/>
<g clip-path="url(#clip22_462_30136)">
<mask id="path-167-inside-22_462_30136" fill="white">
<path d="M226.696 172.842H251.138V180.421H226.696V172.842Z"/>
</mask>
<path d="M226.696 172.842H251.138V180.421H226.696V172.842Z" fill="white"/>
</g>
<path d="M251.138 180.421H251.243V180.105H251.138H251.033V180.421H251.138ZM251.138 179.473H251.243V178.842H251.138H251.033V179.473H251.138ZM251.138 178.21H251.243V177.579H251.138H251.033V178.21H251.138ZM251.138 176.947H251.243V176.315H251.138H251.033V176.947H251.138ZM251.138 175.684H251.243V175.052H251.138H251.033V175.684H251.138ZM251.138 174.421H251.243V173.789H251.138H251.033V174.421H251.138ZM251.138 173.158H251.243V172.842H251.138H251.033V173.158H251.138ZM251.138 180.421H251.348V180.105H251.138H250.927V180.421H251.138ZM251.138 179.473H251.348V178.842H251.138H250.927V179.473H251.138ZM251.138 178.21H251.348V177.579H251.138H250.927V178.21H251.138ZM251.138 176.947H251.348V176.315H251.138H250.927V176.947H251.138ZM251.138 175.684H251.348V175.052H251.138H250.927V175.684H251.138ZM251.138 174.421H251.348V173.789H251.138H250.927V174.421H251.138ZM251.138 173.158H251.348V172.842H251.138H250.927V173.158H251.138Z" fill="#DBDBDB" mask="url(#path-167-inside-22_462_30136)"/>
<rect x="229.222" y="175.368" width="12.6316" height="2.52632" rx="1.05263" fill="#DBDBDB"/>
<g clip-path="url(#clip23_462_30136)">
<mask id="path-170-inside-23_462_30136" fill="white">
<path d="M251.138 172.842H275.58V180.421H251.138V172.842Z"/>
</mask>
<path d="M251.138 172.842H275.58V180.421H251.138V172.842Z" fill="white"/>
</g>
<path d="M275.58 180.421H275.686V180.105H275.58H275.475V180.421H275.58ZM275.58 179.473H275.686V178.842H275.58H275.475V179.473H275.58ZM275.58 178.21H275.686V177.579H275.58H275.475V178.21H275.58ZM275.58 176.947H275.686V176.315H275.58H275.475V176.947H275.58ZM275.58 175.684H275.686V175.052H275.58H275.475V175.684H275.58ZM275.58 174.421H275.686V173.789H275.58H275.475V174.421H275.58ZM275.58 173.158H275.686V172.842H275.58H275.475V173.158H275.58ZM275.58 180.421H275.791V180.105H275.58H275.37V180.421H275.58ZM275.58 179.473H275.791V178.842H275.58H275.37V179.473H275.58ZM275.58 178.21H275.791V177.579H275.58H275.37V178.21H275.58ZM275.58 176.947H275.791V176.315H275.58H275.37V176.947H275.58ZM275.58 175.684H275.791V175.052H275.58H275.37V175.684H275.58ZM275.58 174.421H275.791V173.789H275.58H275.37V174.421H275.58ZM275.58 173.158H275.791V172.842H275.58H275.37V173.158H275.58Z" fill="#DBDBDB" mask="url(#path-170-inside-23_462_30136)"/>
<rect x="253.664" y="175.368" width="12.6316" height="2.52632" rx="1.05263" fill="#DBDBDB"/>
<g clip-path="url(#clip24_462_30136)">
<mask id="path-173-inside-24_462_30136" fill="white">
<path d="M275.58 172.842H297.262V180.421H275.58V172.842Z"/>
</mask>
<path d="M275.58 172.842H297.262V180.421H275.58V172.842Z" fill="white"/>
</g>
<path d="M297.262 180.421H297.367V180.105H297.262H297.157V180.421H297.262ZM297.262 179.473H297.367V178.842H297.262H297.157V179.473H297.262ZM297.262 178.21H297.367V177.579H297.262H297.157V178.21H297.262ZM297.262 176.947H297.367V176.315H297.262H297.157V176.947H297.262ZM297.262 175.684H297.367V175.052H297.262H297.157V175.684H297.262ZM297.262 174.421H297.367V173.789H297.262H297.157V174.421H297.262ZM297.262 173.158H297.367V172.842H297.262H297.157V173.158H297.262ZM297.262 180.421H297.472V180.105H297.262H297.051V180.421H297.262ZM297.262 179.473H297.472V178.842H297.262H297.051V179.473H297.262ZM297.262 178.21H297.472V177.579H297.262H297.051V178.21H297.262ZM297.262 176.947H297.472V176.315H297.262H297.051V176.947H297.262ZM297.262 175.684H297.472V175.052H297.262H297.051V175.684H297.262ZM297.262 174.421H297.472V173.789H297.262H297.051V174.421H297.262ZM297.262 173.158H297.472V172.842H297.262H297.051V173.158H297.262Z" fill="#DBDBDB" mask="url(#path-173-inside-24_462_30136)"/>
<rect x="277.822" y="175.368" width="11.2049" height="2.52632" rx="1.05263" fill="#DBDBDB"/>
<g clip-path="url(#clip25_462_30136)">
<mask id="path-176-inside-25_462_30136" fill="white">
<path d="M22.736 180.42H31.157V187.999H22.736V180.42Z"/>
</mask>
<path d="M22.736 180.42H31.157V187.999H22.736V180.42Z" fill="white"/>
</g>
<path d="M31.157 187.999H31.2623V187.684H31.157H31.0518V187.999H31.157ZM31.157 187.052H31.2623V186.42H31.157H31.0518V187.052H31.157ZM31.157 185.789H31.2623V185.157H31.157H31.0518V185.789H31.157ZM31.157 184.526H31.2623V183.894H31.157H31.0518V184.526H31.157ZM31.157 183.263H31.2623V182.631H31.157H31.0518V183.263H31.157ZM31.157 181.999H31.2623V181.368H31.157H31.0518V181.999H31.157ZM31.157 180.736H31.2623V180.42H31.157H31.0518V180.736H31.157ZM31.157 187.999H31.3675V187.684H31.157H30.9465V187.999H31.157ZM31.157 187.052H31.3675V186.42H31.157H30.9465V187.052H31.157ZM31.157 185.789H31.3675V185.157H31.157H30.9465V185.789H31.157ZM31.157 184.526H31.3675V183.894H31.157H30.9465V184.526H31.157ZM31.157 183.263H31.3675V182.631H31.157H30.9465V183.263H31.157ZM31.157 181.999H31.3675V181.368H31.157H30.9465V181.999H31.157ZM31.157 180.736H31.3675V180.42H31.157H30.9465V180.736H31.157Z" fill="#DBDBDB" mask="url(#path-176-inside-25_462_30136)"/>
<rect x="25.3675" y="182.631" width="3.15789" height="3.15789" rx="0.947368" stroke="#DBDBDB" stroke-width="0.210526"/>
<g clip-path="url(#clip26_462_30136)">
<mask id="path-179-inside-26_462_30136" fill="white">
<path d="M31.1571 180.42H55.5994V187.999H31.1571V180.42Z"/>
</mask>
<path d="M31.1571 180.42H55.5994V187.999H31.1571V180.42Z" fill="white"/>
</g>
<path d="M55.5994 187.999H55.7047V187.684H55.5994H55.4941V187.999H55.5994ZM55.5994 187.052H55.7047V186.42H55.5994H55.4941V187.052H55.5994ZM55.5994 185.789H55.7047V185.157H55.5994H55.4941V185.789H55.5994ZM55.5994 184.526H55.7047V183.894H55.5994H55.4941V184.526H55.5994ZM55.5994 183.263H55.7047V182.631H55.5994H55.4941V183.263H55.5994ZM55.5994 181.999H55.7047V181.368H55.5994H55.4941V181.999H55.5994ZM55.5994 180.736H55.7047V180.42H55.5994H55.4941V180.736H55.5994ZM55.5994 187.999H55.8099V187.684H55.5994H55.3889V187.999H55.5994ZM55.5994 187.052H55.8099V186.42H55.5994H55.3889V187.052H55.5994ZM55.5994 185.789H55.8099V185.157H55.5994H55.3889V185.789H55.5994ZM55.5994 184.526H55.8099V183.894H55.5994H55.3889V184.526H55.5994ZM55.5994 183.263H55.8099V182.631H55.5994H55.3889V183.263H55.5994ZM55.5994 181.999H55.8099V181.368H55.5994H55.3889V181.999H55.5994ZM55.5994 180.736H55.8099V180.42H55.5994H55.3889V180.736H55.5994Z" fill="#DBDBDB" mask="url(#path-179-inside-26_462_30136)"/>
<rect x="33.6834" y="182.947" width="12.6316" height="2.52632" rx="1.05263" fill="#DBDBDB"/>
<g clip-path="url(#clip27_462_30136)">
<mask id="path-182-inside-27_462_30136" fill="white">
<path d="M55.5994 180.42H80.0417V187.999H55.5994V180.42Z"/>
</mask>
<path d="M55.5994 180.42H80.0417V187.999H55.5994V180.42Z" fill="white"/>
</g>
<path d="M80.0417 187.999H80.1469V187.684H80.0417H79.9364V187.999H80.0417ZM80.0417 187.052H80.1469V186.42H80.0417H79.9364V187.052H80.0417ZM80.0417 185.789H80.1469V185.157H80.0417H79.9364V185.789H80.0417ZM80.0417 184.526H80.1469V183.894H80.0417H79.9364V184.526H80.0417ZM80.0417 183.263H80.1469V182.631H80.0417H79.9364V183.263H80.0417ZM80.0417 181.999H80.1469V181.368H80.0417H79.9364V181.999H80.0417ZM80.0417 180.736H80.1469V180.42H80.0417H79.9364V180.736H80.0417ZM80.0417 187.999H80.2522V187.684H80.0417H79.8312V187.999H80.0417ZM80.0417 187.052H80.2522V186.42H80.0417H79.8312V187.052H80.0417ZM80.0417 185.789H80.2522V185.157H80.0417H79.8312V185.789H80.0417ZM80.0417 184.526H80.2522V183.894H80.0417H79.8312V184.526H80.0417ZM80.0417 183.263H80.2522V182.631H80.0417H79.8312V183.263H80.0417ZM80.0417 181.999H80.2522V181.368H80.0417H79.8312V181.999H80.0417ZM80.0417 180.736H80.2522V180.42H80.0417H79.8312V180.736H80.0417Z" fill="#DBDBDB" mask="url(#path-182-inside-27_462_30136)"/>
<rect x="58.1257" y="182.947" width="12.6316" height="2.52632" rx="1.05263" fill="#DBDBDB"/>
<g clip-path="url(#clip28_462_30136)">
<mask id="path-185-inside-28_462_30136" fill="white">
<path d="M80.0417 180.42H104.484V187.999H80.0417V180.42Z"/>
</mask>
<path d="M80.0417 180.42H104.484V187.999H80.0417V180.42Z" fill="white"/>
</g>
<path d="M104.484 187.999H104.589V187.684H104.484H104.379V187.999H104.484ZM104.484 187.052H104.589V186.42H104.484H104.379V187.052H104.484ZM104.484 185.789H104.589V185.157H104.484H104.379V185.789H104.484ZM104.484 184.526H104.589V183.894H104.484H104.379V184.526H104.484ZM104.484 183.263H104.589V182.631H104.484H104.379V183.263H104.484ZM104.484 181.999H104.589V181.368H104.484H104.379V181.999H104.484ZM104.484 180.736H104.589V180.42H104.484H104.379V180.736H104.484ZM104.484 187.999H104.694V187.684H104.484H104.273V187.999H104.484ZM104.484 187.052H104.694V186.42H104.484H104.273V187.052H104.484ZM104.484 185.789H104.694V185.157H104.484H104.273V185.789H104.484ZM104.484 184.526H104.694V183.894H104.484H104.273V184.526H104.484ZM104.484 183.263H104.694V182.631H104.484H104.273V183.263H104.484ZM104.484 181.999H104.694V181.368H104.484H104.273V181.999H104.484ZM104.484 180.736H104.694V180.42H104.484H104.273V180.736H104.484Z" fill="#DBDBDB" mask="url(#path-185-inside-28_462_30136)"/>
<rect x="82.568" y="182.947" width="12.6316" height="2.52632" rx="1.05263" fill="#DBDBDB"/>
<g clip-path="url(#clip29_462_30136)">
<mask id="path-188-inside-29_462_30136" fill="white">
<path d="M104.484 180.42H128.926V187.999H104.484V180.42Z"/>
</mask>
<path d="M104.484 180.42H128.926V187.999H104.484V180.42Z" fill="white"/>
</g>
<path d="M128.926 187.999H129.032V187.684H128.926H128.821V187.999H128.926ZM128.926 187.052H129.032V186.42H128.926H128.821V187.052H128.926ZM128.926 185.789H129.032V185.157H128.926H128.821V185.789H128.926ZM128.926 184.526H129.032V183.894H128.926H128.821V184.526H128.926ZM128.926 183.263H129.032V182.631H128.926H128.821V183.263H128.926ZM128.926 181.999H129.032V181.368H128.926H128.821V181.999H128.926ZM128.926 180.736H129.032V180.42H128.926H128.821V180.736H128.926ZM128.926 187.999H129.137V187.684H128.926H128.716V187.999H128.926ZM128.926 187.052H129.137V186.42H128.926H128.716V187.052H128.926ZM128.926 185.789H129.137V185.157H128.926H128.716V185.789H128.926ZM128.926 184.526H129.137V183.894H128.926H128.716V184.526H128.926ZM128.926 183.263H129.137V182.631H128.926H128.716V183.263H128.926ZM128.926 181.999H129.137V181.368H128.926H128.716V181.999H128.926ZM128.926 180.736H129.137V180.42H128.926H128.716V180.736H128.926Z" fill="#DBDBDB" mask="url(#path-188-inside-29_462_30136)"/>
<rect x="107.01" y="182.947" width="12.6316" height="2.52632" rx="1.05263" fill="#DBDBDB"/>
<g clip-path="url(#clip30_462_30136)">
<mask id="path-191-inside-30_462_30136" fill="white">
<path d="M128.926 180.42H153.369V187.999H128.926V180.42Z"/>
</mask>
<path d="M128.926 180.42H153.369V187.999H128.926V180.42Z" fill="white"/>
</g>
<path d="M153.369 187.999H153.474V187.684H153.369H153.263V187.999H153.369ZM153.369 187.052H153.474V186.42H153.369H153.263V187.052H153.369ZM153.369 185.789H153.474V185.157H153.369H153.263V185.789H153.369ZM153.369 184.526H153.474V183.894H153.369H153.263V184.526H153.369ZM153.369 183.263H153.474V182.631H153.369H153.263V183.263H153.369ZM153.369 181.999H153.474V181.368H153.369H153.263V181.999H153.369ZM153.369 180.736H153.474V180.42H153.369H153.263V180.736H153.369ZM153.369 187.999H153.579V187.684H153.369H153.158V187.999H153.369ZM153.369 187.052H153.579V186.42H153.369H153.158V187.052H153.369ZM153.369 185.789H153.579V185.157H153.369H153.158V185.789H153.369ZM153.369 184.526H153.579V183.894H153.369H153.158V184.526H153.369ZM153.369 183.263H153.579V182.631H153.369H153.158V183.263H153.369ZM153.369 181.999H153.579V181.368H153.369H153.158V181.999H153.369ZM153.369 180.736H153.579V180.42H153.369H153.158V180.736H153.369Z" fill="#DBDBDB" mask="url(#path-191-inside-30_462_30136)"/>
<rect x="131.453" y="182.947" width="12.6316" height="2.52632" rx="1.05263" fill="#DBDBDB"/>
<g clip-path="url(#clip31_462_30136)">
<mask id="path-194-inside-31_462_30136" fill="white">
<path d="M153.369 180.42H177.811V187.999H153.369V180.42Z"/>
</mask>
<path d="M153.369 180.42H177.811V187.999H153.369V180.42Z" fill="white"/>
</g>
<path d="M177.811 187.999H177.916V187.684H177.811H177.706V187.999H177.811ZM177.811 187.052H177.916V186.42H177.811H177.706V187.052H177.811ZM177.811 185.789H177.916V185.157H177.811H177.706V185.789H177.811ZM177.811 184.526H177.916V183.894H177.811H177.706V184.526H177.811ZM177.811 183.263H177.916V182.631H177.811H177.706V183.263H177.811ZM177.811 181.999H177.916V181.368H177.811H177.706V181.999H177.811ZM177.811 180.736H177.916V180.42H177.811H177.706V180.736H177.811ZM177.811 187.999H178.022V187.684H177.811H177.601V187.999H177.811ZM177.811 187.052H178.022V186.42H177.811H177.601V187.052H177.811ZM177.811 185.789H178.022V185.157H177.811H177.601V185.789H177.811ZM177.811 184.526H178.022V183.894H177.811H177.601V184.526H177.811ZM177.811 183.263H178.022V182.631H177.811H177.601V183.263H177.811ZM177.811 181.999H178.022V181.368H177.811H177.601V181.999H177.811ZM177.811 180.736H178.022V180.42H177.811H177.601V180.736H177.811Z" fill="#DBDBDB" mask="url(#path-194-inside-31_462_30136)"/>
<rect x="155.895" y="182.947" width="12.6316" height="2.52632" rx="1.05263" fill="#DBDBDB"/>
<g clip-path="url(#clip32_462_30136)">
<mask id="path-197-inside-32_462_30136" fill="white">
<path d="M177.811 180.42H202.253V187.999H177.811V180.42Z"/>
</mask>
<path d="M177.811 180.42H202.253V187.999H177.811V180.42Z" fill="white"/>
</g>
<path d="M202.253 187.999H202.359V187.684H202.253H202.148V187.999H202.253ZM202.253 187.052H202.359V186.42H202.253H202.148V187.052H202.253ZM202.253 185.789H202.359V185.157H202.253H202.148V185.789H202.253ZM202.253 184.526H202.359V183.894H202.253H202.148V184.526H202.253ZM202.253 183.263H202.359V182.631H202.253H202.148V183.263H202.253ZM202.253 181.999H202.359V181.368H202.253H202.148V181.999H202.253ZM202.253 180.736H202.359V180.42H202.253H202.148V180.736H202.253ZM202.253 187.999H202.464V187.684H202.253H202.043V187.999H202.253ZM202.253 187.052H202.464V186.42H202.253H202.043V187.052H202.253ZM202.253 185.789H202.464V185.157H202.253H202.043V185.789H202.253ZM202.253 184.526H202.464V183.894H202.253H202.043V184.526H202.253ZM202.253 183.263H202.464V182.631H202.253H202.043V183.263H202.253ZM202.253 181.999H202.464V181.368H202.253H202.043V181.999H202.253ZM202.253 180.736H202.464V180.42H202.253H202.043V180.736H202.253Z" fill="#DBDBDB" mask="url(#path-197-inside-32_462_30136)"/>
<rect x="180.337" y="182.947" width="12.6316" height="2.52632" rx="1.05263" fill="#DBDBDB"/>
<g clip-path="url(#clip33_462_30136)">
<mask id="path-200-inside-33_462_30136" fill="white">
<path d="M202.253 180.42H226.696V187.999H202.253V180.42Z"/>
</mask>
<path d="M202.253 180.42H226.696V187.999H202.253V180.42Z" fill="white"/>
</g>
<path d="M226.696 187.999H226.801V187.684H226.696H226.59V187.999H226.696ZM226.696 187.052H226.801V186.42H226.696H226.59V187.052H226.696ZM226.696 185.789H226.801V185.157H226.696H226.59V185.789H226.696ZM226.696 184.526H226.801V183.894H226.696H226.59V184.526H226.696ZM226.696 183.263H226.801V182.631H226.696H226.59V183.263H226.696ZM226.696 181.999H226.801V181.368H226.696H226.59V181.999H226.696ZM226.696 180.736H226.801V180.42H226.696H226.59V180.736H226.696ZM226.696 187.999H226.906V187.684H226.696H226.485V187.999H226.696ZM226.696 187.052H226.906V186.42H226.696H226.485V187.052H226.696ZM226.696 185.789H226.906V185.157H226.696H226.485V185.789H226.696ZM226.696 184.526H226.906V183.894H226.696H226.485V184.526H226.696ZM226.696 183.263H226.906V182.631H226.696H226.485V183.263H226.696ZM226.696 181.999H226.906V181.368H226.696H226.485V181.999H226.696ZM226.696 180.736H226.906V180.42H226.696H226.485V180.736H226.696Z" fill="#DBDBDB" mask="url(#path-200-inside-33_462_30136)"/>
<rect x="204.78" y="182.947" width="12.6316" height="2.52632" rx="1.05263" fill="#DBDBDB"/>
<g clip-path="url(#clip34_462_30136)">
<mask id="path-203-inside-34_462_30136" fill="white">
<path d="M226.696 180.42H251.138V187.999H226.696V180.42Z"/>
</mask>
<path d="M226.696 180.42H251.138V187.999H226.696V180.42Z" fill="white"/>
</g>
<path d="M251.138 187.999H251.243V187.684H251.138H251.033V187.999H251.138ZM251.138 187.052H251.243V186.42H251.138H251.033V187.052H251.138ZM251.138 185.789H251.243V185.157H251.138H251.033V185.789H251.138ZM251.138 184.526H251.243V183.894H251.138H251.033V184.526H251.138ZM251.138 183.263H251.243V182.631H251.138H251.033V183.263H251.138ZM251.138 181.999H251.243V181.368H251.138H251.033V181.999H251.138ZM251.138 180.736H251.243V180.42H251.138H251.033V180.736H251.138ZM251.138 187.999H251.348V187.684H251.138H250.927V187.999H251.138ZM251.138 187.052H251.348V186.42H251.138H250.927V187.052H251.138ZM251.138 185.789H251.348V185.157H251.138H250.927V185.789H251.138ZM251.138 184.526H251.348V183.894H251.138H250.927V184.526H251.138ZM251.138 183.263H251.348V182.631H251.138H250.927V183.263H251.138ZM251.138 181.999H251.348V181.368H251.138H250.927V181.999H251.138ZM251.138 180.736H251.348V180.42H251.138H250.927V180.736H251.138Z" fill="#DBDBDB" mask="url(#path-203-inside-34_462_30136)"/>
<rect x="229.222" y="182.947" width="12.6316" height="2.52632" rx="1.05263" fill="#DBDBDB"/>
<g clip-path="url(#clip35_462_30136)">
<mask id="path-206-inside-35_462_30136" fill="white">
<path d="M251.138 180.42H275.58V187.999H251.138V180.42Z"/>
</mask>
<path d="M251.138 180.42H275.58V187.999H251.138V180.42Z" fill="white"/>
</g>
<path d="M275.58 187.999H275.686V187.684H275.58H275.475V187.999H275.58ZM275.58 187.052H275.686V186.42H275.58H275.475V187.052H275.58ZM275.58 185.789H275.686V185.157H275.58H275.475V185.789H275.58ZM275.58 184.526H275.686V183.894H275.58H275.475V184.526H275.58ZM275.58 183.263H275.686V182.631H275.58H275.475V183.263H275.58ZM275.58 181.999H275.686V181.368H275.58H275.475V181.999H275.58ZM275.58 180.736H275.686V180.42H275.58H275.475V180.736H275.58ZM275.58 187.999H275.791V187.684H275.58H275.37V187.999H275.58ZM275.58 187.052H275.791V186.42H275.58H275.37V187.052H275.58ZM275.58 185.789H275.791V185.157H275.58H275.37V185.789H275.58ZM275.58 184.526H275.791V183.894H275.58H275.37V184.526H275.58ZM275.58 183.263H275.791V182.631H275.58H275.37V183.263H275.58ZM275.58 181.999H275.791V181.368H275.58H275.37V181.999H275.58ZM275.58 180.736H275.791V180.42H275.58H275.37V180.736H275.58Z" fill="#DBDBDB" mask="url(#path-206-inside-35_462_30136)"/>
<rect x="253.664" y="182.947" width="12.6316" height="2.52632" rx="1.05263" fill="#DBDBDB"/>
<g clip-path="url(#clip36_462_30136)">
<mask id="path-209-inside-36_462_30136" fill="white">
<path d="M275.58 180.42H297.262V187.999H275.58V180.42Z"/>
</mask>
<path d="M275.58 180.42H297.262V187.999H275.58V180.42Z" fill="white"/>
</g>
<path d="M297.262 187.999H297.367V187.684H297.262H297.157V187.999H297.262ZM297.262 187.052H297.367V186.42H297.262H297.157V187.052H297.262ZM297.262 185.789H297.367V185.157H297.262H297.157V185.789H297.262ZM297.262 184.526H297.367V183.894H297.262H297.157V184.526H297.262ZM297.262 183.263H297.367V182.631H297.262H297.157V183.263H297.262ZM297.262 181.999H297.367V181.368H297.262H297.157V181.999H297.262ZM297.262 180.736H297.367V180.42H297.262H297.157V180.736H297.262ZM297.262 187.999H297.472V187.684H297.262H297.051V187.999H297.262ZM297.262 187.052H297.472V186.42H297.262H297.051V187.052H297.262ZM297.262 185.789H297.472V185.157H297.262H297.051V185.789H297.262ZM297.262 184.526H297.472V183.894H297.262H297.051V184.526H297.262ZM297.262 183.263H297.472V182.631H297.262H297.051V183.263H297.262ZM297.262 181.999H297.472V181.368H297.262H297.051V181.999H297.262ZM297.262 180.736H297.472V180.42H297.262H297.051V180.736H297.262Z" fill="#DBDBDB" mask="url(#path-209-inside-36_462_30136)"/>
<rect x="277.822" y="182.947" width="11.2049" height="2.52632" rx="1.05263" fill="#DBDBDB"/>
<g clip-path="url(#clip37_462_30136)">
<mask id="path-212-inside-37_462_30136" fill="white">
<path d="M22.736 188H31.1571V195.578H22.736V188Z"/>
</mask>
<path d="M22.736 188H31.1571V195.578H22.736V188Z" fill="white"/>
</g>
<path d="M31.1571 195.578H31.2623V195.263H31.1571H31.0518V195.578H31.1571ZM31.1571 194.631H31.2623V194H31.1571H31.0518V194.631H31.1571ZM31.1571 193.368H31.2623V192.736H31.1571H31.0518V193.368H31.1571ZM31.1571 192.105H31.2623V191.473H31.1571H31.0518V192.105H31.1571ZM31.1571 190.842H31.2623V190.21H31.1571H31.0518V190.842H31.1571ZM31.1571 189.578H31.2623V188.947H31.1571H31.0518V189.578H31.1571ZM31.1571 188.315H31.2623V188H31.1571H31.0518V188.315H31.1571ZM31.1571 195.578H31.3676V195.263H31.1571H30.9465V195.578H31.1571ZM31.1571 194.631H31.3676V194H31.1571H30.9465V194.631H31.1571ZM31.1571 193.368H31.3676V192.736H31.1571H30.9465V193.368H31.1571ZM31.1571 192.105H31.3676V191.473H31.1571H30.9465V192.105H31.1571ZM31.1571 190.842H31.3676V190.21H31.1571H30.9465V190.842H31.1571ZM31.1571 189.578H31.3676V188.947H31.1571H30.9465V189.578H31.1571ZM31.1571 188.315H31.3676V188H31.1571H30.9465V188.315H31.1571Z" fill="#DBDBDB" mask="url(#path-212-inside-37_462_30136)"/>
<g clip-path="url(#clip38_462_30136)">
<mask id="path-214-inside-38_462_30136" fill="white">
<path d="M31.1571 188H55.5994V195.578H31.1571V188Z"/>
</mask>
<path d="M31.1571 188H55.5994V195.578H31.1571V188Z" fill="white"/>
</g>
<path d="M55.5994 195.578H55.7047V195.263H55.5994H55.4941V195.578H55.5994ZM55.5994 194.631H55.7047V194H55.5994H55.4941V194.631H55.5994ZM55.5994 193.368H55.7047V192.736H55.5994H55.4941V193.368H55.5994ZM55.5994 192.105H55.7047V191.473H55.5994H55.4941V192.105H55.5994ZM55.5994 190.842H55.7047V190.21H55.5994H55.4941V190.842H55.5994ZM55.5994 189.578H55.7047V188.947H55.5994H55.4941V189.578H55.5994ZM55.5994 188.315H55.7047V188H55.5994H55.4941V188.315H55.5994ZM55.5994 195.578H55.8099V195.263H55.5994H55.3889V195.578H55.5994ZM55.5994 194.631H55.8099V194H55.5994H55.3889V194.631H55.5994ZM55.5994 193.368H55.8099V192.736H55.5994H55.3889V193.368H55.5994ZM55.5994 192.105H55.8099V191.473H55.5994H55.3889V192.105H55.5994ZM55.5994 190.842H55.8099V190.21H55.5994H55.3889V190.842H55.5994ZM55.5994 189.578H55.8099V188.947H55.5994H55.3889V189.578H55.5994ZM55.5994 188.315H55.8099V188H55.5994H55.3889V188.315H55.5994Z" fill="#DBDBDB" mask="url(#path-214-inside-38_462_30136)"/>
<g clip-path="url(#clip39_462_30136)">
<mask id="path-216-inside-39_462_30136" fill="white">
<path d="M55.5994 188H80.0417V195.578H55.5994V188Z"/>
</mask>
<path d="M55.5994 188H80.0417V195.578H55.5994V188Z" fill="white"/>
</g>
<path d="M80.0417 195.578H80.147V195.263H80.0417H79.9365V195.578H80.0417ZM80.0417 194.631H80.147V194H80.0417H79.9365V194.631H80.0417ZM80.0417 193.368H80.147V192.736H80.0417H79.9365V193.368H80.0417ZM80.0417 192.105H80.147V191.473H80.0417H79.9365V192.105H80.0417ZM80.0417 190.842H80.147V190.21H80.0417H79.9365V190.842H80.0417ZM80.0417 189.578H80.147V188.947H80.0417H79.9365V189.578H80.0417ZM80.0417 188.315H80.147V188H80.0417H79.9365V188.315H80.0417ZM80.0417 195.578H80.2522V195.263H80.0417H79.8312V195.578H80.0417ZM80.0417 194.631H80.2522V194H80.0417H79.8312V194.631H80.0417ZM80.0417 193.368H80.2522V192.736H80.0417H79.8312V193.368H80.0417ZM80.0417 192.105H80.2522V191.473H80.0417H79.8312V192.105H80.0417ZM80.0417 190.842H80.2522V190.21H80.0417H79.8312V190.842H80.0417ZM80.0417 189.578H80.2522V188.947H80.0417H79.8312V189.578H80.0417ZM80.0417 188.315H80.2522V188H80.0417H79.8312V188.315H80.0417Z" fill="#DBDBDB" mask="url(#path-216-inside-39_462_30136)"/>
<g clip-path="url(#clip40_462_30136)">
<mask id="path-218-inside-40_462_30136" fill="white">
<path d="M80.0417 188H104.484V195.578H80.0417V188Z"/>
</mask>
<path d="M80.0417 188H104.484V195.578H80.0417V188Z" fill="white"/>
</g>
<path d="M104.484 195.578H104.589V195.263H104.484H104.379V195.578H104.484ZM104.484 194.631H104.589V194H104.484H104.379V194.631H104.484ZM104.484 193.368H104.589V192.736H104.484H104.379V193.368H104.484ZM104.484 192.105H104.589V191.473H104.484H104.379V192.105H104.484ZM104.484 190.842H104.589V190.21H104.484H104.379V190.842H104.484ZM104.484 189.578H104.589V188.947H104.484H104.379V189.578H104.484ZM104.484 188.315H104.589V188H104.484H104.379V188.315H104.484ZM104.484 195.578H104.695V195.263H104.484H104.274V195.578H104.484ZM104.484 194.631H104.695V194H104.484H104.274V194.631H104.484ZM104.484 193.368H104.695V192.736H104.484H104.274V193.368H104.484ZM104.484 192.105H104.695V191.473H104.484H104.274V192.105H104.484ZM104.484 190.842H104.695V190.21H104.484H104.274V190.842H104.484ZM104.484 189.578H104.695V188.947H104.484H104.274V189.578H104.484ZM104.484 188.315H104.695V188H104.484H104.274V188.315H104.484Z" fill="#DBDBDB" mask="url(#path-218-inside-40_462_30136)"/>
<g clip-path="url(#clip41_462_30136)">
<mask id="path-220-inside-41_462_30136" fill="white">
<path d="M104.484 188H128.926V195.578H104.484V188Z"/>
</mask>
<path d="M104.484 188H128.926V195.578H104.484V188Z" fill="white"/>
</g>
<path d="M128.926 195.578H129.032V195.263H128.926H128.821V195.578H128.926ZM128.926 194.631H129.032V194H128.926H128.821V194.631H128.926ZM128.926 193.368H129.032V192.736H128.926H128.821V193.368H128.926ZM128.926 192.105H129.032V191.473H128.926H128.821V192.105H128.926ZM128.926 190.842H129.032V190.21H128.926H128.821V190.842H128.926ZM128.926 189.578H129.032V188.947H128.926H128.821V189.578H128.926ZM128.926 188.315H129.032V188H128.926H128.821V188.315H128.926ZM128.926 195.578H129.137V195.263H128.926H128.716V195.578H128.926ZM128.926 194.631H129.137V194H128.926H128.716V194.631H128.926ZM128.926 193.368H129.137V192.736H128.926H128.716V193.368H128.926ZM128.926 192.105H129.137V191.473H128.926H128.716V192.105H128.926ZM128.926 190.842H129.137V190.21H128.926H128.716V190.842H128.926ZM128.926 189.578H129.137V188.947H128.926H128.716V189.578H128.926ZM128.926 188.315H129.137V188H128.926H128.716V188.315H128.926Z" fill="#DBDBDB" mask="url(#path-220-inside-41_462_30136)"/>
<g clip-path="url(#clip42_462_30136)">
<mask id="path-222-inside-42_462_30136" fill="white">
<path d="M128.926 188H153.369V195.578H128.926V188Z"/>
</mask>
<path d="M128.926 188H153.369V195.578H128.926V188Z" fill="white"/>
</g>
<path d="M153.369 195.578H153.474V195.263H153.369H153.263V195.578H153.369ZM153.369 194.631H153.474V194H153.369H153.263V194.631H153.369ZM153.369 193.368H153.474V192.736H153.369H153.263V193.368H153.369ZM153.369 192.105H153.474V191.473H153.369H153.263V192.105H153.369ZM153.369 190.842H153.474V190.21H153.369H153.263V190.842H153.369ZM153.369 189.578H153.474V188.947H153.369H153.263V189.578H153.369ZM153.369 188.315H153.474V188H153.369H153.263V188.315H153.369ZM153.369 195.578H153.579V195.263H153.369H153.158V195.578H153.369ZM153.369 194.631H153.579V194H153.369H153.158V194.631H153.369ZM153.369 193.368H153.579V192.736H153.369H153.158V193.368H153.369ZM153.369 192.105H153.579V191.473H153.369H153.158V192.105H153.369ZM153.369 190.842H153.579V190.21H153.369H153.158V190.842H153.369ZM153.369 189.578H153.579V188.947H153.369H153.158V189.578H153.369ZM153.369 188.315H153.579V188H153.369H153.158V188.315H153.369Z" fill="#DBDBDB" mask="url(#path-222-inside-42_462_30136)"/>
<g clip-path="url(#clip43_462_30136)">
<mask id="path-224-inside-43_462_30136" fill="white">
<path d="M153.369 188H177.811V195.578H153.369V188Z"/>
</mask>
<path d="M153.369 188H177.811V195.578H153.369V188Z" fill="white"/>
</g>
<path d="M177.811 195.578H177.916V195.263H177.811H177.706V195.578H177.811ZM177.811 194.631H177.916V194H177.811H177.706V194.631H177.811ZM177.811 193.368H177.916V192.736H177.811H177.706V193.368H177.811ZM177.811 192.105H177.916V191.473H177.811H177.706V192.105H177.811ZM177.811 190.842H177.916V190.21H177.811H177.706V190.842H177.811ZM177.811 189.578H177.916V188.947H177.811H177.706V189.578H177.811ZM177.811 188.315H177.916V188H177.811H177.706V188.315H177.811ZM177.811 195.578H178.021V195.263H177.811H177.6V195.578H177.811ZM177.811 194.631H178.021V194H177.811H177.6V194.631H177.811ZM177.811 193.368H178.021V192.736H177.811H177.6V193.368H177.811ZM177.811 192.105H178.021V191.473H177.811H177.6V192.105H177.811ZM177.811 190.842H178.021V190.21H177.811H177.6V190.842H177.811ZM177.811 189.578H178.021V188.947H177.811H177.6V189.578H177.811ZM177.811 188.315H178.021V188H177.811H177.6V188.315H177.811Z" fill="#DBDBDB" mask="url(#path-224-inside-43_462_30136)"/>
<g clip-path="url(#clip44_462_30136)">
<mask id="path-226-inside-44_462_30136" fill="white">
<path d="M177.811 188H202.253V195.578H177.811V188Z"/>
</mask>
<path d="M177.811 188H202.253V195.578H177.811V188Z" fill="white"/>
</g>
<path d="M202.253 195.578H202.359V195.263H202.253H202.148V195.578H202.253ZM202.253 194.631H202.359V194H202.253H202.148V194.631H202.253ZM202.253 193.368H202.359V192.736H202.253H202.148V193.368H202.253ZM202.253 192.105H202.359V191.473H202.253H202.148V192.105H202.253ZM202.253 190.842H202.359V190.21H202.253H202.148V190.842H202.253ZM202.253 189.578H202.359V188.947H202.253H202.148V189.578H202.253ZM202.253 188.315H202.359V188H202.253H202.148V188.315H202.253ZM202.253 195.578H202.464V195.263H202.253H202.043V195.578H202.253ZM202.253 194.631H202.464V194H202.253H202.043V194.631H202.253ZM202.253 193.368H202.464V192.736H202.253H202.043V193.368H202.253ZM202.253 192.105H202.464V191.473H202.253H202.043V192.105H202.253ZM202.253 190.842H202.464V190.21H202.253H202.043V190.842H202.253ZM202.253 189.578H202.464V188.947H202.253H202.043V189.578H202.253ZM202.253 188.315H202.464V188H202.253H202.043V188.315H202.253Z" fill="#DBDBDB" mask="url(#path-226-inside-44_462_30136)"/>
<g clip-path="url(#clip45_462_30136)">
<mask id="path-228-inside-45_462_30136" fill="white">
<path d="M202.253 188H226.696V195.578H202.253V188Z"/>
</mask>
<path d="M202.253 188H226.696V195.578H202.253V188Z" fill="white"/>
</g>
<path d="M226.696 195.578H226.801V195.263H226.696H226.59V195.578H226.696ZM226.696 194.631H226.801V194H226.696H226.59V194.631H226.696ZM226.696 193.368H226.801V192.736H226.696H226.59V193.368H226.696ZM226.696 192.105H226.801V191.473H226.696H226.59V192.105H226.696ZM226.696 190.842H226.801V190.21H226.696H226.59V190.842H226.696ZM226.696 189.578H226.801V188.947H226.696H226.59V189.578H226.696ZM226.696 188.315H226.801V188H226.696H226.59V188.315H226.696ZM226.696 195.578H226.906V195.263H226.696H226.485V195.578H226.696ZM226.696 194.631H226.906V194H226.696H226.485V194.631H226.696ZM226.696 193.368H226.906V192.736H226.696H226.485V193.368H226.696ZM226.696 192.105H226.906V191.473H226.696H226.485V192.105H226.696ZM226.696 190.842H226.906V190.21H226.696H226.485V190.842H226.696ZM226.696 189.578H226.906V188.947H226.696H226.485V189.578H226.696ZM226.696 188.315H226.906V188H226.696H226.485V188.315H226.696Z" fill="#DBDBDB" mask="url(#path-228-inside-45_462_30136)"/>
<g clip-path="url(#clip46_462_30136)">
<mask id="path-230-inside-46_462_30136" fill="white">
<path d="M226.696 188H251.138V195.578H226.696V188Z"/>
</mask>
<path d="M226.696 188H251.138V195.578H226.696V188Z" fill="white"/>
</g>
<path d="M251.138 195.578H251.243V195.263H251.138H251.033V195.578H251.138ZM251.138 194.631H251.243V194H251.138H251.033V194.631H251.138ZM251.138 193.368H251.243V192.736H251.138H251.033V193.368H251.138ZM251.138 192.105H251.243V191.473H251.138H251.033V192.105H251.138ZM251.138 190.842H251.243V190.21H251.138H251.033V190.842H251.138ZM251.138 189.578H251.243V188.947H251.138H251.033V189.578H251.138ZM251.138 188.315H251.243V188H251.138H251.033V188.315H251.138ZM251.138 195.578H251.348V195.263H251.138H250.927V195.578H251.138ZM251.138 194.631H251.348V194H251.138H250.927V194.631H251.138ZM251.138 193.368H251.348V192.736H251.138H250.927V193.368H251.138ZM251.138 192.105H251.348V191.473H251.138H250.927V192.105H251.138ZM251.138 190.842H251.348V190.21H251.138H250.927V190.842H251.138ZM251.138 189.578H251.348V188.947H251.138H250.927V189.578H251.138ZM251.138 188.315H251.348V188H251.138H250.927V188.315H251.138Z" fill="#DBDBDB" mask="url(#path-230-inside-46_462_30136)"/>
<g clip-path="url(#clip47_462_30136)">
<mask id="path-232-inside-47_462_30136" fill="white">
<path d="M251.138 188H275.58V195.578H251.138V188Z"/>
</mask>
<path d="M251.138 188H275.58V195.578H251.138V188Z" fill="white"/>
</g>
<path d="M275.58 195.578H275.686V195.263H275.58H275.475V195.578H275.58ZM275.58 194.631H275.686V194H275.58H275.475V194.631H275.58ZM275.58 193.368H275.686V192.736H275.58H275.475V193.368H275.58ZM275.58 192.105H275.686V191.473H275.58H275.475V192.105H275.58ZM275.58 190.842H275.686V190.21H275.58H275.475V190.842H275.58ZM275.58 189.578H275.686V188.947H275.58H275.475V189.578H275.58ZM275.58 188.315H275.686V188H275.58H275.475V188.315H275.58ZM275.58 195.578H275.791V195.263H275.58H275.37V195.578H275.58ZM275.58 194.631H275.791V194H275.58H275.37V194.631H275.58ZM275.58 193.368H275.791V192.736H275.58H275.37V193.368H275.58ZM275.58 192.105H275.791V191.473H275.58H275.37V192.105H275.58ZM275.58 190.842H275.791V190.21H275.58H275.37V190.842H275.58ZM275.58 189.578H275.791V188.947H275.58H275.37V189.578H275.58ZM275.58 188.315H275.791V188H275.58H275.37V188.315H275.58Z" fill="#DBDBDB" mask="url(#path-232-inside-47_462_30136)"/>
<g clip-path="url(#clip48_462_30136)">
<mask id="path-234-inside-48_462_30136" fill="white">
<path d="M275.58 188H297.262V195.578H275.58V188Z"/>
</mask>
<path d="M275.58 188H297.262V195.578H275.58V188Z" fill="white"/>
</g>
<path d="M297.262 195.578H297.367V195.263H297.262H297.157V195.578H297.262ZM297.262 194.631H297.367V194H297.262H297.157V194.631H297.262ZM297.262 193.368H297.367V192.736H297.262H297.157V193.368H297.262ZM297.262 192.105H297.367V191.473H297.262H297.157V192.105H297.262ZM297.262 190.842H297.367V190.21H297.262H297.157V190.842H297.262ZM297.262 189.578H297.367V188.947H297.262H297.157V189.578H297.262ZM297.262 188.315H297.367V188H297.262H297.157V188.315H297.262ZM297.262 195.578H297.473V195.263H297.262H297.051V195.578H297.262ZM297.262 194.631H297.473V194H297.262H297.051V194.631H297.262ZM297.262 193.368H297.473V192.736H297.262H297.051V193.368H297.262ZM297.262 192.105H297.473V191.473H297.262H297.051V192.105H297.262ZM297.262 190.842H297.473V190.21H297.262H297.051V190.842H297.262ZM297.262 189.578H297.473V188.947H297.262H297.051V189.578H297.262ZM297.262 188.315H297.473V188H297.262H297.051V188.315H297.262Z" fill="#DBDBDB" mask="url(#path-234-inside-48_462_30136)"/>
</g>
<defs>
<clipPath id="clip0_462_30136">
<rect width="303.158" height="189.474" rx="2.10526" fill="white"/>
</clipPath>
<clipPath id="clip1_462_30136">
<path d="M22.736 165.263H31.157V172.842H22.736V165.263Z" fill="white"/>
</clipPath>
<clipPath id="clip2_462_30136">
<path d="M31.1571 165.263H55.5994V172.842H31.1571V165.263Z" fill="white"/>
</clipPath>
<clipPath id="clip3_462_30136">
<path d="M55.5994 165.263H80.0417V172.842H55.5994V165.263Z" fill="white"/>
</clipPath>
<clipPath id="clip4_462_30136">
<path d="M80.0417 165.263H104.484V172.842H80.0417V165.263Z" fill="white"/>
</clipPath>
<clipPath id="clip5_462_30136">
<path d="M104.484 165.263H128.926V172.842H104.484V165.263Z" fill="white"/>
</clipPath>
<clipPath id="clip6_462_30136">
<path d="M128.926 165.263H153.369V172.842H128.926V165.263Z" fill="white"/>
</clipPath>
<clipPath id="clip7_462_30136">
<path d="M153.369 165.263H177.811V172.842H153.369V165.263Z" fill="white"/>
</clipPath>
<clipPath id="clip8_462_30136">
<path d="M177.811 165.263H202.253V172.842H177.811V165.263Z" fill="white"/>
</clipPath>
<clipPath id="clip9_462_30136">
<path d="M202.253 165.263H226.696V172.842H202.253V165.263Z" fill="white"/>
</clipPath>
<clipPath id="clip10_462_30136">
<path d="M226.696 165.263H251.138V172.842H226.696V165.263Z" fill="white"/>
</clipPath>
<clipPath id="clip11_462_30136">
<path d="M251.138 165.263H275.58V172.842H251.138V165.263Z" fill="white"/>
</clipPath>
<clipPath id="clip12_462_30136">
<path d="M275.58 165.263H297.262V172.842H275.58V165.263Z" fill="white"/>
</clipPath>
<clipPath id="clip13_462_30136">
<path d="M22.736 172.842H31.157V180.421H22.736V172.842Z" fill="white"/>
</clipPath>
<clipPath id="clip14_462_30136">
<path d="M31.1571 172.842H55.5994V180.421H31.1571V172.842Z" fill="white"/>
</clipPath>
<clipPath id="clip15_462_30136">
<path d="M55.5994 172.842H80.0417V180.421H55.5994V172.842Z" fill="white"/>
</clipPath>
<clipPath id="clip16_462_30136">
<path d="M80.0417 172.842H104.484V180.421H80.0417V172.842Z" fill="white"/>
</clipPath>
<clipPath id="clip17_462_30136">
<path d="M104.484 172.842H128.926V180.421H104.484V172.842Z" fill="white"/>
</clipPath>
<clipPath id="clip18_462_30136">
<path d="M128.926 172.842H153.369V180.421H128.926V172.842Z" fill="white"/>
</clipPath>
<clipPath id="clip19_462_30136">
<path d="M153.369 172.842H177.811V180.421H153.369V172.842Z" fill="white"/>
</clipPath>
<clipPath id="clip20_462_30136">
<path d="M177.811 172.842H202.253V180.421H177.811V172.842Z" fill="white"/>
</clipPath>
<clipPath id="clip21_462_30136">
<path d="M202.253 172.842H226.696V180.421H202.253V172.842Z" fill="white"/>
</clipPath>
<clipPath id="clip22_462_30136">
<path d="M226.696 172.842H251.138V180.421H226.696V172.842Z" fill="white"/>
</clipPath>
<clipPath id="clip23_462_30136">
<path d="M251.138 172.842H275.58V180.421H251.138V172.842Z" fill="white"/>
</clipPath>
<clipPath id="clip24_462_30136">
<path d="M275.58 172.842H297.262V180.421H275.58V172.842Z" fill="white"/>
</clipPath>
<clipPath id="clip25_462_30136">
<path d="M22.736 180.42H31.157V187.999H22.736V180.42Z" fill="white"/>
</clipPath>
<clipPath id="clip26_462_30136">
<path d="M31.1571 180.42H55.5994V187.999H31.1571V180.42Z" fill="white"/>
</clipPath>
<clipPath id="clip27_462_30136">
<path d="M55.5994 180.42H80.0417V187.999H55.5994V180.42Z" fill="white"/>
</clipPath>
<clipPath id="clip28_462_30136">
<path d="M80.0417 180.42H104.484V187.999H80.0417V180.42Z" fill="white"/>
</clipPath>
<clipPath id="clip29_462_30136">
<path d="M104.484 180.42H128.926V187.999H104.484V180.42Z" fill="white"/>
</clipPath>
<clipPath id="clip30_462_30136">
<path d="M128.926 180.42H153.369V187.999H128.926V180.42Z" fill="white"/>
</clipPath>
<clipPath id="clip31_462_30136">
<path d="M153.369 180.42H177.811V187.999H153.369V180.42Z" fill="white"/>
</clipPath>
<clipPath id="clip32_462_30136">
<path d="M177.811 180.42H202.253V187.999H177.811V180.42Z" fill="white"/>
</clipPath>
<clipPath id="clip33_462_30136">
<path d="M202.253 180.42H226.696V187.999H202.253V180.42Z" fill="white"/>
</clipPath>
<clipPath id="clip34_462_30136">
<path d="M226.696 180.42H251.138V187.999H226.696V180.42Z" fill="white"/>
</clipPath>
<clipPath id="clip35_462_30136">
<path d="M251.138 180.42H275.58V187.999H251.138V180.42Z" fill="white"/>
</clipPath>
<clipPath id="clip36_462_30136">
<path d="M275.58 180.42H297.262V187.999H275.58V180.42Z" fill="white"/>
</clipPath>
<clipPath id="clip37_462_30136">
<path d="M22.736 188H31.1571V195.578H22.736V188Z" fill="white"/>
</clipPath>
<clipPath id="clip38_462_30136">
<path d="M31.1571 188H55.5994V195.578H31.1571V188Z" fill="white"/>
</clipPath>
<clipPath id="clip39_462_30136">
<path d="M55.5994 188H80.0417V195.578H55.5994V188Z" fill="white"/>
</clipPath>
<clipPath id="clip40_462_30136">
<path d="M80.0417 188H104.484V195.578H80.0417V188Z" fill="white"/>
</clipPath>
<clipPath id="clip41_462_30136">
<path d="M104.484 188H128.926V195.578H104.484V188Z" fill="white"/>
</clipPath>
<clipPath id="clip42_462_30136">
<path d="M128.926 188H153.369V195.578H128.926V188Z" fill="white"/>
</clipPath>
<clipPath id="clip43_462_30136">
<path d="M153.369 188H177.811V195.578H153.369V188Z" fill="white"/>
</clipPath>
<clipPath id="clip44_462_30136">
<path d="M177.811 188H202.253V195.578H177.811V188Z" fill="white"/>
</clipPath>
<clipPath id="clip45_462_30136">
<path d="M202.253 188H226.696V195.578H202.253V188Z" fill="white"/>
</clipPath>
<clipPath id="clip46_462_30136">
<path d="M226.696 188H251.138V195.578H226.696V188Z" fill="white"/>
</clipPath>
<clipPath id="clip47_462_30136">
<path d="M251.138 188H275.58V195.578H251.138V188Z" fill="white"/>
</clipPath>
<clipPath id="clip48_462_30136">
<path d="M275.58 188H297.262V195.578H275.58V188Z" fill="white"/>
</clipPath>
</defs>
</svg>
